NotoSansAdlamUnjoined-Bold.ufo
<glyph name="exclam" format="2">
  <advance width="286"/>
  <unicode hex="0021"/>
  <outline>
    <contour>
      <point x="203" y="237" type="line"/>
      <point x="228" y="714" type="line"/>
      <point x="59" y="714" type="line"/>
      <point x="84" y="237" type="line"/>
    </contour>
    <contour>
      <point x="57" y="70" type="curve" smooth="yes"/>
      <point x="57" y="11.333"/>
      <point x="95" y="-13"/>
      <point x="143" y="-13" type="curve" smooth="yes"/>
      <point x="189.667" y="-13"/>
      <point x="228" y="11.333"/>
      <point x="228" y="70" type="curve" smooth="yes"/>
      <point x="228" y="131.333"/>
      <point x="189.667" y="153"/>
      <point x="143" y="153" type="curve" smooth="yes"/>
      <point x="95" y="153"/>
      <point x="57" y="131.333"/>
    </contour>
  </outline>
</glyph>
<glyph name="quotedbl" format="2">
  <advance width="472"/>
  <unicode hex="0022"/>
  <outline>
    <contour>
      <point x="201" y="714" type="line"/>
      <point x="65" y="714" type="line"/>
      <point x="85" y="456" type="line"/>
      <point x="181" y="456" type="line"/>
    </contour>
    <contour>
      <point x="407" y="714" type="line"/>
      <point x="271" y="714" type="line"/>
      <point x="291" y="456" type="line"/>
      <point x="387" y="456" type="line"/>
    </contour>
  </outline>
</glyph>
<glyph name="numbersign" format="2">
  <advance width="646"/>
  <unicode hex="0023"/>
  <outline>
    <contour>
      <point x="488" y="412" type="line"/>
      <point x="624" y="412" type="line"/>
      <point x="624" y="514" type="line"/>
      <point x="507" y="514" type="line"/>
      <point x="545" y="713" type="line"/>
      <point x="440" y="713" type="line"/>
      <point x="402" y="514" type="line"/>
      <point x="305" y="514" type="line"/>
      <point x="343" y="713" type="line"/>
      <point x="236" y="713" type="line"/>
      <point x="198" y="514" type="line"/>
      <point x="57" y="514" type="line"/>
      <point x="57" y="412" type="line"/>
      <point x="180" y="412" type="line"/>
      <point x="157" y="299" type="line"/>
      <point x="22" y="299" type="line"/>
      <point x="22" y="198" type="line"/>
      <point x="138" y="198" type="line"/>
      <point x="102" y="0" type="line"/>
      <point x="207" y="0" type="line"/>
      <point x="244" y="198" type="line"/>
      <point x="339" y="198" type="line"/>
      <point x="301" y="0" type="line"/>
      <point x="408" y="0" type="line"/>
      <point x="446" y="198" type="line"/>
      <point x="591" y="198" type="line"/>
      <point x="591" y="299" type="line"/>
      <point x="465" y="299" type="line"/>
    </contour>
    <contour>
      <point x="263" y="299" type="line"/>
      <point x="286" y="412" type="line"/>
      <point x="382" y="412" type="line"/>
      <point x="359" y="299" type="line"/>
    </contour>
  </outline>
</glyph>
<glyph name="dollar" format="2">
  <advance width="572"/>
  <unicode hex="0024"/>
  <outline>
    <contour>
      <point x="253" y="-58" type="line"/>
      <point x="320" y="-58" type="line"/>
      <point x="320" y="42" type="line"/>
      <point x="462.667" y="55.333"/>
      <point x="533" y="125.667"/>
      <point x="533" y="223" type="curve" smooth="yes"/>
      <point x="533" y="329"/>
      <point x="458" y="370"/>
      <point x="320" y="421" type="curve"/>
      <point x="320" y="565" type="line"/>
      <point x="366.667" y="561"/>
      <point x="422.667" y="549.667"/>
      <point x="476" y="527" type="curve"/>
      <point x="522" y="641" type="line"/>
      <point x="461.333" y="668.333"/>
      <point x="394" y="683.333"/>
      <point x="320" y="686" type="curve"/>
      <point x="320" y="759" type="line"/>
      <point x="253" y="759" type="line"/>
      <point x="253" y="684" type="line"/>
      <point x="129" y="673.333"/>
      <point x="43" y="612"/>
      <point x="43" y="512" type="curve" smooth="yes"/>
      <point x="43" y="403"/>
      <point x="119" y="358"/>
      <point x="253" y="306" type="curve"/>
      <point x="253" y="155" type="line"/>
      <point x="182.333" y="159"/>
      <point x="98.667" y="184.333"/>
      <point x="44" y="211" type="curve"/>
      <point x="44" y="82" type="line"/>
      <point x="100" y="56.667"/>
      <point x="166.333" y="42.667"/>
      <point x="253" y="40" type="curve"/>
    </contour>
    <contour>
      <point x="320" y="158" type="curve"/>
      <point x="320" y="280" type="line"/>
      <point x="364" y="260"/>
      <point x="386" y="242.667"/>
      <point x="386" y="216" type="curve" smooth="yes"/>
      <point x="386" y="185.333"/>
      <point x="364" y="166"/>
    </contour>
    <contour>
      <point x="253" y="448" type="line"/>
      <point x="209" y="468"/>
      <point x="190" y="484"/>
      <point x="190" y="512" type="curve" smooth="yes"/>
      <point x="190" y="540"/>
      <point x="211" y="557"/>
      <point x="253" y="563" type="curve"/>
    </contour>
  </outline>
</glyph>
<glyph name="percent" format="2">
  <advance width="901"/>
  <unicode hex="0025"/>
  <outline>
    <contour>
      <point x="199" y="724" type="curve" smooth="yes"/>
      <point x="81.667" y="724"/>
      <point x="31" y="642.333"/>
      <point x="31" y="501" type="curve" smooth="yes"/>
      <point x="31" y="359.667"/>
      <point x="88.333" y="276"/>
      <point x="199" y="276" type="curve" smooth="yes"/>
      <point x="317.667" y="276"/>
      <point x="370" y="359.667"/>
      <point x="370" y="501" type="curve" smooth="yes"/>
      <point x="370" y="642.333"/>
      <point x="311" y="724"/>
    </contour>
    <contour>
      <point x="200" y="622" type="curve" smooth="yes"/>
      <point x="231.333" y="622"/>
      <point x="247" y="581.333"/>
      <point x="247" y="500" type="curve" smooth="yes"/>
      <point x="247" y="418"/>
      <point x="231.333" y="377"/>
      <point x="200" y="377" type="curve" smooth="yes"/>
      <point x="169.333" y="377"/>
      <point x="154" y="418"/>
      <point x="154" y="500" type="curve" smooth="yes"/>
      <point x="154" y="581.333"/>
      <point x="169.333" y="622"/>
    </contour>
    <contour>
      <point x="706" y="714" type="line"/>
      <point x="589" y="714" type="line"/>
      <point x="193" y="0" type="line"/>
      <point x="310" y="0" type="line"/>
    </contour>
    <contour>
      <point x="699" y="439" type="curve" smooth="yes"/>
      <point x="581.667" y="439"/>
      <point x="531" y="357.333"/>
      <point x="531" y="216" type="curve" smooth="yes"/>
      <point x="531" y="74.667"/>
      <point x="588.333" y="-9"/>
      <point x="699" y="-9" type="curve" smooth="yes"/>
      <point x="817.667" y="-9"/>
      <point x="870" y="74.667"/>
      <point x="870" y="216" type="curve" smooth="yes"/>
      <point x="870" y="357.333"/>
      <point x="811" y="439"/>
    </contour>
    <contour>
      <point x="700" y="337" type="curve" smooth="yes"/>
      <point x="731.333" y="337"/>
      <point x="747" y="296.333"/>
      <point x="747" y="215" type="curve" smooth="yes"/>
      <point x="747" y="133"/>
      <point x="731.333" y="92"/>
      <point x="700" y="92" type="curve" smooth="yes"/>
      <point x="669.333" y="92"/>
      <point x="654" y="133"/>
      <point x="654" y="215" type="curve" smooth="yes"/>
      <point x="654" y="296.333"/>
      <point x="669.333" y="337"/>
    </contour>
  </outline>
</glyph>
<glyph name="ampersand" format="2">
  <advance width="750"/>
  <unicode hex="0026"/>
  <outline>
    <contour>
      <point x="310" y="724" type="curve" smooth="yes"/>
      <point x="194" y="724"/>
      <point x="101" y="667"/>
      <point x="101" y="559" type="curve" smooth="yes"/>
      <point x="101" y="501.667"/>
      <point x="119" y="455"/>
      <point x="171" y="395" type="curve"/>
      <point x="89.667" y="348.333"/>
      <point x="40" y="294.333"/>
      <point x="40" y="193" type="curve" smooth="yes"/>
      <point x="40" y="71.667"/>
      <point x="136.333" y="-10"/>
      <point x="299" y="-10" type="curve" smooth="yes"/>
      <point x="381.667" y="-10"/>
      <point x="451.333" y="15"/>
      <point x="510" y="55" type="curve"/>
      <point x="566" y="0" type="line"/>
      <point x="750" y="0" type="line"/>
      <point x="603" y="143" type="line"/>
      <point x="663" y="217.667"/>
      <point x="701" y="308.333"/>
      <point x="721" y="383" type="curve"/>
      <point x="566" y="383" type="line"/>
      <point x="552.667" y="332.333"/>
      <point x="532.667" y="281.333"/>
      <point x="506" y="236" type="curve"/>
      <point x="367" y="371" type="line"/>
      <point x="448.333" y="417.667"/>
      <point x="510" y="477"/>
      <point x="510" y="569" type="curve" smooth="yes"/>
      <point x="510" y="669"/>
      <point x="425" y="724"/>
    </contour>
    <contour>
      <point x="258" y="306" type="curve"/>
      <point x="420" y="145" type="line"/>
      <point x="389" y="126"/>
      <point x="352" y="115"/>
      <point x="309" y="115" type="curve" smooth="yes"/>
      <point x="245" y="115"/>
      <point x="197" y="150"/>
      <point x="197" y="207" type="curve" smooth="yes"/>
      <point x="197" y="248"/>
      <point x="221" y="278"/>
    </contour>
    <contour>
      <point x="309" y="609" type="curve" smooth="yes"/>
      <point x="339.667" y="609"/>
      <point x="372" y="593"/>
      <point x="372" y="553" type="curve" smooth="yes"/>
      <point x="372" y="514"/>
      <point x="341" y="486"/>
      <point x="285" y="454" type="curve"/>
      <point x="257" y="486"/>
      <point x="239" y="515.667"/>
      <point x="239" y="549" type="curve" smooth="yes"/>
      <point x="239" y="595.667"/>
      <point x="275.667" y="609"/>
    </contour>
  </outline>
</glyph>
<glyph name="quotesingle" format="2">
  <advance width="266"/>
  <unicode hex="0027"/>
  <outline>
    <contour>
      <point x="201" y="714" type="line"/>
      <point x="65" y="714" type="line"/>
      <point x="85" y="456" type="line"/>
      <point x="181" y="456" type="line"/>
    </contour>
  </outline>
</glyph>
<glyph name="parenleft" format="2">
  <advance width="339"/>
  <unicode hex="0028"/>
  <outline>
    <contour>
      <point x="40" y="274" type="curve" smooth="yes"/>
      <point x="40" y="112.667"/>
      <point x="85.667" y="-40.667"/>
      <point x="187" y="-158" type="curve"/>
      <point x="308" y="-158" type="line"/>
      <point x="217.333" y="-35.333"/>
      <point x="170" y="120.333"/>
      <point x="170" y="275" type="curve" smooth="yes"/>
      <point x="170" y="433.667"/>
      <point x="218.333" y="588.667"/>
      <point x="309" y="714" type="curve"/>
      <point x="187" y="714" type="line"/>
      <point x="85.667" y="592.667"/>
      <point x="40" y="436.667"/>
    </contour>
  </outline>
</glyph>
<glyph name="parenright" format="2">
  <advance width="339"/>
  <unicode hex="0029"/>
  <outline>
    <contour>
      <point x="299" y="274" type="curve" smooth="yes"/>
      <point x="299" y="436.667"/>
      <point x="253.333" y="592.667"/>
      <point x="152" y="714" type="curve"/>
      <point x="30" y="714" type="line"/>
      <point x="120.667" y="588.667"/>
      <point x="169" y="433.667"/>
      <point x="169" y="275" type="curve" smooth="yes"/>
      <point x="169" y="120.333"/>
      <point x="120.333" y="-35.333"/>
      <point x="31" y="-158" type="curve"/>
      <point x="152" y="-158" type="line"/>
      <point x="253.333" y="-40.667"/>
      <point x="299" y="112.667"/>
    </contour>
  </outline>
</glyph>
<glyph name="asterisk" format="2">
  <advance width="545"/>
  <unicode hex="002A"/>
  <outline>
    <contour>
      <point x="336" y="760" type="line"/>
      <point x="208" y="760" type="line"/>
      <point x="228" y="580" type="line"/>
      <point x="50" y="631" type="line"/>
      <point x="31" y="509" type="line"/>
      <point x="196" y="496" type="line"/>
      <point x="88" y="351" type="line"/>
      <point x="203" y="293" type="line"/>
      <point x="270" y="445" type="line"/>
      <point x="346" y="292" type="line"/>
      <point x="457" y="351" type="line"/>
      <point x="348" y="496" type="line"/>
      <point x="514" y="508" type="line"/>
      <point x="498" y="631" type="line"/>
      <point x="316" y="580" type="line"/>
    </contour>
  </outline>
</glyph>
<glyph name="plus" format="2">
  <advance width="572"/>
  <unicode hex="002B"/>
  <outline>
    <contour>
      <point x="339" y="406" type="line"/>
      <point x="339" y="596" type="line"/>
      <point x="232" y="596" type="line"/>
      <point x="232" y="406" type="line"/>
      <point x="43" y="406" type="line"/>
      <point x="43" y="299" type="line"/>
      <point x="232" y="299" type="line"/>
      <point x="232" y="111" type="line"/>
      <point x="339" y="111" type="line"/>
      <point x="339" y="299" type="line"/>
      <point x="528" y="299" type="line"/>
      <point x="528" y="406" type="line"/>
    </contour>
  </outline>
</glyph>
<glyph name="comma" format="2">
  <advance width="285"/>
  <unicode hex="002C"/>
  <outline>
    <contour>
      <point x="217" y="116" type="line"/>
      <point x="80" y="116" type="line"/>
      <point x="79" y="47"/>
      <point x="60" y="-50"/>
      <point x="31" y="-129" type="curve"/>
      <point x="138" y="-129" type="line"/>
      <point x="181" y="-56"/>
      <point x="215" y="34"/>
      <point x="224" y="105" type="curve"/>
    </contour>
  </outline>
</glyph>
<glyph name="period" format="2">
  <advance width="285"/>
  <unicode hex="002E"/>
  <outline>
    <contour>
      <point x="57" y="70" type="curve" smooth="yes"/>
      <point x="57" y="11.333"/>
      <point x="95" y="-13"/>
      <point x="143" y="-13" type="curve" smooth="yes"/>
      <point x="189.667" y="-13"/>
      <point x="228" y="11.333"/>
      <point x="228" y="70" type="curve" smooth="yes"/>
      <point x="228" y="131.333"/>
      <point x="189.667" y="153"/>
      <point x="143" y="153" type="curve" smooth="yes"/>
      <point x="95" y="153"/>
      <point x="57" y="131.333"/>
    </contour>
  </outline>
</glyph>
<glyph name="slash" format="2">
  <advance width="413"/>
  <unicode hex="002F"/>
  <outline>
    <contour>
      <point x="408" y="714" type="line"/>
      <point x="273" y="714" type="line"/>
      <point x="7" y="0" type="line"/>
      <point x="142" y="0" type="line"/>
    </contour>
  </outline>
</glyph>
<glyph name="zero" format="2">
  <advance width="572"/>
  <unicode hex="0030"/>
  <outline>
    <contour>
      <point x="535" y="357" type="curve" smooth="yes"/>
      <point x="535" y="589"/>
      <point x="455.667" y="725"/>
      <point x="285" y="725" type="curve" smooth="yes"/>
      <point x="97" y="725"/>
      <point x="36" y="580"/>
      <point x="36" y="357" type="curve" smooth="yes"/>
      <point x="36" y="126.333"/>
      <point x="113" y="-10"/>
      <point x="285" y="-10" type="curve" smooth="yes"/>
      <point x="472" y="-10"/>
      <point x="535" y="135"/>
    </contour>
    <contour>
      <point x="186" y="357" type="curve" smooth="yes"/>
      <point x="186" y="485"/>
      <point x="197" y="603"/>
      <point x="285" y="603" type="curve" smooth="yes"/>
      <point x="371" y="603"/>
      <point x="385" y="489"/>
      <point x="385" y="357" type="curve" smooth="yes"/>
      <point x="385" y="229"/>
      <point x="372" y="112"/>
      <point x="285" y="112" type="curve" smooth="yes"/>
      <point x="199" y="112"/>
      <point x="186" y="224"/>
    </contour>
  </outline>
</glyph>
<glyph name="one" format="2">
  <advance width="572"/>
  <unicode hex="0031"/>
  <outline>
    <contour>
      <point x="413" y="0" type="line"/>
      <point x="413" y="714" type="line"/>
      <point x="289" y="714" type="line"/>
      <point x="59" y="531" type="line"/>
      <point x="132" y="440" type="line"/>
      <point x="214" y="506" type="line" smooth="yes"/>
      <point x="232.667" y="522"/>
      <point x="259.333" y="547"/>
      <point x="266" y="555" type="curve"/>
      <point x="263.333" y="512.333"/>
      <point x="262" y="446.333"/>
      <point x="262" y="413" type="curve" smooth="yes"/>
      <point x="262" y="0" type="line"/>
    </contour>
  </outline>
</glyph>
<glyph name="two" format="2">
  <advance width="572"/>
  <unicode hex="0032"/>
  <outline>
    <contour>
      <point x="539" y="0" type="line"/>
      <point x="539" y="127" type="line"/>
      <point x="228" y="127" type="line"/>
      <point x="228" y="134" type="line"/>
      <point x="320" y="220" type="line" smooth="yes"/>
      <point x="438" y="328"/>
      <point x="519" y="408"/>
      <point x="519" y="531" type="curve" smooth="yes"/>
      <point x="519" y="648"/>
      <point x="424" y="724"/>
      <point x="293" y="724" type="curve" smooth="yes"/>
      <point x="191" y="724"/>
      <point x="124" y="696"/>
      <point x="38" y="622" type="curve"/>
      <point x="120" y="525" type="line"/>
      <point x="177.333" y="571.667"/>
      <point x="227.333" y="598"/>
      <point x="282" y="598" type="curve" smooth="yes"/>
      <point x="335.333" y="598"/>
      <point x="369" y="570.333"/>
      <point x="369" y="513" type="curve" smooth="yes"/>
      <point x="369" y="438"/>
      <point x="313" y="383"/>
      <point x="219" y="286" type="curve" smooth="yes"/>
      <point x="40" y="105" type="line"/>
      <point x="40" y="0" type="line"/>
    </contour>
  </outline>
</glyph>
<glyph name="three" format="2">
  <advance width="572"/>
  <unicode hex="0033"/>
  <outline>
    <contour>
      <point x="511" y="554" type="curve" smooth="yes"/>
      <point x="511" y="662"/>
      <point x="418.667" y="724"/>
      <point x="272" y="724" type="curve" smooth="yes"/>
      <point x="168" y="724"/>
      <point x="95" y="694"/>
      <point x="39" y="654" type="curve"/>
      <point x="109" y="550" type="line"/>
      <point x="142.333" y="571.333"/>
      <point x="193" y="602"/>
      <point x="261" y="602" type="curve" smooth="yes"/>
      <point x="334.333" y="602"/>
      <point x="363" y="571.667"/>
      <point x="363" y="521" type="curve" smooth="yes"/>
      <point x="363" y="444"/>
      <point x="299" y="425"/>
      <point x="203" y="425" type="curve" smooth="yes"/>
      <point x="148" y="425" type="line"/>
      <point x="148" y="309" type="line"/>
      <point x="202" y="309" type="line" smooth="yes"/>
      <point x="300" y="309"/>
      <point x="374" y="295"/>
      <point x="374" y="217" type="curve" smooth="yes"/>
      <point x="374" y="149"/>
      <point x="336" y="110"/>
      <point x="228" y="110" type="curve" smooth="yes"/>
      <point x="169.333" y="110"/>
      <point x="99.333" y="126.333"/>
      <point x="38" y="157" type="curve"/>
      <point x="38" y="29" type="line"/>
      <point x="98" y="3"/>
      <point x="166.667" y="-10"/>
      <point x="244" y="-10" type="curve" smooth="yes"/>
      <point x="412" y="-10"/>
      <point x="532" y="59"/>
      <point x="532" y="208" type="curve" smooth="yes"/>
      <point x="532" y="301.333"/>
      <point x="470.333" y="358.333"/>
      <point x="357" y="373" type="curve"/>
      <point x="357" y="376" type="line"/>
      <point x="443.667" y="397.333"/>
      <point x="511" y="455.333"/>
    </contour>
  </outline>
</glyph>
<glyph name="four" format="2">
  <advance width="572"/>
  <unicode hex="0034"/>
  <outline>
    <contour>
      <point x="555" y="148" type="line"/>
      <point x="555" y="265" type="line"/>
      <point x="469" y="265" type="line"/>
      <point x="469" y="714" type="line"/>
      <point x="330" y="714" type="line"/>
      <point x="17" y="253" type="line"/>
      <point x="17" y="148" type="line"/>
      <point x="322" y="148" type="line"/>
      <point x="322" y="0" type="line"/>
      <point x="469" y="0" type="line"/>
      <point x="469" y="148" type="line"/>
    </contour>
    <contour>
      <point x="322" y="265" type="line"/>
      <point x="150" y="265" type="line"/>
      <point x="281" y="463" type="line" smooth="yes"/>
      <point x="298.333" y="489.667"/>
      <point x="312" y="514.333"/>
      <point x="324" y="541" type="curve"/>
      <point x="328" y="541" type="line"/>
      <point x="325.334" y="517.006"/>
      <point x="322" y="426.609"/>
      <point x="322" y="386" type="curve" smooth="yes"/>
    </contour>
  </outline>
</glyph>
<glyph name="five" format="2">
  <advance width="572"/>
  <unicode hex="0035"/>
  <outline>
    <contour>
      <point x="300" y="456" type="curve" smooth="yes"/>
      <point x="267" y="456"/>
      <point x="249" y="453"/>
      <point x="209" y="446" type="curve"/>
      <point x="222" y="586" type="line"/>
      <point x="477" y="586" type="line"/>
      <point x="477" y="714" type="line"/>
      <point x="90" y="714" type="line"/>
      <point x="63" y="350" type="line"/>
      <point x="123" y="318" type="line"/>
      <point x="149.667" y="324.667"/>
      <point x="193.667" y="334"/>
      <point x="231" y="334" type="curve" smooth="yes"/>
      <point x="326.333" y="334"/>
      <point x="374" y="298"/>
      <point x="374" y="226" type="curve" smooth="yes"/>
      <point x="374" y="148.667"/>
      <point x="325.333" y="113"/>
      <point x="236" y="113" type="curve" smooth="yes"/>
      <point x="174.667" y="113"/>
      <point x="98.333" y="133.667"/>
      <point x="49" y="159" type="curve"/>
      <point x="49" y="29" type="line"/>
      <point x="98.333" y="3.667"/>
      <point x="166.333" y="-10"/>
      <point x="241" y="-10" type="curve" smooth="yes"/>
      <point x="429" y="-10"/>
      <point x="526" y="84.333"/>
      <point x="526" y="239" type="curve" smooth="yes"/>
      <point x="526" y="374"/>
      <point x="436" y="456"/>
    </contour>
  </outline>
</glyph>
<glyph name="six" format="2">
  <advance width="572"/>
  <unicode hex="0036"/>
  <outline>
    <contour>
      <point x="35" y="303" type="curve" smooth="yes"/>
      <point x="35" y="118"/>
      <point x="125" y="-10"/>
      <point x="296" y="-10" type="curve" smooth="yes"/>
      <point x="445.333" y="-10"/>
      <point x="539" y="83.333"/>
      <point x="539" y="238" type="curve" smooth="yes"/>
      <point x="539" y="382"/>
      <point x="460.333" y="464"/>
      <point x="335" y="464" type="curve" smooth="yes"/>
      <point x="255" y="464"/>
      <point x="206.667" y="427.667"/>
      <point x="180" y="381" type="curve"/>
      <point x="174" y="381" type="line"/>
      <point x="181" y="539"/>
      <point x="248" y="604"/>
      <point x="403" y="604" type="curve" smooth="yes"/>
      <point x="432.333" y="604"/>
      <point x="463.667" y="599.333"/>
      <point x="489" y="594" type="curve"/>
      <point x="489" y="715" type="line"/>
      <point x="463.667" y="720.333"/>
      <point x="421" y="722"/>
      <point x="393" y="722" type="curve" smooth="yes"/>
      <point x="142" y="722"/>
      <point x="35" y="570"/>
    </contour>
    <contour>
      <point x="293" y="111" type="curve" smooth="yes"/>
      <point x="223.149" y="111"/>
      <point x="185" y="180.428"/>
      <point x="185" y="249" type="curve" smooth="yes"/>
      <point x="185" y="300.091"/>
      <point x="233.121" y="348"/>
      <point x="296" y="348" type="curve" smooth="yes"/>
      <point x="361.333" y="348"/>
      <point x="393" y="305.333"/>
      <point x="393" y="236" type="curve" smooth="yes"/>
      <point x="393" y="150.667"/>
      <point x="351.667" y="111"/>
    </contour>
  </outline>
</glyph>
<glyph name="eight" format="2">
  <advance width="572"/>
  <unicode hex="0038"/>
  <outline>
    <contour>
      <point x="286" y="723" type="curve" smooth="yes"/>
      <point x="168" y="723"/>
      <point x="57" y="668"/>
      <point x="57" y="552" type="curve" smooth="yes"/>
      <point x="57" y="466.667"/>
      <point x="108" y="413"/>
      <point x="172" y="373" type="curve"/>
      <point x="96" y="335.667"/>
      <point x="35" y="278.333"/>
      <point x="35" y="181" type="curve" smooth="yes"/>
      <point x="35" y="62.333"/>
      <point x="126" y="-10"/>
      <point x="286" y="-10" type="curve" smooth="yes"/>
      <point x="423" y="-10"/>
      <point x="536" y="58"/>
      <point x="536" y="185" type="curve" smooth="yes"/>
      <point x="536" y="270"/>
      <point x="479" y="328"/>
      <point x="386" y="377" type="curve"/>
      <point x="459.333" y="413"/>
      <point x="514" y="464.333"/>
      <point x="514" y="551" type="curve" smooth="yes"/>
      <point x="514" y="665"/>
      <point x="411" y="723"/>
    </contour>
    <contour>
      <point x="175" y="190" type="curve" smooth="yes"/>
      <point x="175" y="245"/>
      <point x="216" y="282"/>
      <point x="279" y="311" type="curve"/>
      <point x="292" y="304" type="line" smooth="yes"/>
      <point x="340" y="276"/>
      <point x="396" y="242"/>
      <point x="396" y="189" type="curve" smooth="yes"/>
      <point x="396" y="136"/>
      <point x="359" y="101"/>
      <point x="284" y="101" type="curve" smooth="yes"/>
      <point x="212" y="101"/>
      <point x="175" y="138"/>
    </contour>
    <contour>
      <point x="285" y="613" type="curve" smooth="yes"/>
      <point x="334" y="613"/>
      <point x="372" y="585"/>
      <point x="372" y="540" type="curve" smooth="yes"/>
      <point x="372" y="488"/>
      <point x="331" y="461"/>
      <point x="286" y="440" type="curve"/>
      <point x="239" y="463"/>
      <point x="199" y="491"/>
      <point x="199" y="540" type="curve" smooth="yes"/>
      <point x="199" y="585"/>
      <point x="236" y="613"/>
    </contour>
  </outline>
</glyph>
<glyph name="nine" format="2">
  <advance width="572"/>
  <unicode hex="0039"/>
  <outline>
    <contour>
      <point x="536" y="409" type="curve" smooth="yes"/>
      <point x="536" y="594"/>
      <point x="446" y="722"/>
      <point x="275" y="722" type="curve" smooth="yes"/>
      <point x="125.667" y="722"/>
      <point x="32" y="628.667"/>
      <point x="32" y="474" type="curve" smooth="yes"/>
      <point x="32" y="330"/>
      <point x="111.667" y="248"/>
      <point x="233" y="248" type="curve" smooth="yes"/>
      <point x="323.667" y="248"/>
      <point x="363" y="284.333"/>
      <point x="391" y="331" type="curve"/>
      <point x="397" y="331" type="line"/>
      <point x="390" y="173"/>
      <point x="323" y="108"/>
      <point x="168" y="108" type="curve" smooth="yes"/>
      <point x="138.667" y="108"/>
      <point x="108.667" y="112.667"/>
      <point x="82" y="118" type="curve"/>
      <point x="82" y="-3" type="line"/>
      <point x="107.333" y="-8.333"/>
      <point x="150" y="-10"/>
      <point x="178" y="-10" type="curve" smooth="yes"/>
      <point x="429" y="-10"/>
      <point x="536" y="142"/>
    </contour>
    <contour>
      <point x="278" y="601" type="curve" smooth="yes"/>
      <point x="348.929" y="601"/>
      <point x="386" y="532.066"/>
      <point x="386" y="463" type="curve" smooth="yes"/>
      <point x="386" y="412.361"/>
      <point x="336.898" y="364"/>
      <point x="275" y="364" type="curve" smooth="yes"/>
      <point x="209.667" y="364"/>
      <point x="178" y="406.667"/>
      <point x="178" y="476" type="curve" smooth="yes"/>
      <point x="178" y="561.333"/>
      <point x="219.333" y="601"/>
    </contour>
  </outline>
</glyph>
<glyph name="colon" format="2">
  <advance width="285"/>
  <unicode hex="003A"/>
  <outline>
    <contour>
      <point x="57" y="70" type="curve" smooth="yes"/>
      <point x="57" y="11.333"/>
      <point x="95" y="-13"/>
      <point x="143" y="-13" type="curve" smooth="yes"/>
      <point x="189.667" y="-13"/>
      <point x="228" y="11.333"/>
      <point x="228" y="70" type="curve" smooth="yes"/>
      <point x="228" y="131.333"/>
      <point x="189.667" y="153"/>
      <point x="143" y="153" type="curve" smooth="yes"/>
      <point x="95" y="153"/>
      <point x="57" y="131.333"/>
    </contour>
    <contour>
      <point x="57" y="473" type="curve" smooth="yes"/>
      <point x="57" y="414.333"/>
      <point x="95" y="390"/>
      <point x="143" y="390" type="curve" smooth="yes"/>
      <point x="189.667" y="390"/>
      <point x="228" y="414.333"/>
      <point x="228" y="473" type="curve" smooth="yes"/>
      <point x="228" y="534.333"/>
      <point x="189.667" y="556"/>
      <point x="143" y="556" type="curve" smooth="yes"/>
      <point x="95" y="556"/>
      <point x="57" y="534.333"/>
    </contour>
  </outline>
</glyph>
<glyph name="semicolon" format="2">
  <advance width="285"/>
  <unicode hex="003B"/>
  <outline>
    <contour>
      <point x="217" y="116" type="line"/>
      <point x="80" y="116" type="line"/>
      <point x="79" y="47"/>
      <point x="60" y="-50"/>
      <point x="31" y="-129" type="curve"/>
      <point x="138" y="-129" type="line"/>
      <point x="181" y="-56"/>
      <point x="215" y="34"/>
      <point x="224" y="105" type="curve"/>
    </contour>
    <contour>
      <point x="57" y="473" type="curve" smooth="yes"/>
      <point x="57" y="414.333"/>
      <point x="95" y="390"/>
      <point x="143" y="390" type="curve" smooth="yes"/>
      <point x="189.667" y="390"/>
      <point x="228" y="414.333"/>
      <point x="228" y="473" type="curve" smooth="yes"/>
      <point x="228" y="534.333"/>
      <point x="189.667" y="556"/>
      <point x="143" y="556" type="curve" smooth="yes"/>
      <point x="95" y="556"/>
      <point x="57" y="534.333"/>
    </contour>
  </outline>
</glyph>
<glyph name="less" format="2">
  <advance width="572"/>
  <unicode hex="003C"/>
  <outline>
    <contour>
      <point x="528" y="99" type="line"/>
      <point x="528" y="216" type="line"/>
      <point x="194" y="353" type="line"/>
      <point x="528" y="508" type="line"/>
      <point x="528" y="625" type="line"/>
      <point x="43" y="383" type="line"/>
      <point x="43" y="313" type="line"/>
    </contour>
  </outline>
</glyph>
<glyph name="equal" format="2">
  <advance width="572"/>
  <unicode hex="003D"/>
  <outline>
    <contour>
      <point x="43" y="394" type="line"/>
      <point x="528" y="394" type="line"/>
      <point x="528" y="500" type="line"/>
      <point x="43" y="500" type="line"/>
    </contour>
    <contour>
      <point x="43" y="204" type="line"/>
      <point x="528" y="204" type="line"/>
      <point x="528" y="311" type="line"/>
      <point x="43" y="311" type="line"/>
    </contour>
  </outline>
</glyph>
<glyph name="greater" format="2">
  <advance width="572"/>
  <unicode hex="003E"/>
  <outline>
    <contour>
      <point x="43" y="216" type="line"/>
      <point x="43" y="99" type="line"/>
      <point x="528" y="313" type="line"/>
      <point x="528" y="383" type="line"/>
      <point x="43" y="625" type="line"/>
      <point x="43" y="508" type="line"/>
      <point x="377" y="353" type="line"/>
    </contour>
  </outline>
</glyph>
<glyph name="question" format="2">
  <advance width="477"/>
  <unicode hex="003F"/>
  <outline>
    <contour>
      <point x="135" y="237" type="line"/>
      <point x="264" y="237" type="line"/>
      <point x="264" y="266" type="line" smooth="yes"/>
      <point x="264" y="310.079"/>
      <point x="283.29" y="327.346"/>
      <point x="336" y="366" type="curve" smooth="yes"/>
      <point x="412" y="420"/>
      <point x="453" y="464"/>
      <point x="453" y="547" type="curve" smooth="yes"/>
      <point x="453" y="649.667"/>
      <point x="372.667" y="724"/>
      <point x="234" y="724" type="curve" smooth="yes"/>
      <point x="143.333" y="724"/>
      <point x="68.333" y="699"/>
      <point x="3" y="663" type="curve"/>
      <point x="56" y="556" type="line"/>
      <point x="113.333" y="585.333"/>
      <point x="167" y="604"/>
      <point x="223" y="604" type="curve" smooth="yes"/>
      <point x="279" y="604"/>
      <point x="312" y="580.333"/>
      <point x="312" y="539" type="curve" smooth="yes"/>
      <point x="312" y="496.333"/>
      <point x="288" y="470.667"/>
      <point x="228" y="428" type="curve" smooth="yes"/>
      <point x="160" y="378.667"/>
      <point x="135" y="338.333"/>
      <point x="135" y="273" type="curve" smooth="yes"/>
    </contour>
    <contour>
      <point x="119" y="70" type="curve" smooth="yes"/>
      <point x="119" y="11.333"/>
      <point x="157" y="-13"/>
      <point x="205" y="-13" type="curve" smooth="yes"/>
      <point x="251.667" y="-13"/>
      <point x="290" y="11.333"/>
      <point x="290" y="70" type="curve" smooth="yes"/>
      <point x="290" y="131.333"/>
      <point x="251.667" y="153"/>
      <point x="205" y="153" type="curve" smooth="yes"/>
      <point x="157" y="153"/>
      <point x="119" y="131.333"/>
    </contour>
  </outline>
</glyph>
<glyph name="at" format="2">
  <advance width="897"/>
  <unicode hex="0040"/>
  <outline>
    <contour>
      <point x="847" y="358" type="curve" smooth="yes"/>
      <point x="847" y="575"/>
      <point x="697" y="714"/>
      <point x="479" y="714" type="curve" smooth="yes"/>
      <point x="225" y="714"/>
      <point x="50" y="536"/>
      <point x="50" y="285" type="curve" smooth="yes"/>
      <point x="50" y="50"/>
      <point x="198" y="-84"/>
      <point x="443" y="-84" type="curve" smooth="yes"/>
      <point x="531" y="-84"/>
      <point x="611" y="-66.667"/>
      <point x="675" y="-40" type="curve"/>
      <point x="675" y="54" type="line"/>
      <point x="604.333" y="27.333"/>
      <point x="516.333" y="9"/>
      <point x="439" y="9" type="curve" smooth="yes"/>
      <point x="256.333" y="9"/>
      <point x="158" y="108"/>
      <point x="158" y="288" type="curve" smooth="yes"/>
      <point x="158" y="486"/>
      <point x="276" y="622"/>
      <point x="480" y="622" type="curve" smooth="yes"/>
      <point x="633" y="622"/>
      <point x="740" y="521"/>
      <point x="740" y="359" type="curve" smooth="yes"/>
      <point x="740" y="289"/>
      <point x="724" y="194"/>
      <point x="672" y="194" type="curve" smooth="yes"/>
      <point x="639" y="194"/>
      <point x="635" y="229"/>
      <point x="635" y="267" type="curve" smooth="yes"/>
      <point x="635" y="282.5"/>
      <point x="635.333" y="289.333"/>
      <point x="636" y="303" type="curve" smooth="yes"/>
      <point x="646" y="501" type="line"/>
      <point x="608.667" y="514.333"/>
      <point x="532.667" y="528"/>
      <point x="470" y="528" type="curve" smooth="yes"/>
      <point x="331" y="528"/>
      <point x="234" y="437"/>
      <point x="234" y="299" type="curve" smooth="yes"/>
      <point x="234" y="183"/>
      <point x="301.333" y="105"/>
      <point x="420" y="105" type="curve" smooth="yes"/>
      <point x="482.667" y="105"/>
      <point x="527.333" y="134.667"/>
      <point x="554" y="168" type="curve"/>
      <point x="562" y="168" type="line"/>
      <point x="576.667" y="130.667"/>
      <point x="616.667" y="105"/>
      <point x="666" y="105" type="curve" smooth="yes"/>
      <point x="786.98" y="105"/>
      <point x="847" y="230.377"/>
    </contour>
    <contour>
      <point x="347" y="297" type="curve" smooth="yes"/>
      <point x="347" y="379"/>
      <point x="388" y="439"/>
      <point x="476" y="439" type="curve" smooth="yes"/>
      <point x="497.333" y="439"/>
      <point x="517.333" y="436.667"/>
      <point x="532" y="434" type="curve"/>
      <point x="526" y="326" type="line" smooth="yes"/>
      <point x="520.667" y="247.333"/>
      <point x="497.667" y="194"/>
      <point x="431" y="194" type="curve" smooth="yes"/>
      <point x="380.333" y="194"/>
      <point x="347" y="223.667"/>
    </contour>
  </outline>
</glyph>
<glyph name="A" format="2">
  <advance width="690"/>
  <unicode hex="0041"/>
  <anchor x="351" y="0" name="bottom"/>
  <anchor x="345" y="714" name="top"/>
  <anchor x="546" y="714" name="topright"/>
  <outline>
    <contour>
      <point x="527" y="0" type="line"/>
      <point x="690" y="0" type="line"/>
      <point x="437" y="717" type="line"/>
      <point x="252" y="717" type="line"/>
      <point x="0" y="0" type="line"/>
      <point x="163" y="0" type="line"/>
      <point x="215" y="170" type="line"/>
      <point x="475" y="170" type="line"/>
    </contour>
    <contour>
      <point x="439" y="297" type="line"/>
      <point x="253" y="297" type="line"/>
      <point x="304" y="463" type="line"/>
      <point x="310.776" y="481.633"/>
      <point x="337.821" y="577.284"/>
      <point x="345" y="606" type="curve"/>
      <point x="351.706" y="579.175"/>
      <point x="378.25" y="492.75"/>
      <point x="387" y="463" type="curve" smooth="yes"/>
    </contour>
  </outline>
</glyph>
<glyph name="B" format="2">
  <advance width="672"/>
  <unicode hex="0042"/>
  <anchor x="318" y="0" name="bottom"/>
  <anchor x="325" y="714" name="top"/>
  <anchor x="633" y="714" name="topright"/>
  <outline>
    <contour>
      <point x="90" y="714" type="line"/>
      <point x="90" y="0" type="line"/>
      <point x="357" y="0" type="line" smooth="yes"/>
      <point x="518.333" y="0"/>
      <point x="619" y="77.667"/>
      <point x="619" y="207" type="curve" smooth="yes"/>
      <point x="619" y="299"/>
      <point x="585" y="353"/>
      <point x="491" y="374" type="curve"/>
      <point x="491" y="379" type="line"/>
      <point x="561.667" y="391"/>
      <point x="601" y="451.667"/>
      <point x="601" y="533" type="curve" smooth="yes"/>
      <point x="601" y="667.667"/>
      <point x="501.333" y="714"/>
      <point x="312" y="714" type="curve" smooth="yes"/>
    </contour>
    <contour>
      <point x="241" y="431" type="line"/>
      <point x="241" y="590" type="line"/>
      <point x="321" y="590" type="line" smooth="yes"/>
      <point x="407.667" y="590"/>
      <point x="446" y="567.667"/>
      <point x="446" y="513" type="curve" smooth="yes"/>
      <point x="446" y="458.333"/>
      <point x="417" y="431"/>
      <point x="329" y="431" type="curve" smooth="yes"/>
    </contour>
    <contour>
      <point x="241" y="311" type="line"/>
      <point x="335" y="311" type="line" smooth="yes"/>
      <point x="431" y="311"/>
      <point x="462" y="275.333"/>
      <point x="462" y="222" type="curve" smooth="yes"/>
      <point x="462" y="163.333"/>
      <point x="430.667" y="125"/>
      <point x="340" y="125" type="curve" smooth="yes"/>
      <point x="241" y="125" type="line"/>
    </contour>
  </outline>
</glyph>
<glyph name="C" format="2">
  <advance width="637"/>
  <unicode hex="0043"/>
  <anchor x="379" y="0" name="bottom"/>
  <anchor x="387" y="714" name="top"/>
  <anchor x="619" y="714" name="topright"/>
  <outline>
    <contour>
      <point x="393" y="598" type="curve" smooth="yes"/>
      <point x="445" y="598"/>
      <point x="499.667" y="576.333"/>
      <point x="553" y="551" type="curve"/>
      <point x="602" y="674" type="line"/>
      <point x="536.667" y="704.667"/>
      <point x="463.667" y="724"/>
      <point x="393" y="724" type="curve" smooth="yes"/>
      <point x="180" y="724"/>
      <point x="58" y="575"/>
      <point x="58" y="356" type="curve" smooth="yes"/>
      <point x="58" y="135"/>
      <point x="157" y="-10"/>
      <point x="379" y="-10" type="curve" smooth="yes"/>
      <point x="455" y="-10"/>
      <point x="512.333" y="1.667"/>
      <point x="575" y="27" type="curve"/>
      <point x="575" y="154" type="line"/>
      <point x="507" y="130"/>
      <point x="450.333" y="116"/>
      <point x="393" y="116" type="curve" smooth="yes"/>
      <point x="267.667" y="116"/>
      <point x="214" y="203"/>
      <point x="214" y="355" type="curve" smooth="yes"/>
      <point x="214" y="505.667"/>
      <point x="277" y="598"/>
    </contour>
  </outline>
</glyph>
<glyph name="D" format="2">
  <advance width="740"/>
  <unicode hex="0044"/>
  <anchor x="345" y="0" name="bottom"/>
  <anchor x="368" y="357" name="center"/>
  <anchor x="364" y="714" name="top"/>
  <anchor x="713" y="714" name="topright"/>
  <outline>
    <contour>
      <point x="682" y="364" type="curve" smooth="yes"/>
      <point x="682" y="588"/>
      <point x="542" y="714"/>
      <point x="314" y="714" type="curve" smooth="yes"/>
      <point x="90" y="714" type="line"/>
      <point x="90" y="0" type="line"/>
      <point x="292" y="0" type="line" smooth="yes"/>
      <point x="537.333" y="0"/>
      <point x="682" y="122.667"/>
    </contour>
    <contour>
      <point x="525" y="360" type="curve" smooth="yes"/>
      <point x="525" y="203.333"/>
      <point x="452" y="125"/>
      <point x="306" y="125" type="curve" smooth="yes"/>
      <point x="241" y="125" type="line"/>
      <point x="241" y="590" type="line"/>
      <point x="322" y="590" type="line" smooth="yes"/>
      <point x="454" y="590"/>
      <point x="525" y="517.333"/>
    </contour>
  </outline>
</glyph>
<glyph name="E" format="2">
  <advance width="560"/>
  <unicode hex="0045"/>
  <anchor x="303" y="0" name="bottom"/>
  <anchor x="308" y="714" name="top"/>
  <anchor x="539" y="714" name="topright"/>
  <outline>
    <contour>
      <point x="501" y="0" type="line"/>
      <point x="501" y="125" type="line"/>
      <point x="241" y="125" type="line"/>
      <point x="241" y="309" type="line"/>
      <point x="483" y="309" type="line"/>
      <point x="483" y="433" type="line"/>
      <point x="241" y="433" type="line"/>
      <point x="241" y="590" type="line"/>
      <point x="501" y="590" type="line"/>
      <point x="501" y="714" type="line"/>
      <point x="90" y="714" type="line"/>
      <point x="90" y="0" type="line"/>
    </contour>
  </outline>
</glyph>
<glyph name="F" format="2">
  <advance width="549"/>
  <unicode hex="0046"/>
  <anchor x="273" y="0" name="bottom"/>
  <anchor x="311" y="714" name="top"/>
  <anchor x="505" y="714" name="topright"/>
  <outline>
    <contour>
      <point x="239" y="0" type="line"/>
      <point x="239" y="282" type="line"/>
      <point x="481" y="282" type="line"/>
      <point x="481" y="406" type="line"/>
      <point x="239" y="406" type="line"/>
      <point x="239" y="590" type="line"/>
      <point x="499" y="590" type="line"/>
      <point x="499" y="714" type="line"/>
      <point x="90" y="714" type="line"/>
      <point x="90" y="0" type="line"/>
    </contour>
  </outline>
</glyph>
<glyph name="G" format="2">
  <advance width="724"/>
  <unicode hex="0047"/>
  <anchor x="429" y="0" name="bottom"/>
  <anchor x="432" y="714" name="top"/>
  <anchor x="735" y="714" name="topright"/>
  <outline>
    <contour>
      <point x="361" y="401" type="line"/>
      <point x="361" y="275" type="line"/>
      <point x="496" y="275" type="line"/>
      <point x="496" y="126" type="line"/>
      <point x="469.333" y="120.667"/>
      <point x="442.667" y="116"/>
      <point x="400" y="116" type="curve" smooth="yes"/>
      <point x="269" y="116"/>
      <point x="214" y="213"/>
      <point x="214" y="355" type="curve" smooth="yes"/>
      <point x="214" y="493"/>
      <point x="290" y="598"/>
      <point x="430" y="598" type="curve" smooth="yes"/>
      <point x="491.333" y="598"/>
      <point x="549" y="581.667"/>
      <point x="593" y="559" type="curve"/>
      <point x="643" y="680" type="line"/>
      <point x="583" y="706.667"/>
      <point x="507" y="724"/>
      <point x="431" y="724" type="curve" smooth="yes"/>
      <point x="198" y="724"/>
      <point x="58" y="589"/>
      <point x="58" y="358" type="curve" smooth="yes"/>
      <point x="58" y="118"/>
      <point x="176.667" y="-10"/>
      <point x="390" y="-10" type="curve" smooth="yes"/>
      <point x="491.333" y="-10"/>
      <point x="569.333" y="5.667"/>
      <point x="644" y="31" type="curve"/>
      <point x="644" y="401" type="line"/>
    </contour>
  </outline>
</glyph>
<glyph name="H" format="2">
  <advance width="765"/>
  <unicode hex="0048"/>
  <anchor x="381" y="0" name="bottom"/>
  <anchor x="384" y="357" name="center"/>
  <anchor x="384" y="714" name="top"/>
  <anchor x="734" y="714" name="topright"/>
  <outline>
    <contour>
      <point x="675" y="0" type="line"/>
      <point x="675" y="714" type="line"/>
      <point x="524" y="714" type="line"/>
      <point x="524" y="434" type="line"/>
      <point x="241" y="434" type="line"/>
      <point x="241" y="714" type="line"/>
      <point x="90" y="714" type="line"/>
      <point x="90" y="0" type="line"/>
      <point x="241" y="0" type="line"/>
      <point x="241" y="308" type="line"/>
      <point x="524" y="308" type="line"/>
      <point x="524" y="0" type="line"/>
    </contour>
  </outline>
</glyph>
<glyph name="I" format="2">
  <advance width="389"/>
  <unicode hex="0049"/>
  <anchor x="192" y="0" name="bottom"/>
  <anchor x="192" y="714" name="top"/>
  <anchor x="341" y="714" name="topright"/>
  <outline>
    <contour>
      <point x="357" y="0" type="line"/>
      <point x="357" y="86" type="line"/>
      <point x="270" y="126" type="line"/>
      <point x="270" y="588" type="line"/>
      <point x="357" y="628" type="line"/>
      <point x="357" y="714" type="line"/>
      <point x="32" y="714" type="line"/>
      <point x="32" y="628" type="line"/>
      <point x="119" y="588" type="line"/>
      <point x="119" y="126" type="line"/>
      <point x="32" y="86" type="line"/>
      <point x="32" y="0" type="line"/>
    </contour>
  </outline>
</glyph>
<glyph name="K" format="2">
  <advance width="664"/>
  <unicode hex="004B"/>
  <anchor x="353" y="0" name="bottom"/>
  <anchor x="363" y="714" name="top"/>
  <anchor x="622" y="714" name="topright"/>
  <outline>
    <contour>
      <point x="664" y="0" type="line"/>
      <point x="413" y="398" type="line"/>
      <point x="662" y="714" type="line"/>
      <point x="494" y="714" type="line"/>
      <point x="301" y="471" type="line"/>
      <point x="281" y="443"/>
      <point x="261" y="415"/>
      <point x="241" y="387" type="curve"/>
      <point x="241" y="714" type="line"/>
      <point x="90" y="714" type="line"/>
      <point x="90" y="0" type="line"/>
      <point x="241" y="0" type="line"/>
      <point x="241" y="255" type="line"/>
      <point x="305" y="301" type="line"/>
      <point x="492" y="0" type="line"/>
    </contour>
  </outline>
</glyph>
<glyph name="L" format="2">
  <advance width="565"/>
  <unicode hex="004C"/>
  <anchor x="323" y="0" name="bottom"/>
  <anchor x="285" y="357" name="center"/>
  <anchor x="163" y="714" name="top"/>
  <anchor x="387" y="714" name="topright"/>
  <outline>
    <contour>
      <point x="90" y="0" type="line"/>
      <point x="531" y="0" type="line"/>
      <point x="531" y="125" type="line"/>
      <point x="241" y="125" type="line"/>
      <point x="241" y="714" type="line"/>
      <point x="90" y="714" type="line"/>
    </contour>
  </outline>
</glyph>
<glyph name="M" format="2">
  <advance width="943"/>
  <unicode hex="004D"/>
  <anchor x="461" y="0" name="bottom"/>
  <anchor x="467" y="714" name="top"/>
  <anchor x="900" y="714" name="topright"/>
  <outline>
    <contour>
      <point x="392" y="0" type="line"/>
      <point x="531" y="0" type="line"/>
      <point x="715" y="559" type="line"/>
      <point x="719" y="559" type="line"/>
      <point x="715" y="504"/>
      <point x="712" y="419"/>
      <point x="712" y="338" type="curve" smooth="yes"/>
      <point x="712" y="0" type="line"/>
      <point x="853" y="0" type="line"/>
      <point x="853" y="714" type="line"/>
      <point x="647" y="714" type="line"/>
      <point x="468" y="168" type="line"/>
      <point x="465" y="168" type="line"/>
      <point x="296" y="714" type="line"/>
      <point x="90" y="714" type="line"/>
      <point x="90" y="0" type="line"/>
      <point x="225" y="0" type="line"/>
      <point x="225" y="332" type="line" smooth="yes"/>
      <point x="225" y="397"/>
      <point x="221" y="483"/>
      <point x="216" y="560" type="curve"/>
      <point x="220" y="560" type="line"/>
    </contour>
  </outline>
</glyph>
<glyph name="N" format="2">
  <advance width="813"/>
  <unicode hex="004E"/>
  <anchor x="403" y="0" name="bottom"/>
  <anchor x="403" y="714" name="top"/>
  <anchor x="763" y="714" name="topright"/>
  <outline>
    <contour>
      <point x="723" y="0" type="line"/>
      <point x="723" y="714" type="line"/>
      <point x="587" y="714" type="line"/>
      <point x="587" y="376" type="line" smooth="yes"/>
      <point x="587" y="313"/>
      <point x="591" y="222"/>
      <point x="594" y="179" type="curve"/>
      <point x="591" y="179" type="line"/>
      <point x="281" y="714" type="line"/>
      <point x="90" y="714" type="line"/>
      <point x="90" y="0" type="line"/>
      <point x="225" y="0" type="line"/>
      <point x="225" y="336" type="line" smooth="yes"/>
      <point x="225" y="401"/>
      <point x="219" y="495"/>
      <point x="216" y="540" type="curve"/>
      <point x="220" y="540" type="line"/>
      <point x="531" y="0" type="line"/>
    </contour>
  </outline>
</glyph>
<glyph name="O" format="2">
  <advance width="796"/>
  <unicode hex="004F"/>
  <anchor x="399" y="0" name="bottom"/>
  <anchor x="398" y="357" name="center"/>
  <anchor x="398" y="714" name="top"/>
  <anchor x="768" y="714" name="topright"/>
  <outline>
    <contour>
      <point x="738" y="358" type="curve" smooth="yes"/>
      <point x="738" y="584"/>
      <point x="628" y="725"/>
      <point x="399" y="725" type="curve" smooth="yes"/>
      <point x="173" y="725"/>
      <point x="58" y="589"/>
      <point x="58" y="359" type="curve" smooth="yes"/>
      <point x="58" y="132"/>
      <point x="169" y="-10"/>
      <point x="398" y="-10" type="curve" smooth="yes"/>
      <point x="623" y="-10"/>
      <point x="738" y="128"/>
    </contour>
    <contour>
      <point x="217" y="358" type="curve" smooth="yes"/>
      <point x="217" y="507.333"/>
      <point x="271" y="599"/>
      <point x="399" y="599" type="curve" smooth="yes"/>
      <point x="527" y="599"/>
      <point x="579" y="507.333"/>
      <point x="579" y="358" type="curve" smooth="yes"/>
      <point x="579" y="208.667"/>
      <point x="527.333" y="117"/>
      <point x="398" y="117" type="curve" smooth="yes"/>
      <point x="271.333" y="117"/>
      <point x="217" y="208.667"/>
    </contour>
  </outline>
</glyph>
<glyph name="P" format="2">
  <advance width="628"/>
  <unicode hex="0050"/>
  <anchor x="306" y="0" name="bottom"/>
  <anchor x="320" y="714" name="top"/>
  <anchor x="588" y="714" name="topright"/>
  <outline>
    <contour>
      <point x="318" y="714" type="curve" smooth="yes"/>
      <point x="90" y="714" type="line"/>
      <point x="90" y="0" type="line"/>
      <point x="241" y="0" type="line"/>
      <point x="241" y="254" type="line"/>
      <point x="306" y="254" type="line" smooth="yes"/>
      <point x="478" y="254"/>
      <point x="583" y="332"/>
      <point x="583" y="491" type="curve" smooth="yes"/>
      <point x="583" y="629.667"/>
      <point x="502" y="714"/>
    </contour>
    <contour>
      <point x="310" y="590" type="line" smooth="yes"/>
      <point x="390" y="590"/>
      <point x="430" y="555.333"/>
      <point x="430" y="486" type="curve" smooth="yes"/>
      <point x="430" y="410"/>
      <point x="376.333" y="378"/>
      <point x="291" y="378" type="curve" smooth="yes"/>
      <point x="241" y="378" type="line"/>
      <point x="241" y="590" type="line"/>
    </contour>
  </outline>
</glyph>
<glyph name="Q" format="2">
  <advance width="796"/>
  <unicode hex="0051"/>
  <anchor x="398" y="-170" name="bottom"/>
  <anchor x="398" y="714" name="top"/>
  <anchor x="768" y="714" name="topright"/>
  <outline>
    <contour>
      <point x="738" y="358" type="curve" smooth="yes"/>
      <point x="738" y="584"/>
      <point x="628" y="725"/>
      <point x="399" y="725" type="curve" smooth="yes"/>
      <point x="173" y="725"/>
      <point x="58" y="589"/>
      <point x="58" y="359" type="curve" smooth="yes"/>
      <point x="58" y="132"/>
      <point x="169" y="-10"/>
      <point x="398" y="-10" type="curve" smooth="yes"/>
      <point x="402" y="-10"/>
      <point x="405" y="-10"/>
      <point x="409" y="-10" type="curve"/>
      <point x="540" y="-170" type="line"/>
      <point x="734" y="-170" type="line"/>
      <point x="562" y="22" type="line"/>
      <point x="682" y="75.333"/>
      <point x="738" y="198"/>
    </contour>
    <contour>
      <point x="217" y="358" type="curve" smooth="yes"/>
      <point x="217" y="507.333"/>
      <point x="271" y="599"/>
      <point x="399" y="599" type="curve" smooth="yes"/>
      <point x="527" y="599"/>
      <point x="579" y="507.333"/>
      <point x="579" y="358" type="curve" smooth="yes"/>
      <point x="579" y="209"/>
      <point x="527.333" y="117"/>
      <point x="398" y="117" type="curve" smooth="yes"/>
      <point x="271.333" y="117"/>
      <point x="217" y="208.667"/>
    </contour>
  </outline>
</glyph>
<glyph name="R" format="2">
  <advance width="660"/>
  <unicode hex="0052"/>
  <anchor x="341" y="0" name="bottom"/>
  <anchor x="324" y="714" name="top"/>
  <anchor x="615" y="714" name="topright"/>
  <outline>
    <contour>
      <point x="298" y="714" type="curve" smooth="yes"/>
      <point x="90" y="714" type="line"/>
      <point x="90" y="0" type="line"/>
      <point x="241" y="0" type="line"/>
      <point x="241" y="274" type="line"/>
      <point x="322" y="274" type="line"/>
      <point x="492" y="0" type="line"/>
      <point x="660" y="0" type="line"/>
      <point x="450" y="311" type="line"/>
      <point x="529" y="347"/>
      <point x="583" y="408"/>
      <point x="583" y="500" type="curve" smooth="yes"/>
      <point x="583" y="644"/>
      <point x="492.667" y="714"/>
    </contour>
    <contour>
      <point x="287" y="590" type="line" smooth="yes"/>
      <point x="384.333" y="590"/>
      <point x="430" y="564"/>
      <point x="430" y="496" type="curve" smooth="yes"/>
      <point x="430" y="430.667"/>
      <point x="390" y="397"/>
      <point x="290" y="397" type="curve" smooth="yes"/>
      <point x="241" y="397" type="line"/>
      <point x="241" y="590" type="line"/>
    </contour>
  </outline>
</glyph>
<glyph name="S" format="2">
  <advance width="551"/>
  <unicode hex="0053"/>
  <anchor x="272" y="0" name="bottom"/>
  <anchor x="300" y="714" name="top"/>
  <anchor x="544" y="714" name="topright"/>
  <outline>
    <contour>
      <point x="511" y="198" type="curve" smooth="yes"/>
      <point x="511" y="304"/>
      <point x="454" y="357"/>
      <point x="337" y="412" type="curve" smooth="yes"/>
      <point x="247.667" y="454.667"/>
      <point x="202" y="475.333"/>
      <point x="202" y="526" type="curve" smooth="yes"/>
      <point x="202" y="568.667"/>
      <point x="233.667" y="598"/>
      <point x="291" y="598" type="curve" smooth="yes"/>
      <point x="345.667" y="598"/>
      <point x="393.667" y="582.667"/>
      <point x="459" y="556" type="curve"/>
      <point x="508" y="674" type="line"/>
      <point x="433.333" y="706"/>
      <point x="370.667" y="724"/>
      <point x="296" y="724" type="curve" smooth="yes"/>
      <point x="146.667" y="724"/>
      <point x="54" y="649"/>
      <point x="54" y="521" type="curve" smooth="yes"/>
      <point x="54" y="399.496"/>
      <point x="142.695" y="347.026"/>
      <point x="224" y="308" type="curve" smooth="yes"/>
      <point x="299" y="272"/>
      <point x="363" y="245"/>
      <point x="363" y="191" type="curve" smooth="yes"/>
      <point x="363" y="147"/>
      <point x="334.667" y="115"/>
      <point x="260" y="115" type="curve" smooth="yes"/>
      <point x="188" y="115"/>
      <point x="114" y="144.667"/>
      <point x="46" y="174" type="curve"/>
      <point x="46" y="33" type="line"/>
      <point x="105.333" y="4.333"/>
      <point x="172.667" y="-10"/>
      <point x="248" y="-10" type="curve" smooth="yes"/>
      <point x="416" y="-10"/>
      <point x="511" y="71.333"/>
    </contour>
  </outline>
</glyph>
<glyph name="T" format="2">
  <advance width="579"/>
  <unicode hex="0054"/>
  <anchor x="288" y="0" name="bottom"/>
  <anchor x="288" y="357" name="center"/>
  <anchor x="288" y="714" name="top"/>
  <anchor x="546" y="714" name="topright"/>
  <outline>
    <contour>
      <point x="365" y="0" type="line"/>
      <point x="365" y="588" type="line"/>
      <point x="559" y="588" type="line"/>
      <point x="559" y="714" type="line"/>
      <point x="20" y="714" type="line"/>
      <point x="20" y="588" type="line"/>
      <point x="214" y="588" type="line"/>
      <point x="214" y="0" type="line"/>
    </contour>
  </outline>
</glyph>
<glyph name="U" format="2">
  <advance width="756"/>
  <unicode hex="0055"/>
  <anchor x="379" y="0" name="bottom"/>
  <anchor x="381" y="714" name="top"/>
  <anchor x="726" y="714" name="topright"/>
  <outline>
    <contour>
      <point x="671" y="714" type="line"/>
      <point x="520" y="714" type="line"/>
      <point x="520" y="278" type="line" smooth="yes"/>
      <point x="520" y="167.333"/>
      <point x="477.667" y="117"/>
      <point x="379" y="117" type="curve" smooth="yes"/>
      <point x="284.333" y="117"/>
      <point x="236" y="158.333"/>
      <point x="236" y="277" type="curve" smooth="yes"/>
      <point x="236" y="714" type="line"/>
      <point x="85" y="714" type="line"/>
      <point x="85" y="254" type="line" smooth="yes"/>
      <point x="85" y="95.333"/>
      <point x="185.667" y="-10"/>
      <point x="375" y="-10" type="curve" smooth="yes"/>
      <point x="553" y="-10"/>
      <point x="671" y="85"/>
      <point x="671" y="252" type="curve" smooth="yes"/>
    </contour>
  </outline>
</glyph>
<glyph name="V" format="2">
  <advance width="650"/>
  <unicode hex="0056"/>
  <anchor x="319" y="0" name="bottom"/>
  <anchor x="323" y="714" name="top"/>
  <anchor x="600" y="714" name="topright"/>
  <outline>
    <contour>
      <point x="650" y="714" type="line"/>
      <point x="497" y="714" type="line"/>
      <point x="362" y="289" type="line" smooth="yes"/>
      <point x="352.909" y="263.999"/>
      <point x="330.187" y="170.04"/>
      <point x="325" y="132" type="curve"/>
      <point x="319.631" y="171.37"/>
      <point x="294.299" y="262.235"/>
      <point x="287" y="289" type="curve" smooth="yes"/>
      <point x="153" y="714" type="line"/>
      <point x="0" y="714" type="line"/>
      <point x="242" y="0" type="line"/>
      <point x="407" y="0" type="line"/>
    </contour>
  </outline>
</glyph>
<glyph name="W" format="2">
  <advance width="967"/>
  <unicode hex="0057"/>
  <anchor x="476" y="0" name="bottom"/>
  <anchor x="483" y="714" name="top"/>
  <anchor x="928" y="714" name="topright"/>
  <outline>
    <contour>
      <point x="967" y="714" type="line"/>
      <point x="818" y="714" type="line"/>
      <point x="727" y="324" type="line" smooth="yes"/>
      <point x="715.918" y="270.808"/>
      <point x="697.373" y="181.777"/>
      <point x="692" y="137" type="curve"/>
      <point x="686.624" y="180.011"/>
      <point x="668.541" y="279.652"/>
      <point x="659" y="314" type="curve" smooth="yes"/>
      <point x="555" y="714" type="line"/>
      <point x="412" y="714" type="line"/>
      <point x="308" y="314" type="line" smooth="yes"/>
      <point x="298.35" y="279.259"/>
      <point x="280.205" y="180.372"/>
      <point x="275" y="137" type="curve"/>
      <point x="269.703" y="179.376"/>
      <point x="250.783" y="282.664"/>
      <point x="240" y="324" type="curve" smooth="yes"/>
      <point x="149" y="714" type="line"/>
      <point x="0" y="714" type="line"/>
      <point x="182" y="0" type="line"/>
      <point x="354" y="0" type="line"/>
      <point x="450" y="374" type="line" smooth="yes"/>
      <point x="463" y="425"/>
      <point x="480.46" y="506.439"/>
      <point x="483" y="542" type="curve"/>
      <point x="486" y="504"/>
      <point x="503" y="425"/>
      <point x="516" y="375" type="curve" smooth="yes"/>
      <point x="613" y="0" type="line"/>
      <point x="785" y="0" type="line"/>
    </contour>
  </outline>
</glyph>
<glyph name="X" format="2">
  <advance width="667"/>
  <unicode hex="0058"/>
  <anchor x="338" y="0" name="bottom"/>
  <anchor x="336" y="714" name="top"/>
  <anchor x="610" y="714" name="topright"/>
  <outline>
    <contour>
      <point x="667" y="0" type="line"/>
      <point x="426" y="360" type="line"/>
      <point x="650" y="714" type="line"/>
      <point x="487" y="714" type="line"/>
      <point x="336" y="457" type="line"/>
      <point x="182" y="714" type="line"/>
      <point x="15" y="714" type="line"/>
      <point x="237" y="368" type="line"/>
      <point x="0" y="0" type="line"/>
      <point x="162" y="0" type="line"/>
      <point x="328" y="270" type="line"/>
      <point x="494" y="0" type="line"/>
    </contour>
  </outline>
</glyph>
<glyph name="Y" format="2">
  <advance width="624"/>
  <unicode hex="0059"/>
  <anchor x="313" y="0" name="bottom"/>
  <anchor x="313" y="714" name="top"/>
  <anchor x="576" y="714" name="topright"/>
  <outline>
    <contour>
      <point x="312" y="420" type="line"/>
      <point x="164" y="714" type="line"/>
      <point x="0" y="714" type="line"/>
      <point x="237" y="273" type="line"/>
      <point x="237" y="0" type="line"/>
      <point x="387" y="0" type="line"/>
      <point x="387" y="278" type="line"/>
      <point x="624" y="714" type="line"/>
      <point x="461" y="714" type="line"/>
    </contour>
  </outline>
</glyph>
<glyph name="Z" format="2">
  <advance width="579"/>
  <unicode hex="005A"/>
  <anchor x="303" y="0" name="bottom"/>
  <anchor x="296" y="714" name="top"/>
  <anchor x="558" y="714" name="topright"/>
  <outline>
    <contour>
      <point x="555" y="0" type="line"/>
      <point x="555" y="125" type="line"/>
      <point x="204" y="125" type="line"/>
      <point x="546" y="616" type="line"/>
      <point x="546" y="714" type="line"/>
      <point x="33" y="714" type="line"/>
      <point x="33" y="589" type="line"/>
      <point x="366" y="589" type="line"/>
      <point x="24" y="98" type="line"/>
      <point x="24" y="0" type="line"/>
    </contour>
  </outline>
</glyph>
<glyph name="bracketleft" format="2">
  <advance width="331"/>
  <unicode hex="005B"/>
  <outline>
    <contour>
      <point x="306" y="-158" type="line"/>
      <point x="306" y="-55" type="line"/>
      <point x="197" y="-55" type="line"/>
      <point x="197" y="611" type="line"/>
      <point x="306" y="611" type="line"/>
      <point x="306" y="714" type="line"/>
      <point x="70" y="714" type="line"/>
      <point x="70" y="-158" type="line"/>
    </contour>
  </outline>
</glyph>
<glyph name="backslash" format="2">
  <advance width="413"/>
  <unicode hex="005C"/>
  <outline>
    <contour>
      <point x="141" y="714" type="line"/>
      <point x="6" y="714" type="line"/>
      <point x="272" y="0" type="line"/>
      <point x="407" y="0" type="line"/>
    </contour>
  </outline>
</glyph>
<glyph name="bracketright" format="2">
  <advance width="331"/>
  <unicode hex="005D"/>
  <outline>
    <contour>
      <point x="25" y="-55" type="line"/>
      <point x="25" y="-158" type="line"/>
      <point x="261" y="-158" type="line"/>
      <point x="261" y="714" type="line"/>
      <point x="25" y="714" type="line"/>
      <point x="25" y="611" type="line"/>
      <point x="134" y="611" type="line"/>
      <point x="134" y="-55" type="line"/>
    </contour>
  </outline>
</glyph>
<glyph name="underscore" format="2">
  <advance width="411"/>
  <unicode hex="005F"/>
  <outline>
    <contour>
      <point x="413" y="-158" type="line"/>
      <point x="413" y="-90" type="line"/>
      <point x="-2" y="-90" type="line"/>
      <point x="-2" y="-158" type="line"/>
    </contour>
  </outline>
</glyph>
<glyph name="grave" format="2">
  <advance width="362"/>
  <unicode hex="0060"/>
  <outline>
    <contour>
      <point x="207" y="766" type="curve"/>
      <point x="40" y="766" type="line"/>
      <point x="40" y="756" type="line"/>
      <point x="77.477" y="718.523"/>
      <point x="174.536" y="639.159"/>
      <point x="223" y="606" type="curve"/>
      <point x="322" y="606" type="line"/>
      <point x="322" y="619" type="line"/>
      <point x="283.38" y="664.861"/>
      <point x="237.103" y="721.849"/>
    </contour>
  </outline>
</glyph>
<glyph name="a" format="2">
  <advance width="600"/>
  <unicode hex="0061"/>
  <anchor x="281" y="0" name="bottom"/>
  <anchor x="281" y="536" name="top"/>
  <anchor x="511" y="536" name="topright"/>
  <outline>
    <contour>
      <point x="302" y="557" type="curve" smooth="yes"/>
      <point x="224.667" y="557"/>
      <point x="150.333" y="537.333"/>
      <point x="93" y="508" type="curve"/>
      <point x="142" y="407" type="line"/>
      <point x="192.667" y="429.667"/>
      <point x="242.667" y="447"/>
      <point x="296" y="447" type="curve" smooth="yes"/>
      <point x="349.333" y="447"/>
      <point x="381" y="421.333"/>
      <point x="381" y="364" type="curve" smooth="yes"/>
      <point x="381" y="340" type="line"/>
      <point x="286" y="337" type="line" smooth="yes"/>
      <point x="123.333" y="330.333"/>
      <point x="42" y="279"/>
      <point x="42" y="163" type="curve" smooth="yes"/>
      <point x="42" y="44.333"/>
      <point x="113.667" y="-10"/>
      <point x="211" y="-10" type="curve" smooth="yes"/>
      <point x="301.667" y="-10"/>
      <point x="345.333" y="15.333"/>
      <point x="392" y="74" type="curve"/>
      <point x="396" y="74" type="line"/>
      <point x="425" y="0" type="line"/>
      <point x="529" y="0" type="line"/>
      <point x="529" y="364" type="line" smooth="yes"/>
      <point x="529" y="494.667"/>
      <point x="448.667" y="557"/>
    </contour>
    <contour>
      <point x="381" y="253" type="line"/>
      <point x="381" y="208" type="line" smooth="yes"/>
      <point x="381" y="138.667"/>
      <point x="331" y="99"/>
      <point x="267" y="99" type="curve" smooth="yes"/>
      <point x="224.333" y="99"/>
      <point x="195" y="116.667"/>
      <point x="195" y="162" type="curve" smooth="yes"/>
      <point x="195" y="214"/>
      <point x="227" y="248.333"/>
      <point x="323" y="251" type="curve" smooth="yes"/>
    </contour>
  </outline>
</glyph>
<glyph name="b" format="2">
  <advance width="633"/>
  <unicode hex="0062"/>
  <anchor x="315" y="0" name="bottom"/>
  <anchor x="331" y="760" name="top"/>
  <anchor x="508" y="760" name="topright"/>
  <outline>
    <contour>
      <point x="227" y="760" type="line"/>
      <point x="78" y="760" type="line"/>
      <point x="78" y="0" type="line"/>
      <point x="192" y="0" type="line"/>
      <point x="217" y="60" type="line"/>
      <point x="227" y="60" type="line"/>
      <point x="256.333" y="24"/>
      <point x="298" y="-10"/>
      <point x="378" y="-10" type="curve" smooth="yes"/>
      <point x="503.333" y="-10"/>
      <point x="588" y="87.333"/>
      <point x="588" y="274" type="curve" smooth="yes"/>
      <point x="588" y="459.333"/>
      <point x="504.667" y="556"/>
      <point x="382" y="556" type="curve" smooth="yes"/>
      <point x="303.333" y="556"/>
      <point x="256.333" y="520.333"/>
      <point x="227" y="475" type="curve"/>
      <point x="221" y="475" type="line"/>
      <point x="223.667" y="497.667"/>
      <point x="227" y="541.667"/>
      <point x="227" y="583" type="curve" smooth="yes"/>
    </contour>
    <contour>
      <point x="334" y="437" type="curve" smooth="yes"/>
      <point x="396.667" y="437"/>
      <point x="436" y="382.667"/>
      <point x="436" y="276" type="curve" smooth="yes"/>
      <point x="436" y="169.333"/>
      <point x="397.333" y="111"/>
      <point x="336" y="111" type="curve" smooth="yes"/>
      <point x="253.333" y="111"/>
      <point x="227" y="169.667"/>
      <point x="227" y="275" type="curve" smooth="yes"/>
      <point x="227" y="291" type="line" smooth="yes"/>
      <point x="228.333" y="388.333"/>
      <point x="256.667" y="437"/>
    </contour>
  </outline>
</glyph>
<glyph name="e" format="2">
  <advance width="591"/>
  <unicode hex="0065"/>
  <anchor x="291" y="0" name="bottom"/>
  <anchor x="275" y="536" name="top"/>
  <anchor x="534" y="536" name="topright"/>
  <outline>
    <contour>
      <point x="303" y="556" type="curve" smooth="yes"/>
      <point x="137" y="556"/>
      <point x="45" y="447"/>
      <point x="45" y="269" type="curve" smooth="yes"/>
      <point x="45" y="91"/>
      <point x="150" y="-10"/>
      <point x="325" y="-10" type="curve" smooth="yes"/>
      <point x="409" y="-10"/>
      <point x="462.333" y="2.333"/>
      <point x="517" y="29" type="curve"/>
      <point x="517" y="144" type="line"/>
      <point x="455.667" y="114.667"/>
      <point x="401.333" y="101"/>
      <point x="332" y="101" type="curve" smooth="yes"/>
      <point x="248" y="101"/>
      <point x="198.667" y="152"/>
      <point x="196" y="236" type="curve"/>
      <point x="548" y="236" type="line"/>
      <point x="548" y="308" type="line" smooth="yes"/>
      <point x="548" y="466.667"/>
      <point x="453.667" y="556"/>
    </contour>
    <contour>
      <point x="304" y="450" type="curve" smooth="yes"/>
      <point x="373.333" y="450"/>
      <point x="406.667" y="400.333"/>
      <point x="408" y="335" type="curve"/>
      <point x="199" y="335" type="line"/>
      <point x="205.667" y="413.667"/>
      <point x="245.333" y="450"/>
    </contour>
  </outline>
</glyph>
<glyph name="f" format="2">
  <advance width="387"/>
  <unicode hex="0066"/>
  <anchor x="158" y="0" name="bottom"/>
  <anchor x="257" y="765" name="top"/>
  <anchor x="385" y="765" name="topright"/>
  <outline>
    <contour>
      <point x="380" y="434" type="line"/>
      <point x="380" y="546" type="line"/>
      <point x="251" y="546" type="line"/>
      <point x="251" y="580" type="line" smooth="yes"/>
      <point x="251" y="618.667"/>
      <point x="269.667" y="647"/>
      <point x="311" y="647" type="curve" smooth="yes"/>
      <point x="344.333" y="647"/>
      <point x="371.333" y="639.667"/>
      <point x="394" y="633" type="curve"/>
      <point x="432" y="742" type="line"/>
      <point x="402.667" y="754"/>
      <point x="352.333" y="765"/>
      <point x="295" y="765" type="curve" smooth="yes"/>
      <point x="162" y="765"/>
      <point x="102" y="713"/>
      <point x="102" y="586" type="curve" smooth="yes"/>
      <point x="102" y="546" type="line"/>
      <point x="20" y="506" type="line"/>
      <point x="20" y="434" type="line"/>
      <point x="102" y="434" type="line"/>
      <point x="102" y="0" type="line"/>
      <point x="251" y="0" type="line"/>
      <point x="251" y="434" type="line"/>
    </contour>
  </outline>
</glyph>
<glyph name="g" format="2">
  <advance width="633"/>
  <unicode hex="0067"/>
  <anchor x="288" y="-240" name="bottom"/>
  <anchor x="287" y="536" name="top"/>
  <anchor x="545" y="536" name="topright"/>
  <outline>
    <contour>
      <point x="255" y="556" type="curve" smooth="yes"/>
      <point x="124.333" y="556"/>
      <point x="45" y="450.667"/>
      <point x="45" y="272" type="curve" smooth="yes"/>
      <point x="45" y="94.667"/>
      <point x="121.667" y="-10"/>
      <point x="251" y="-10" type="curve" smooth="yes"/>
      <point x="316.333" y="-10"/>
      <point x="368.667" y="13.667"/>
      <point x="406" y="71" type="curve"/>
      <point x="410" y="71" type="line"/>
      <point x="407.333" y="52.333"/>
      <point x="406" y="25.333"/>
      <point x="406" y="4" type="curve" smooth="yes"/>
      <point x="406" y="-7" type="line" smooth="yes"/>
      <point x="406" y="-89.667"/>
      <point x="367.667" y="-131"/>
      <point x="291" y="-131" type="curve" smooth="yes"/>
      <point x="215.667" y="-131"/>
      <point x="144.667" y="-117"/>
      <point x="78" y="-89" type="curve"/>
      <point x="78" y="-208" type="line"/>
      <point x="140.667" y="-232"/>
      <point x="204.667" y="-240"/>
      <point x="282" y="-240" type="curve" smooth="yes"/>
      <point x="462" y="-240"/>
      <point x="555" y="-157"/>
      <point x="555" y="-1" type="curve" smooth="yes"/>
      <point x="555" y="546" type="line"/>
      <point x="429" y="546" type="line"/>
      <point x="417" y="476" type="line"/>
      <point x="413" y="476" type="line"/>
      <point x="375" y="529.333"/>
      <point x="322.333" y="556"/>
    </contour>
    <contour>
      <point x="302" y="435" type="curve" smooth="yes"/>
      <point x="382" y="435"/>
      <point x="416" y="388.333"/>
      <point x="416" y="271" type="curve" smooth="yes"/>
      <point x="416" y="253" type="line" smooth="yes"/>
      <point x="416" y="145"/>
      <point x="380" y="107"/>
      <point x="304" y="107" type="curve" smooth="yes"/>
      <point x="232.667" y="107"/>
      <point x="197" y="161.333"/>
      <point x="197" y="270" type="curve" smooth="yes"/>
      <point x="197" y="380"/>
      <point x="232" y="435"/>
    </contour>
  </outline>
</glyph>
<glyph name="h" format="2">
  <advance width="657"/>
  <unicode hex="0068"/>
  <anchor x="303" y="0" name="bottom"/>
  <anchor x="302" y="268" name="center"/>
  <anchor x="123" y="760" name="top"/>
  <anchor x="528" y="760" name="topright"/>
  <outline>
    <contour>
      <point x="227" y="760" type="line"/>
      <point x="78" y="760" type="line"/>
      <point x="78" y="0" type="line"/>
      <point x="227" y="0" type="line"/>
      <point x="227" y="257" type="line" smooth="yes"/>
      <point x="227" y="373"/>
      <point x="255.667" y="437"/>
      <point x="345" y="437" type="curve" smooth="yes"/>
      <point x="403.667" y="437"/>
      <point x="433" y="397.667"/>
      <point x="433" y="319" type="curve" smooth="yes"/>
      <point x="433" y="0" type="line"/>
      <point x="582" y="0" type="line"/>
      <point x="582" y="356" type="line" smooth="yes"/>
      <point x="582" y="496"/>
      <point x="503.333" y="556"/>
      <point x="386" y="556" type="curve" smooth="yes"/>
      <point x="319.333" y="556"/>
      <point x="262.667" y="532"/>
      <point x="228" y="476" type="curve"/>
      <point x="220" y="476" type="line"/>
      <point x="222.667" y="496"/>
      <point x="227" y="550.333"/>
      <point x="227" y="605" type="curve" smooth="yes"/>
    </contour>
  </outline>
</glyph>
<glyph name="i" format="2">
  <advance width="305"/>
  <unicode hex="0069"/>
  <anchor x="151" y="0" name="bottom"/>
  <anchor x="153" y="737" name="top"/>
  <anchor x="262" y="737" name="topright"/>
  <outline>
    <contour>
      <point x="227" y="546" type="line"/>
      <point x="78" y="546" type="line"/>
      <point x="78" y="0" type="line"/>
      <point x="227" y="0" type="line"/>
    </contour>
    <contour>
      <point x="153" y="760" type="curve" smooth="yes"/>
      <point x="107.667" y="760"/>
      <point x="72" y="743"/>
      <point x="72" y="687" type="curve" smooth="yes"/>
      <point x="72" y="632.333"/>
      <point x="107.667" y="614"/>
      <point x="153" y="614" type="curve" smooth="yes"/>
      <point x="197" y="614"/>
      <point x="234" y="632.333"/>
      <point x="234" y="687" type="curve" smooth="yes"/>
      <point x="234" y="743"/>
      <point x="197" y="760"/>
    </contour>
  </outline>
</glyph>
<glyph name="j" format="2">
  <advance width="305"/>
  <unicode hex="006A"/>
  <anchor x="48" y="-240" name="bottom"/>
  <anchor x="155" y="737" name="top"/>
  <anchor x="264" y="737" name="topright"/>
  <outline>
    <contour>
      <point x="34" y="-240" type="curve" smooth="yes"/>
      <point x="157" y="-240"/>
      <point x="227" y="-176"/>
      <point x="227" y="-59" type="curve" smooth="yes"/>
      <point x="227" y="546" type="line"/>
      <point x="78" y="546" type="line"/>
      <point x="78" y="-37" type="line" smooth="yes"/>
      <point x="78" y="-102.333"/>
      <point x="46" y="-120"/>
      <point x="6" y="-120" type="curve" smooth="yes"/>
      <point x="-20.667" y="-120"/>
      <point x="-40" y="-117.667"/>
      <point x="-64" y="-111" type="curve"/>
      <point x="-64" y="-228" type="line"/>
      <point x="-40" y="-234.667"/>
      <point x="-0.667" y="-240"/>
    </contour>
    <contour>
      <point x="72" y="687" type="curve" smooth="yes"/>
      <point x="72" y="632.333"/>
      <point x="107.667" y="614"/>
      <point x="153" y="614" type="curve" smooth="yes"/>
      <point x="197" y="614"/>
      <point x="234" y="632.333"/>
      <point x="234" y="687" type="curve" smooth="yes"/>
      <point x="234" y="743"/>
      <point x="197" y="760"/>
      <point x="153" y="760" type="curve" smooth="yes"/>
      <point x="107.667" y="760"/>
      <point x="72" y="743"/>
    </contour>
  </outline>
</glyph>
<glyph name="k" format="2">
  <advance width="620"/>
  <unicode hex="006B"/>
  <anchor x="289" y="0" name="bottom"/>
  <anchor x="151" y="760" name="top"/>
  <anchor x="551" y="760" name="topright"/>
  <outline>
    <contour>
      <point x="227" y="760" type="line"/>
      <point x="78" y="760" type="line"/>
      <point x="78" y="0" type="line"/>
      <point x="227" y="0" type="line"/>
      <point x="227" y="170" type="line"/>
      <point x="291" y="221" type="line"/>
      <point x="448" y="0" type="line"/>
      <point x="620" y="0" type="line"/>
      <point x="390" y="309" type="line"/>
      <point x="607" y="546" type="line"/>
      <point x="439" y="546" type="line"/>
      <point x="286" y="380" type="line" smooth="yes"/>
      <point x="262" y="353.333"/>
      <point x="241" y="325"/>
      <point x="221" y="297" type="curve"/>
      <point x="219" y="297" type="line"/>
      <point x="223" y="338.333"/>
      <point x="227" y="378.667"/>
      <point x="227" y="420" type="curve" smooth="yes"/>
    </contour>
  </outline>
</glyph>
<glyph name="m" format="2">
  <advance width="982"/>
  <unicode hex="006D"/>
  <anchor x="494" y="0" name="bottom"/>
  <anchor x="502" y="536" name="top"/>
  <anchor x="908" y="536" name="topright"/>
  <outline>
    <contour>
      <point x="719" y="556" type="curve" smooth="yes"/>
      <point x="656.333" y="556"/>
      <point x="591.333" y="532"/>
      <point x="558" y="476" type="curve"/>
      <point x="545" y="476" type="line"/>
      <point x="514.333" y="530.667"/>
      <point x="459" y="556"/>
      <point x="379" y="556" type="curve" smooth="yes"/>
      <point x="316.333" y="556"/>
      <point x="253.333" y="532"/>
      <point x="220" y="476" type="curve"/>
      <point x="212" y="476" type="line"/>
      <point x="192" y="546" type="line"/>
      <point x="78" y="546" type="line"/>
      <point x="78" y="0" type="line"/>
      <point x="227" y="0" type="line"/>
      <point x="227" y="257" type="line" smooth="yes"/>
      <point x="227" y="373"/>
      <point x="253.333" y="437"/>
      <point x="336" y="437" type="curve" smooth="yes"/>
      <point x="390.667" y="437"/>
      <point x="418" y="397.667"/>
      <point x="418" y="319" type="curve" smooth="yes"/>
      <point x="418" y="0" type="line"/>
      <point x="567" y="0" type="line"/>
      <point x="567" y="274" type="line" smooth="yes"/>
      <point x="567" y="379.333"/>
      <point x="597.333" y="437"/>
      <point x="676" y="437" type="curve" smooth="yes"/>
      <point x="730.667" y="437"/>
      <point x="758" y="397.667"/>
      <point x="758" y="319" type="curve" smooth="yes"/>
      <point x="758" y="0" type="line"/>
      <point x="907" y="0" type="line"/>
      <point x="907" y="356" type="line" smooth="yes"/>
      <point x="907" y="496"/>
      <point x="843" y="556"/>
    </contour>
  </outline>
</glyph>
<glyph name="o" format="2">
  <advance width="619"/>
  <unicode hex="006F"/>
  <anchor x="311" y="0" name="bottom"/>
  <anchor x="313" y="268" name="center"/>
  <anchor x="313" y="536" name="top"/>
  <anchor x="585" y="536" name="topright"/>
  <outline>
    <contour>
      <point x="574" y="274" type="curve" smooth="yes"/>
      <point x="574" y="443"/>
      <point x="475" y="556"/>
      <point x="311" y="556" type="curve" smooth="yes"/>
      <point x="145.667" y="556"/>
      <point x="45" y="455.333"/>
      <point x="45" y="274" type="curve" smooth="yes"/>
      <point x="45" y="104"/>
      <point x="144" y="-10"/>
      <point x="308" y="-10" type="curve" smooth="yes"/>
      <point x="472" y="-10"/>
      <point x="574" y="92.667"/>
    </contour>
    <contour>
      <point x="197" y="274" type="curve" smooth="yes"/>
      <point x="197" y="382"/>
      <point x="230.333" y="436"/>
      <point x="309" y="436" type="curve" smooth="yes"/>
      <point x="389" y="436"/>
      <point x="422" y="382"/>
      <point x="422" y="274" type="curve" smooth="yes"/>
      <point x="422" y="166"/>
      <point x="388.667" y="110"/>
      <point x="310" y="110" type="curve" smooth="yes"/>
      <point x="230" y="110"/>
      <point x="197" y="166"/>
    </contour>
  </outline>
</glyph>
<glyph name="p" format="2">
  <advance width="633"/>
  <unicode hex="0070"/>
  <anchor x="152" y="-240" name="bottom"/>
  <anchor x="355" y="536" name="top"/>
  <anchor x="608" y="536" name="topright"/>
  <outline>
    <contour>
      <point x="382" y="556" type="curve" smooth="yes"/>
      <point x="303.333" y="556"/>
      <point x="256.333" y="519"/>
      <point x="227" y="475" type="curve"/>
      <point x="220" y="475" type="line"/>
      <point x="199" y="546" type="line"/>
      <point x="78" y="546" type="line"/>
      <point x="78" y="-240" type="line"/>
      <point x="227" y="-240" type="line"/>
      <point x="227" y="-20" type="line" smooth="yes"/>
      <point x="227" y="5.333"/>
      <point x="224.333" y="32"/>
      <point x="219" y="60" type="curve"/>
      <point x="227" y="60" type="line"/>
      <point x="256.333" y="24"/>
      <point x="299.333" y="-10"/>
      <point x="378" y="-10" type="curve" smooth="yes"/>
      <point x="500.667" y="-10"/>
      <point x="588" y="87.333"/>
      <point x="588" y="274" type="curve" smooth="yes"/>
      <point x="588" y="459.333"/>
      <point x="504.667" y="556"/>
    </contour>
    <contour>
      <point x="334" y="437" type="curve" smooth="yes"/>
      <point x="402" y="437"/>
      <point x="436" y="383.333"/>
      <point x="436" y="276" type="curve" smooth="yes"/>
      <point x="436" y="169.333"/>
      <point x="404" y="111"/>
      <point x="336" y="111" type="curve" smooth="yes"/>
      <point x="253.333" y="111"/>
      <point x="227" y="169.667"/>
      <point x="227" y="275" type="curve" smooth="yes"/>
      <point x="227" y="291" type="line" smooth="yes"/>
      <point x="228.333" y="388.333"/>
      <point x="256.667" y="437"/>
    </contour>
  </outline>
</glyph>
<glyph name="q" format="2">
  <advance width="633"/>
  <unicode hex="0071"/>
  <anchor x="486" y="-240" name="bottom"/>
  <anchor x="308" y="536" name="top"/>
  <anchor x="585" y="536" name="topright"/>
  <outline>
    <contour>
      <point x="406" y="-240" type="line"/>
      <point x="555" y="-240" type="line"/>
      <point x="555" y="546" type="line"/>
      <point x="429" y="546" type="line"/>
      <point x="416" y="476" type="line"/>
      <point x="412" y="476" type="line"/>
      <point x="381.333" y="521.333"/>
      <point x="334" y="556"/>
      <point x="254" y="556" type="curve" smooth="yes"/>
      <point x="130" y="556"/>
      <point x="45" y="458.667"/>
      <point x="45" y="272" type="curve" smooth="yes"/>
      <point x="45" y="86.667"/>
      <point x="128.333" y="-10"/>
      <point x="251" y="-10" type="curve" smooth="yes"/>
      <point x="331" y="-10"/>
      <point x="378" y="25.667"/>
      <point x="406" y="71" type="curve"/>
      <point x="412" y="71" type="line"/>
      <point x="408" y="43.667"/>
      <point x="406" y="16.333"/>
      <point x="406" y="-11" type="curve" smooth="yes"/>
    </contour>
    <contour>
      <point x="304" y="107" type="curve" smooth="yes"/>
      <point x="232.667" y="107"/>
      <point x="197" y="161.333"/>
      <point x="197" y="270" type="curve" smooth="yes"/>
      <point x="197" y="376.667"/>
      <point x="231.333" y="435"/>
      <point x="302" y="435" type="curve" smooth="yes"/>
      <point x="388.667" y="435"/>
      <point x="416" y="376.333"/>
      <point x="416" y="271" type="curve" smooth="yes"/>
      <point x="416" y="253" type="line" smooth="yes"/>
      <point x="413.333" y="155.667"/>
      <point x="386.667" y="107"/>
    </contour>
  </outline>
</glyph>
<glyph name="r" format="2">
  <advance width="454"/>
  <unicode hex="0072"/>
  <anchor x="149" y="0" name="bottom"/>
  <anchor x="263" y="536" name="top"/>
  <anchor x="416" y="536" name="topright"/>
  <outline>
    <contour>
      <point x="383" y="556" type="curve" smooth="yes"/>
      <point x="309.667" y="556"/>
      <point x="252" y="510"/>
      <point x="220" y="454" type="curve"/>
      <point x="213" y="454" type="line"/>
      <point x="191" y="546" type="line"/>
      <point x="78" y="546" type="line"/>
      <point x="78" y="0" type="line"/>
      <point x="227" y="0" type="line"/>
      <point x="227" y="278" type="line" smooth="yes"/>
      <point x="227" y="370"/>
      <point x="287" y="417"/>
      <point x="378" y="417" type="curve" smooth="yes"/>
      <point x="391.333" y="417"/>
      <point x="411.333" y="414.667"/>
      <point x="422" y="412" type="curve"/>
      <point x="433" y="552" type="line"/>
      <point x="421" y="554.667"/>
      <point x="397.667" y="556"/>
    </contour>
  </outline>
</glyph>
<glyph name="s" format="2">
  <advance width="497"/>
  <unicode hex="0073"/>
  <anchor x="264" y="0" name="bottom"/>
  <anchor x="264" y="536" name="top"/>
  <anchor x="463" y="536" name="topright"/>
  <outline>
    <contour>
      <point x="459" y="162" type="curve" smooth="yes"/>
      <point x="459" y="253"/>
      <point x="411" y="290"/>
      <point x="307" y="332" type="curve" smooth="yes"/>
      <point x="251" y="355"/>
      <point x="193" y="375"/>
      <point x="193" y="410" type="curve" smooth="yes"/>
      <point x="193" y="434"/>
      <point x="215" y="446"/>
      <point x="259" y="446" type="curve" smooth="yes"/>
      <point x="308.333" y="446"/>
      <point x="354.667" y="428.667"/>
      <point x="408" y="406" type="curve"/>
      <point x="453" y="513" type="line"/>
      <point x="387.667" y="543.667"/>
      <point x="329" y="556"/>
      <point x="261" y="556" type="curve" smooth="yes"/>
      <point x="130.333" y="556"/>
      <point x="45" y="505.333"/>
      <point x="45" y="404" type="curve" smooth="yes"/>
      <point x="45" y="312"/>
      <point x="91" y="276"/>
      <point x="194" y="232" type="curve" smooth="yes"/>
      <point x="254" y="207"/>
      <point x="312" y="186"/>
      <point x="312" y="146" type="curve" smooth="yes"/>
      <point x="312" y="118"/>
      <point x="288.333" y="99"/>
      <point x="231" y="99" type="curve" smooth="yes"/>
      <point x="179" y="99"/>
      <point x="104.667" y="118.333"/>
      <point x="46" y="145" type="curve"/>
      <point x="46" y="22" type="line"/>
      <point x="100.667" y="-0.667"/>
      <point x="150" y="-10"/>
      <point x="226" y="-10" type="curve" smooth="yes"/>
      <point x="380.667" y="-10"/>
      <point x="459" y="51.333"/>
    </contour>
  </outline>
</glyph>
<glyph name="t" format="2">
  <advance width="434"/>
  <unicode hex="0074"/>
  <anchor x="251" y="0" name="bottom"/>
  <anchor x="218" y="268" name="center"/>
  <anchor x="191" y="659" name="top"/>
  <anchor x="372" y="659" name="topright"/>
  <outline>
    <contour>
      <point x="308" y="109" type="curve" smooth="yes"/>
      <point x="269.333" y="109"/>
      <point x="243" y="129.667"/>
      <point x="243" y="171" type="curve" smooth="yes"/>
      <point x="243" y="434" type="line"/>
      <point x="396" y="434" type="line"/>
      <point x="396" y="546" type="line"/>
      <point x="243" y="546" type="line"/>
      <point x="243" y="662" type="line"/>
      <point x="148" y="662" type="line"/>
      <point x="105" y="547" type="line"/>
      <point x="23" y="497" type="line"/>
      <point x="23" y="434" type="line"/>
      <point x="94" y="434" type="line"/>
      <point x="94" y="171" type="line" smooth="yes"/>
      <point x="94" y="55"/>
      <point x="143" y="-10"/>
      <point x="265" y="-10" type="curve" smooth="yes"/>
      <point x="321" y="-10"/>
      <point x="370" y="0.333"/>
      <point x="402" y="15" type="curve"/>
      <point x="402" y="126" type="line"/>
      <point x="371.333" y="115.333"/>
      <point x="341.333" y="109"/>
    </contour>
  </outline>
</glyph>
<glyph name="u" format="2">
  <advance width="657"/>
  <unicode hex="0075"/>
  <anchor x="310" y="0" name="bottom"/>
  <anchor x="325" y="536" name="top"/>
  <anchor x="608" y="536" name="topright"/>
  <outline>
    <contour>
      <point x="579" y="546" type="line"/>
      <point x="430" y="546" type="line"/>
      <point x="430" y="289" type="line" smooth="yes"/>
      <point x="430" y="173"/>
      <point x="402.667" y="109"/>
      <point x="312" y="109" type="curve" smooth="yes"/>
      <point x="250.667" y="109"/>
      <point x="224" y="148.333"/>
      <point x="224" y="227" type="curve" smooth="yes"/>
      <point x="224" y="546" type="line"/>
      <point x="75" y="546" type="line"/>
      <point x="75" y="190" type="line" smooth="yes"/>
      <point x="75" y="50"/>
      <point x="151.667" y="-10"/>
      <point x="269" y="-10" type="curve" smooth="yes"/>
      <point x="337" y="-10"/>
      <point x="402.333" y="14"/>
      <point x="437" y="70" type="curve"/>
      <point x="445" y="70" type="line"/>
      <point x="465" y="0" type="line"/>
      <point x="579" y="0" type="line"/>
    </contour>
  </outline>
</glyph>
<glyph name="w" format="2">
  <advance width="856"/>
  <unicode hex="0077"/>
  <anchor x="420" y="0" name="bottom"/>
  <anchor x="422" y="536" name="top"/>
  <anchor x="795" y="536" name="topright"/>
  <outline>
    <contour>
      <point x="527" y="0" type="line"/>
      <point x="689" y="0" type="line"/>
      <point x="846" y="546" type="line"/>
      <point x="700" y="546" type="line"/>
      <point x="635" y="304" type="line" smooth="yes"/>
      <point x="622.978" y="259.347"/>
      <point x="606.985" y="158.873"/>
      <point x="603" y="125" type="curve"/>
      <point x="599" y="125" type="line"/>
      <point x="596.915" y="164.612"/>
      <point x="582.396" y="249.486"/>
      <point x="575" y="284" type="curve" smooth="yes"/>
      <point x="511" y="546" type="line"/>
      <point x="347" y="546" type="line"/>
      <point x="280" y="284" type="line" smooth="yes"/>
      <point x="272.721" y="254.885"/>
      <point x="256.662" y="148.265"/>
      <point x="255" y="125" type="curve"/>
      <point x="251" y="125" type="line"/>
      <point x="245.035" y="162.778"/>
      <point x="230.723" y="267.887"/>
      <point x="221" y="304" type="curve" smooth="yes"/>
      <point x="158" y="546" type="line"/>
      <point x="10" y="546" type="line"/>
      <point x="165" y="0" type="line"/>
      <point x="325" y="0" type="line"/>
      <point x="369" y="189" type="line" smooth="yes"/>
      <point x="380.88" y="242.461"/>
      <point x="419.367" y="403.836"/>
      <point x="425" y="432" type="curve"/>
      <point x="429" y="432" type="line"/>
      <point x="431.364" y="420.181"/>
      <point x="481.547" y="205.677"/>
      <point x="485" y="191" type="curve" smooth="yes"/>
    </contour>
  </outline>
</glyph>
<glyph name="x" format="2">
  <advance width="578"/>
  <unicode hex="0078"/>
  <anchor x="282" y="0" name="bottom"/>
  <anchor x="280" y="536" name="top"/>
  <anchor x="526" y="536" name="topright"/>
  <outline>
    <contour>
      <point x="190" y="279" type="line"/>
      <point x="5" y="0" type="line"/>
      <point x="174" y="0" type="line"/>
      <point x="289" y="187" type="line"/>
      <point x="404" y="0" type="line"/>
      <point x="573" y="0" type="line"/>
      <point x="387" y="279" type="line"/>
      <point x="565" y="546" type="line"/>
      <point x="396" y="546" type="line"/>
      <point x="289" y="372" type="line"/>
      <point x="183" y="546" type="line"/>
      <point x="14" y="546" type="line"/>
    </contour>
  </outline>
</glyph>
<glyph name="y" format="2">
  <advance width="569"/>
  <unicode hex="0079"/>
  <anchor x="123" y="-240" name="bottom"/>
  <anchor x="284" y="536" name="top"/>
  <anchor x="519" y="536" name="topright"/>
  <outline>
    <contour>
      <point x="0" y="546" type="line"/>
      <point x="217" y="4" type="line"/>
      <point x="208" y="-23" type="line" smooth="yes"/>
      <point x="189.333" y="-76.333"/>
      <point x="155.667" y="-120"/>
      <point x="93" y="-120" type="curve" smooth="yes"/>
      <point x="70.333" y="-120"/>
      <point x="47.333" y="-116.667"/>
      <point x="34" y="-114" type="curve"/>
      <point x="34" y="-232" type="line"/>
      <point x="52.667" y="-236"/>
      <point x="75.333" y="-240"/>
      <point x="110" y="-240" type="curve" smooth="yes"/>
      <point x="214" y="-240"/>
      <point x="295.333" y="-183.333"/>
      <point x="338" y="-70" type="curve" smooth="yes"/>
      <point x="569" y="546" type="line"/>
      <point x="409" y="546" type="line"/>
      <point x="308" y="239" type="line" smooth="yes"/>
      <point x="297.333" y="208.333"/>
      <point x="291" y="178.667"/>
      <point x="287" y="144" type="curve"/>
      <point x="284" y="144" type="line"/>
      <point x="281.333" y="178.667"/>
      <point x="276.667" y="208.333"/>
      <point x="266" y="239" type="curve" smooth="yes"/>
      <point x="163" y="546" type="line"/>
    </contour>
  </outline>
</glyph>
<glyph name="z" format="2">
  <advance width="488"/>
  <unicode hex="007A"/>
  <anchor x="250" y="0" name="bottom"/>
  <anchor x="243" y="536" name="top"/>
  <anchor x="468" y="536" name="topright"/>
  <outline>
    <contour>
      <point x="458" y="0" type="line"/>
      <point x="458" y="114" type="line"/>
      <point x="203" y="114" type="line"/>
      <point x="449" y="449" type="line"/>
      <point x="449" y="546" type="line"/>
      <point x="42" y="546" type="line"/>
      <point x="42" y="432" type="line"/>
      <point x="280" y="432" type="line"/>
      <point x="27" y="88" type="line"/>
      <point x="27" y="0" type="line"/>
    </contour>
  </outline>
</glyph>
<glyph name="braceleft" format="2">
  <advance width="394"/>
  <unicode hex="007B"/>
  <outline>
    <contour>
      <point x="354" y="-158" type="curve"/>
      <point x="354" y="-48" type="line"/>
      <point x="302" y="-46.667"/>
      <point x="269" y="-35"/>
      <point x="269" y="21" type="curve" smooth="yes"/>
      <point x="269" y="167" type="line" smooth="yes"/>
      <point x="269" y="227.667"/>
      <point x="231" y="263.667"/>
      <point x="155" y="275" type="curve"/>
      <point x="155" y="281" type="line"/>
      <point x="231" y="292.333"/>
      <point x="269" y="328.333"/>
      <point x="269" y="389" type="curve" smooth="yes"/>
      <point x="269" y="535" type="line" smooth="yes"/>
      <point x="269" y="591"/>
      <point x="302" y="602.667"/>
      <point x="354" y="604" type="curve"/>
      <point x="354" y="714" type="line"/>
      <point x="215" y="714"/>
      <point x="140" y="693"/>
      <point x="140" y="578" type="curve" smooth="yes"/>
      <point x="140" y="423" type="line" smooth="yes"/>
      <point x="140" y="360.333"/>
      <point x="96.333" y="336"/>
      <point x="15" y="336" type="curve"/>
      <point x="15" y="219" type="line"/>
      <point x="96.333" y="219"/>
      <point x="140" y="194.667"/>
      <point x="140" y="132" type="curve" smooth="yes"/>
      <point x="140" y="-22" type="line" smooth="yes"/>
      <point x="140" y="-136"/>
      <point x="213" y="-158"/>
    </contour>
  </outline>
</glyph>
<glyph name="bar" format="2">
  <advance width="551"/>
  <unicode hex="007C"/>
  <outline>
    <contour>
      <point x="222" y="757" type="line"/>
      <point x="222" y="-227" type="line"/>
      <point x="329" y="-227" type="line"/>
      <point x="329" y="757" type="line"/>
    </contour>
  </outline>
</glyph>
<glyph name="braceright" format="2">
  <advance width="394"/>
  <unicode hex="007D"/>
  <outline>
    <contour>
      <point x="40" y="-158" type="line"/>
      <point x="179" y="-158"/>
      <point x="254" y="-137"/>
      <point x="254" y="-22" type="curve" smooth="yes"/>
      <point x="254" y="132" type="line" smooth="yes"/>
      <point x="254" y="194.667"/>
      <point x="297.667" y="219"/>
      <point x="379" y="219" type="curve"/>
      <point x="379" y="336" type="line"/>
      <point x="297.667" y="336"/>
      <point x="254" y="360.333"/>
      <point x="254" y="423" type="curve" smooth="yes"/>
      <point x="254" y="578" type="line" smooth="yes"/>
      <point x="254" y="692"/>
      <point x="181" y="714"/>
      <point x="40" y="714" type="curve"/>
      <point x="40" y="604" type="line"/>
      <point x="92" y="602.667"/>
      <point x="125" y="591"/>
      <point x="125" y="535" type="curve" smooth="yes"/>
      <point x="125" y="389" type="line" smooth="yes"/>
      <point x="125" y="328.333"/>
      <point x="163" y="292.333"/>
      <point x="239" y="281" type="curve"/>
      <point x="239" y="275" type="line"/>
      <point x="163" y="263.667"/>
      <point x="125" y="227.667"/>
      <point x="125" y="167" type="curve" smooth="yes"/>
      <point x="125" y="21" type="line" smooth="yes"/>
      <point x="125" y="-35"/>
      <point x="92" y="-46.667"/>
      <point x="40" y="-48" type="curve"/>
    </contour>
  </outline>
</glyph>
<glyph name="guillemotleft" format="2">
  <advance width="615"/>
  <unicode hex="00AB"/>
  <outline>
    <contour>
      <point x="40" y="280" type="line"/>
      <point x="40" y="267" type="line"/>
      <point x="221" y="46" type="line"/>
      <point x="328" y="104" type="line"/>
      <point x="192" y="274" type="line"/>
      <point x="328" y="444" type="line"/>
      <point x="221" y="502" type="line"/>
    </contour>
    <contour>
      <point x="287" y="280" type="line"/>
      <point x="287" y="267" type="line"/>
      <point x="468" y="46" type="line"/>
      <point x="575" y="104" type="line"/>
      <point x="439" y="274" type="line"/>
      <point x="575" y="444" type="line"/>
      <point x="468" y="502" type="line"/>
    </contour>
  </outline>
</glyph>
<glyph name="guillemotright" format="2">
  <advance width="615"/>
  <unicode hex="00BB"/>
  <outline>
    <contour>
      <point x="575" y="267" type="line"/>
      <point x="575" y="280" type="line"/>
      <point x="394" y="502" type="line"/>
      <point x="287" y="444" type="line"/>
      <point x="423" y="274" type="line"/>
      <point x="287" y="104" type="line"/>
      <point x="394" y="46" type="line"/>
    </contour>
    <contour>
      <point x="328" y="267" type="line"/>
      <point x="328" y="280" type="line"/>
      <point x="147" y="502" type="line"/>
      <point x="40" y="444" type="line"/>
      <point x="176" y="274" type="line"/>
      <point x="40" y="104" type="line"/>
      <point x="147" y="46" type="line"/>
    </contour>
  </outline>
</glyph>
<glyph name="question-ar" format="2">
  <advance width="477"/>
  <unicode hex="061F"/>
  <outline>
    <contour>
      <point x="342" y="237" type="line"/>
      <point x="342" y="273" type="line" smooth="yes"/>
      <point x="342" y="340"/>
      <point x="317" y="381"/>
      <point x="249" y="430" type="curve" smooth="yes"/>
      <point x="189" y="473"/>
      <point x="165" y="498"/>
      <point x="165" y="539" type="curve" smooth="yes"/>
      <point x="165" y="582"/>
      <point x="201" y="604"/>
      <point x="259" y="604" type="curve" smooth="yes"/>
      <point x="315" y="604"/>
      <point x="363" y="589"/>
      <point x="417" y="552" type="curve"/>
      <point x="474" y="663" type="line"/>
      <point x="423" y="697"/>
      <point x="363" y="724"/>
      <point x="264" y="724" type="curve" smooth="yes"/>
      <point x="107" y="724"/>
      <point x="24" y="642"/>
      <point x="24" y="539" type="curve" smooth="yes"/>
      <point x="24" y="456"/>
      <point x="65" y="420"/>
      <point x="141" y="366" type="curve" smooth="yes"/>
      <point x="194" y="327"/>
      <point x="213" y="310"/>
      <point x="213" y="266" type="curve" smooth="yes"/>
      <point x="213" y="237" type="line"/>
    </contour>
    <contour>
      <point x="358" y="70" type="curve" smooth="yes"/>
      <point x="358" y="131"/>
      <point x="320" y="153"/>
      <point x="272" y="153" type="curve" smooth="yes"/>
      <point x="225" y="153"/>
      <point x="187" y="131"/>
      <point x="187" y="70" type="curve" smooth="yes"/>
      <point x="187" y="11"/>
      <point x="225" y="-13"/>
      <point x="272" y="-13" type="curve" smooth="yes"/>
      <point x="320" y="-13"/>
      <point x="358" y="11"/>
    </contour>
  </outline>
</glyph>
<glyph name="kashida-ar" format="2">
  <advance width="285"/>
  <unicode hex="0640"/>
  <outline>
    <contour>
      <point x="285" y="0" type="line"/>
      <point x="285" y="120" type="line"/>
      <point x="-40" y="120" type="line"/>
      <point x="-40" y="0" type="line"/>
    </contour>
  </outline>
</glyph>
<glyph name="quoteleft" format="2">
  <advance width="217"/>
  <unicode hex="2018"/>
  <outline>
    <contour>
      <point x="19" y="469" type="line"/>
      <point x="156" y="469" type="line"/>
      <point x="166.667" y="538.333"/>
      <point x="186.333" y="635.333"/>
      <point x="205" y="714" type="curve"/>
      <point x="98" y="714" type="line"/>
      <point x="64.667" y="640.667"/>
      <point x="30.667" y="550.667"/>
      <point x="12" y="480" type="curve"/>
    </contour>
  </outline>
</glyph>
<glyph name="quoteright" format="2">
  <advance width="217"/>
  <unicode hex="2019"/>
  <outline>
    <contour>
      <point x="198" y="714" type="line"/>
      <point x="61" y="714" type="line"/>
      <point x="51.667" y="644.667"/>
      <point x="30.667" y="547.667"/>
      <point x="12" y="469" type="curve"/>
      <point x="119" y="469" type="line"/>
      <point x="152.333" y="542.333"/>
      <point x="187.667" y="632.333"/>
      <point x="205" y="703" type="curve"/>
    </contour>
  </outline>
</glyph>
<glyph name="quotesinglbase" format="2">
  <advance width="285"/>
  <unicode hex="201A"/>
  <outline>
    <contour>
      <point x="217" y="116" type="line"/>
      <point x="80" y="116" type="line"/>
      <point x="71" y="47"/>
      <point x="50" y="-50"/>
      <point x="31" y="-129" type="curve"/>
      <point x="138" y="-129" type="line"/>
      <point x="171" y="-56"/>
      <point x="207" y="34"/>
      <point x="224" y="105" type="curve"/>
    </contour>
  </outline>
</glyph>
<glyph name="quotereversed" format="2">
  <advance width="217"/>
  <unicode hex="201B"/>
  <outline>
    <contour>
      <point x="156" y="714" type="curve"/>
      <point x="19" y="714" type="line"/>
      <point x="12" y="703" type="line"/>
      <point x="29" y="632"/>
      <point x="65" y="542"/>
      <point x="98" y="469" type="curve"/>
      <point x="205" y="469" type="line"/>
      <point x="186" y="548"/>
      <point x="165" y="645"/>
    </contour>
  </outline>
</glyph>
<glyph name="quotedblleft" format="2">
  <advance width="445"/>
  <unicode hex="201C"/>
  <outline>
    <contour>
      <point x="433" y="714" type="curve"/>
      <point x="326" y="714" type="line"/>
      <point x="292.667" y="640.667"/>
      <point x="258.667" y="550.667"/>
      <point x="240" y="480" type="curve"/>
      <point x="247" y="469" type="line"/>
      <point x="384" y="469" type="line"/>
      <point x="394.667" y="538.333"/>
      <point x="414.333" y="635.333"/>
    </contour>
    <contour>
      <point x="205" y="714" type="curve"/>
      <point x="98" y="714" type="line"/>
      <point x="64.667" y="640.667"/>
      <point x="30.667" y="550.667"/>
      <point x="12" y="480" type="curve"/>
      <point x="19" y="469" type="line"/>
      <point x="156" y="469" type="line"/>
      <point x="166.667" y="538.333"/>
      <point x="186.333" y="635.333"/>
    </contour>
  </outline>
</glyph>
<glyph name="quotedblright" format="2">
  <advance width="445"/>
  <unicode hex="201D"/>
  <outline>
    <contour>
      <point x="426" y="714" type="line"/>
      <point x="289" y="714" type="line"/>
      <point x="279.667" y="644.667"/>
      <point x="258.667" y="547.667"/>
      <point x="240" y="469" type="curve"/>
      <point x="347" y="469" type="line"/>
      <point x="380.333" y="542.333"/>
      <point x="415.667" y="632.333"/>
      <point x="433" y="703" type="curve"/>
    </contour>
    <contour>
      <point x="198" y="714" type="line"/>
      <point x="61" y="714" type="line"/>
      <point x="51.667" y="644.667"/>
      <point x="30.667" y="547.667"/>
      <point x="12" y="469" type="curve"/>
      <point x="119" y="469" type="line"/>
      <point x="152.333" y="542.333"/>
      <point x="187.667" y="632.333"/>
      <point x="205" y="703" type="curve"/>
    </contour>
  </outline>
</glyph>
<glyph name="quotedblbase" format="2">
  <advance width="513"/>
  <unicode hex="201E"/>
  <outline>
    <contour>
      <point x="445" y="116" type="line"/>
      <point x="308" y="116" type="line"/>
      <point x="299" y="47"/>
      <point x="278" y="-50"/>
      <point x="259" y="-129" type="curve"/>
      <point x="366" y="-129" type="line"/>
      <point x="399" y="-56"/>
      <point x="435" y="34"/>
      <point x="452" y="105" type="curve"/>
    </contour>
    <contour>
      <point x="217" y="116" type="line"/>
      <point x="80" y="116" type="line"/>
      <point x="71" y="47"/>
      <point x="50" y="-50"/>
      <point x="31" y="-129" type="curve"/>
      <point x="138" y="-129" type="line"/>
      <point x="171" y="-56"/>
      <point x="207" y="34"/>
      <point x="224" y="105" type="curve"/>
    </contour>
  </outline>
</glyph>
<glyph name="dagger" format="2">
  <advance width="516"/>
  <unicode hex="2020"/>
  <note>
dagger
</note>
  <outline>
    <contour>
      <point x="456" y="453" type="line"/>
      <point x="456" y="571" type="line"/>
      <point x="294" y="556" type="line"/>
      <point x="321" y="760" type="line"/>
      <point x="185" y="760" type="line"/>
      <point x="212" y="556" type="line"/>
      <point x="60" y="571" type="line"/>
      <point x="60" y="453" type="line"/>
      <point x="212" y="468" type="line"/>
      <point x="185" y="0" type="line"/>
      <point x="321" y="0" type="line"/>
      <point x="294" y="468" type="line"/>
    </contour>
  </outline>
</glyph>
<glyph name="daggerdbl" format="2">
  <advance width="516"/>
  <unicode hex="2021"/>
  <outline>
    <contour>
      <point x="299" y="272" type="line"/>
      <point x="322" y="384" type="line"/>
      <point x="299" y="488" type="line"/>
      <point x="461" y="473" type="line"/>
      <point x="461" y="591" type="line"/>
      <point x="299" y="576" type="line"/>
      <point x="326" y="760" type="line"/>
      <point x="190" y="760" type="line"/>
      <point x="217" y="576" type="line"/>
      <point x="55" y="591" type="line"/>
      <point x="55" y="473" type="line"/>
      <point x="217" y="488" type="line"/>
      <point x="194" y="384" type="line"/>
      <point x="217" y="272" type="line"/>
      <point x="55" y="287" type="line"/>
      <point x="55" y="169" type="line"/>
      <point x="217" y="184" type="line"/>
      <point x="190" y="0" type="line"/>
      <point x="326" y="0" type="line"/>
      <point x="299" y="184" type="line"/>
      <point x="461" y="169" type="line"/>
      <point x="461" y="287" type="line"/>
    </contour>
  </outline>
</glyph>
<glyph name="bullet" format="2">
  <advance width="376"/>
  <unicode hex="2022"/>
  <outline>
    <contour>
      <point x="48" y="365" type="curve" smooth="yes"/>
      <point x="48" y="254.333"/>
      <point x="109.333" y="210"/>
      <point x="188" y="210" type="curve" smooth="yes"/>
      <point x="265.333" y="210"/>
      <point x="328" y="254.333"/>
      <point x="328" y="365" type="curve" smooth="yes"/>
      <point x="328" y="463"/>
      <point x="278" y="520"/>
      <point x="188" y="520" type="curve" smooth="yes"/>
      <point x="109.333" y="520"/>
      <point x="48" y="477"/>
    </contour>
  </outline>
</glyph>
<glyph name="ellipsis" format="2">
  <advance width="855"/>
  <unicode hex="2026"/>
  <outline>
    <contour>
      <point x="57" y="70" type="curve" smooth="yes"/>
      <point x="57" y="11"/>
      <point x="95" y="-13"/>
      <point x="143" y="-13" type="curve" smooth="yes"/>
      <point x="190" y="-13"/>
      <point x="228" y="11"/>
      <point x="228" y="70" type="curve" smooth="yes"/>
      <point x="228" y="131"/>
      <point x="190" y="153"/>
      <point x="143" y="153" type="curve" smooth="yes"/>
      <point x="95" y="153"/>
      <point x="57" y="131"/>
    </contour>
    <contour>
      <point x="342" y="70" type="curve" smooth="yes"/>
      <point x="342" y="11"/>
      <point x="380" y="-13"/>
      <point x="428" y="-13" type="curve" smooth="yes"/>
      <point x="475" y="-13"/>
      <point x="513" y="11"/>
      <point x="513" y="70" type="curve" smooth="yes"/>
      <point x="513" y="131"/>
      <point x="475" y="153"/>
      <point x="428" y="153" type="curve" smooth="yes"/>
      <point x="380" y="153"/>
      <point x="342" y="131"/>
    </contour>
    <contour>
      <point x="627" y="70" type="curve" smooth="yes"/>
      <point x="627" y="11"/>
      <point x="665" y="-13"/>
      <point x="713" y="-13" type="curve" smooth="yes"/>
      <point x="760" y="-13"/>
      <point x="798" y="11"/>
      <point x="798" y="70" type="curve" smooth="yes"/>
      <point x="798" y="131"/>
      <point x="760" y="153"/>
      <point x="713" y="153" type="curve" smooth="yes"/>
      <point x="665" y="153"/>
      <point x="627" y="131"/>
    </contour>
  </outline>
</glyph>
<glyph name="perthousand" format="2">
  <advance width="1281"/>
  <unicode hex="2030"/>
  <outline>
    <contour>
      <point x="199" y="724" type="curve" smooth="yes"/>
      <point x="81.667" y="724"/>
      <point x="31" y="642.333"/>
      <point x="31" y="501" type="curve" smooth="yes"/>
      <point x="31" y="359.667"/>
      <point x="88.333" y="276"/>
      <point x="199" y="276" type="curve" smooth="yes"/>
      <point x="317.667" y="276"/>
      <point x="370" y="359.667"/>
      <point x="370" y="501" type="curve" smooth="yes"/>
      <point x="370" y="642.333"/>
      <point x="311" y="724"/>
    </contour>
    <contour>
      <point x="200" y="622" type="curve" smooth="yes"/>
      <point x="231.333" y="622"/>
      <point x="247" y="582"/>
      <point x="247" y="500" type="curve" smooth="yes"/>
      <point x="247" y="418"/>
      <point x="231.333" y="377"/>
      <point x="200" y="377" type="curve" smooth="yes"/>
      <point x="169.333" y="377"/>
      <point x="154" y="418"/>
      <point x="154" y="500" type="curve" smooth="yes"/>
      <point x="154" y="581.333"/>
      <point x="169.333" y="622"/>
    </contour>
    <contour>
      <point x="706" y="714" type="line"/>
      <point x="589" y="714" type="line"/>
      <point x="193" y="0" type="line"/>
      <point x="310" y="0" type="line"/>
    </contour>
    <contour>
      <point x="699" y="440" type="curve" smooth="yes"/>
      <point x="582" y="440"/>
      <point x="531" y="358"/>
      <point x="531" y="217" type="curve" smooth="yes"/>
      <point x="531" y="75"/>
      <point x="588" y="-8"/>
      <point x="699" y="-8" type="curve" smooth="yes"/>
      <point x="818" y="-8"/>
      <point x="870" y="75"/>
      <point x="870" y="217" type="curve" smooth="yes"/>
      <point x="870" y="358"/>
      <point x="811" y="440"/>
    </contour>
    <contour>
      <point x="700" y="338" type="curve" smooth="yes"/>
      <point x="731" y="338"/>
      <point x="747" y="297"/>
      <point x="747" y="216" type="curve" smooth="yes"/>
      <point x="747" y="134"/>
      <point x="731" y="93"/>
      <point x="700" y="93" type="curve" smooth="yes"/>
      <point x="669" y="93"/>
      <point x="654" y="134"/>
      <point x="654" y="216" type="curve" smooth="yes"/>
      <point x="654" y="297"/>
      <point x="669" y="338"/>
    </contour>
    <contour>
      <point x="1079" y="440" type="curve" smooth="yes"/>
      <point x="962" y="440"/>
      <point x="911" y="358"/>
      <point x="911" y="217" type="curve" smooth="yes"/>
      <point x="911" y="75"/>
      <point x="968" y="-8"/>
      <point x="1079" y="-8" type="curve" smooth="yes"/>
      <point x="1198" y="-8"/>
      <point x="1250" y="75"/>
      <point x="1250" y="217" type="curve" smooth="yes"/>
      <point x="1250" y="358"/>
      <point x="1191" y="440"/>
    </contour>
    <contour>
      <point x="1080" y="338" type="curve" smooth="yes"/>
      <point x="1111" y="338"/>
      <point x="1127" y="297"/>
      <point x="1127" y="216" type="curve" smooth="yes"/>
      <point x="1127" y="134"/>
      <point x="1111" y="93"/>
      <point x="1080" y="93" type="curve" smooth="yes"/>
      <point x="1049" y="93"/>
      <point x="1034" y="134"/>
      <point x="1034" y="216" type="curve" smooth="yes"/>
      <point x="1034" y="297"/>
      <point x="1049" y="338"/>
    </contour>
  </outline>
</glyph>
<glyph name="guilsinglleft" format="2">
  <advance width="368"/>
  <unicode hex="2039"/>
  <outline>
    <contour>
      <point x="40" y="280" type="line"/>
      <point x="40" y="267" type="line"/>
      <point x="221" y="46" type="line"/>
      <point x="328" y="104" type="line"/>
      <point x="192" y="274" type="line"/>
      <point x="328" y="444" type="line"/>
      <point x="221" y="502" type="line"/>
    </contour>
  </outline>
</glyph>
<glyph name="guilsinglright" format="2">
  <advance width="368"/>
  <unicode hex="203A"/>
  <outline>
    <contour>
      <point x="147" y="502" type="line"/>
      <point x="40" y="444" type="line"/>
      <point x="176" y="274" type="line"/>
      <point x="40" y="104" type="line"/>
      <point x="147" y="46" type="line"/>
      <point x="328" y="267" type="line"/>
      <point x="328" y="280" type="line"/>
    </contour>
  </outline>
</glyph>
<glyph name="fraction" format="2">
  <advance width="130"/>
  <unicode hex="2044"/>
  <outline>
    <contour>
      <point x="321" y="714" type="line"/>
      <point x="204" y="714" type="line"/>
      <point x="-192" y="0" type="line"/>
      <point x="-75" y="0" type="line"/>
    </contour>
  </outline>
</glyph>
<glyph name="reversedsemicolon" format="2">
  <advance width="316"/>
  <unicode hex="204F"/>
  <outline>
    <contour>
      <point x="259" y="473" type="curve" smooth="yes"/>
      <point x="259" y="534"/>
      <point x="221" y="556"/>
      <point x="173" y="556" type="curve" smooth="yes"/>
      <point x="126" y="556"/>
      <point x="88" y="534"/>
      <point x="88" y="473" type="curve" smooth="yes"/>
      <point x="88" y="414"/>
      <point x="126" y="390"/>
      <point x="173" y="390" type="curve" smooth="yes"/>
      <point x="221" y="390"/>
      <point x="259" y="414"/>
    </contour>
    <contour>
      <point x="99" y="116" type="line"/>
      <point x="92" y="105" type="line"/>
      <point x="101" y="34"/>
      <point x="135" y="-56"/>
      <point x="201" y="-169" type="curve"/>
      <point x="285" y="-129" type="line"/>
      <point x="256" y="-50"/>
      <point x="237" y="47"/>
      <point x="236" y="116" type="curve"/>
    </contour>
  </outline>
</glyph>
<glyph name="leftDoubleParen" format="2">
  <advance width="556"/>
  <unicode hex="2E28"/>
  <outline>
    <contour>
      <point x="257" y="272" type="curve" smooth="yes"/>
      <point x="257" y="111"/>
      <point x="303" y="-43"/>
      <point x="404" y="-160" type="curve"/>
      <point x="525" y="-160" type="line"/>
      <point x="434" y="-37"/>
      <point x="387" y="118"/>
      <point x="387" y="273" type="curve" smooth="yes"/>
      <point x="387" y="432"/>
      <point x="435" y="587"/>
      <point x="526" y="712" type="curve"/>
      <point x="404" y="712" type="line"/>
      <point x="303" y="591"/>
      <point x="257" y="435"/>
    </contour>
    <contour>
      <point x="40" y="274" type="curve" smooth="yes"/>
      <point x="40" y="113"/>
      <point x="85" y="-41"/>
      <point x="187" y="-158" type="curve"/>
      <point x="308" y="-158" type="line"/>
      <point x="217" y="-35"/>
      <point x="170" y="120"/>
      <point x="170" y="275" type="curve" smooth="yes"/>
      <point x="170" y="434"/>
      <point x="218" y="589"/>
      <point x="309" y="714" type="curve"/>
      <point x="187" y="714" type="line"/>
      <point x="85" y="593"/>
      <point x="40" y="437"/>
    </contour>
  </outline>
</glyph>
<glyph name="rightDoubleParen" format="2">
  <advance width="558"/>
  <unicode hex="2E29"/>
  <outline>
    <contour>
      <point x="299" y="274" type="curve" smooth="yes"/>
      <point x="299" y="437"/>
      <point x="254" y="593"/>
      <point x="152" y="714" type="curve"/>
      <point x="30" y="714" type="line"/>
      <point x="121" y="589"/>
      <point x="169" y="434"/>
      <point x="169" y="275" type="curve" smooth="yes"/>
      <point x="169" y="120"/>
      <point x="121" y="-35"/>
      <point x="31" y="-158" type="curve"/>
      <point x="152" y="-158" type="line"/>
      <point x="254" y="-41"/>
      <point x="299" y="113"/>
    </contour>
    <contour>
      <point x="518" y="274" type="curve" smooth="yes"/>
      <point x="518" y="437"/>
      <point x="473" y="593"/>
      <point x="371" y="714" type="curve"/>
      <point x="249" y="714" type="line"/>
      <point x="340" y="589"/>
      <point x="388" y="434"/>
      <point x="388" y="275" type="curve" smooth="yes"/>
      <point x="388" y="120"/>
      <point x="340" y="-35"/>
      <point x="250" y="-158" type="curve"/>
      <point x="371" y="-158" type="line"/>
      <point x="473" y="-41"/>
      <point x="518" y="113"/>
    </contour>
  </outline>
</glyph>
<glyph name="commareversed" format="2">
  <advance width="285"/>
  <unicode hex="2E41"/>
  <outline>
    <contour>
      <point x="68" y="116" type="line"/>
      <point x="61" y="105" type="line"/>
      <point x="70" y="34"/>
      <point x="104" y="-56"/>
      <point x="171" y="-166" type="curve"/>
      <point x="254" y="-129" type="line"/>
      <point x="225" y="-50"/>
      <point x="206" y="47"/>
      <point x="205" y="116" type="curve"/>
    </contour>
  </outline>
</glyph>
<glyph name="Alif-adlam" format="2">
  <advance width="745"/>
  <unicode hex="1E900"/>
  <anchor x="395" y="663" name="gemconsonanttop"/>
  <anchor x="381" y="663" name="top"/>
  <anchor x="335" y="739" name="topAlif"/>
  <outline>
    <contour>
      <point x="231" y="531" type="line" smooth="yes"/>
      <point x="231" y="573"/>
      <point x="240" y="589"/>
      <point x="280" y="589" type="curve" smooth="yes"/>
      <point x="558" y="589" type="line"/>
      <point x="562" y="594" type="line"/>
      <point x="489" y="714" type="line"/>
      <point x="192" y="714" type="line" smooth="yes"/>
      <point x="98" y="714"/>
      <point x="80" y="682"/>
      <point x="80" y="596" type="curve" smooth="yes"/>
      <point x="80" y="277" type="line" smooth="yes"/>
      <point x="80" y="72"/>
      <point x="160" y="-10"/>
      <point x="374" y="-10" type="curve" smooth="yes"/>
      <point x="592" y="-10"/>
      <point x="666" y="102"/>
      <point x="666" y="225" type="curve" smooth="yes"/>
      <point x="666" y="297"/>
      <point x="637" y="331"/>
      <point x="615" y="346" type="curve"/>
      <point x="615" y="351" type="line"/>
      <point x="640" y="355"/>
      <point x="685" y="371"/>
      <point x="700" y="382" type="curve"/>
      <point x="663" y="491" type="line"/>
      <point x="637" y="475"/>
      <point x="545" y="453"/>
      <point x="452" y="453" type="curve" smooth="yes"/>
      <point x="374" y="453"/>
      <point x="325" y="464"/>
      <point x="308" y="471" type="curve"/>
      <point x="289" y="348" type="line"/>
      <point x="301" y="343"/>
      <point x="353" y="333"/>
      <point x="406" y="328" type="curve" smooth="yes"/>
      <point x="464" y="323"/>
      <point x="510" y="302"/>
      <point x="510" y="225" type="curve" smooth="yes"/>
      <point x="510" y="154"/>
      <point x="464" y="115"/>
      <point x="374" y="115" type="curve" smooth="yes"/>
      <point x="282" y="115"/>
      <point x="231" y="154"/>
      <point x="231" y="277" type="curve" smooth="yes"/>
    </contour>
  </outline>
</glyph>
<glyph name="Daali-adlam" format="2">
  <advance width="638"/>
  <unicode hex="1E901"/>
  <anchor x="309" y="663" name="gemconsonanttop"/>
  <anchor x="305" y="663" name="top"/>
  <outline>
    <contour>
      <point x="558" y="118" type="curve" smooth="yes"/>
      <point x="558" y="714" type="line"/>
      <point x="407" y="714" type="line"/>
      <point x="407" y="333" type="line"/>
      <point x="402" y="331" type="line"/>
      <point x="390" y="342"/>
      <point x="370" y="349"/>
      <point x="299" y="366" type="curve" smooth="yes"/>
      <point x="221" y="385"/>
      <point x="202" y="398"/>
      <point x="202" y="483" type="curve" smooth="yes"/>
      <point x="202" y="714" type="line"/>
      <point x="51" y="714" type="line"/>
      <point x="51" y="453" type="line" smooth="yes"/>
      <point x="51" y="321"/>
      <point x="88" y="294"/>
      <point x="234" y="258" type="curve" smooth="yes"/>
      <point x="396" y="219"/>
      <point x="407" y="204"/>
      <point x="407" y="168" type="curve" smooth="yes"/>
      <point x="407" y="162" type="line" smooth="yes"/>
      <point x="407" y="126"/>
      <point x="398" y="125"/>
      <point x="358" y="125" type="curve" smooth="yes"/>
      <point x="45" y="125" type="line"/>
      <point x="45" y="0" type="line"/>
      <point x="446" y="0" type="line" smooth="yes"/>
      <point x="540" y="0"/>
      <point x="558" y="32"/>
    </contour>
  </outline>
</glyph>
<glyph name="Laam-adlam" format="2">
  <advance width="867"/>
  <unicode hex="1E902"/>
  <anchor x="413" y="663" name="top"/>
  <outline>
    <contour>
      <point x="787" y="714" type="line"/>
      <point x="636" y="714" type="line"/>
      <point x="636" y="536" type="line" smooth="yes"/>
      <point x="636" y="499"/>
      <point x="629" y="493"/>
      <point x="584" y="462" type="curve" smooth="yes"/>
      <point x="548" y="437"/>
      <point x="533" y="426"/>
      <point x="523" y="416" type="curve"/>
      <point x="520" y="416" type="line"/>
      <point x="520" y="522" type="line" smooth="yes"/>
      <point x="520" y="681"/>
      <point x="450" y="726"/>
      <point x="317" y="726" type="curve" smooth="yes"/>
      <point x="137" y="726"/>
      <point x="63" y="614"/>
      <point x="45" y="571" type="curve"/>
      <point x="45" y="374" type="line"/>
      <point x="196" y="374" type="line"/>
      <point x="196" y="543" type="line"/>
      <point x="207" y="566"/>
      <point x="236" y="600"/>
      <point x="298" y="600" type="curve" smooth="yes"/>
      <point x="352" y="600"/>
      <point x="369" y="573"/>
      <point x="369" y="522" type="curve" smooth="yes"/>
      <point x="369" y="183" type="line" smooth="yes"/>
      <point x="369" y="141"/>
      <point x="360" y="125"/>
      <point x="320" y="125" type="curve" smooth="yes"/>
      <point x="56" y="125" type="line"/>
      <point x="56" y="0" type="line"/>
      <point x="408" y="0" type="line" smooth="yes"/>
      <point x="502" y="0"/>
      <point x="520" y="32"/>
      <point x="520" y="118" type="curve" smooth="yes"/>
      <point x="520" y="244" type="line" smooth="yes"/>
      <point x="520" y="297"/>
      <point x="526" y="304"/>
      <point x="574" y="339" type="curve" smooth="yes"/>
      <point x="619" y="372"/>
      <point x="628" y="379"/>
      <point x="634" y="385" type="curve"/>
      <point x="636" y="384" type="line"/>
      <point x="636" y="0" type="line"/>
      <point x="787" y="0" type="line"/>
    </contour>
  </outline>
</glyph>
<glyph name="Miim-adlam" format="2">
  <advance width="669"/>
  <unicode hex="1E903"/>
  <anchor x="337" y="663" name="top"/>
  <outline>
    <contour>
      <point x="341" y="724" type="curve" smooth="yes"/>
      <point x="138" y="724"/>
      <point x="45" y="662"/>
      <point x="45" y="535" type="curve" smooth="yes"/>
      <point x="45" y="401"/>
      <point x="117" y="363"/>
      <point x="254" y="320" type="curve" smooth="yes"/>
      <point x="417" y="269"/>
      <point x="460" y="238"/>
      <point x="460" y="178" type="curve" smooth="yes"/>
      <point x="460" y="141"/>
      <point x="439" y="125"/>
      <point x="382" y="125" type="curve" smooth="yes"/>
      <point x="50" y="125" type="line"/>
      <point x="50" y="0" type="line"/>
      <point x="382" y="0" type="line" smooth="yes"/>
      <point x="545" y="0"/>
      <point x="614" y="49"/>
      <point x="614" y="178" type="curve" smooth="yes"/>
      <point x="614" y="310"/>
      <point x="545" y="372"/>
      <point x="378" y="422" type="curve" smooth="yes"/>
      <point x="225" y="468"/>
      <point x="201" y="488"/>
      <point x="201" y="538" type="curve" smooth="yes"/>
      <point x="201" y="579"/>
      <point x="241" y="599"/>
      <point x="327" y="599" type="curve" smooth="yes"/>
      <point x="417" y="599"/>
      <point x="458" y="576"/>
      <point x="458" y="518" type="curve" smooth="yes"/>
      <point x="458" y="488"/>
      <point x="445" y="472"/>
      <point x="433" y="459" type="curve"/>
      <point x="555" y="396" type="line"/>
      <point x="575" y="414"/>
      <point x="614" y="456"/>
      <point x="614" y="538" type="curve" smooth="yes"/>
      <point x="614" y="651"/>
      <point x="549" y="724"/>
    </contour>
  </outline>
</glyph>
<glyph name="Ba-adlam" format="2">
  <advance width="830"/>
  <unicode hex="1E904"/>
  <anchor x="406" y="663" name="top"/>
  <outline>
    <contour>
      <point x="744" y="125" type="line"/>
      <point x="547" y="125" type="line" smooth="yes"/>
      <point x="507" y="125"/>
      <point x="498" y="141"/>
      <point x="498" y="183" type="curve" smooth="yes"/>
      <point x="498" y="240" type="line"/>
      <point x="697" y="253"/>
      <point x="785" y="349"/>
      <point x="785" y="501" type="curve" smooth="yes"/>
      <point x="785" y="654"/>
      <point x="692" y="724"/>
      <point x="532" y="724" type="curve" smooth="yes"/>
      <point x="434" y="724"/>
      <point x="367" y="707"/>
      <point x="347" y="694" type="curve"/>
      <point x="347" y="365" type="line"/>
      <point x="311" y="368"/>
      <point x="255" y="379"/>
      <point x="231" y="389" type="curve"/>
      <point x="231" y="714" type="line"/>
      <point x="80" y="714" type="line"/>
      <point x="80" y="0" type="line"/>
      <point x="231" y="0" type="line"/>
      <point x="231" y="259" type="line"/>
      <point x="254" y="251"/>
      <point x="308" y="242"/>
      <point x="347" y="240" type="curve"/>
      <point x="347" y="118" type="line" smooth="yes"/>
      <point x="347" y="32"/>
      <point x="365" y="0"/>
      <point x="460" y="0" type="curve" smooth="yes"/>
      <point x="744" y="0" type="line"/>
    </contour>
    <contour>
      <point x="532" y="599" type="curve" smooth="yes"/>
      <point x="581" y="599"/>
      <point x="629" y="571"/>
      <point x="629" y="490" type="curve" smooth="yes"/>
      <point x="629" y="411"/>
      <point x="593" y="372"/>
      <point x="498" y="365" type="curve"/>
      <point x="498" y="594" type="line"/>
      <point x="505" y="597"/>
      <point x="516" y="599"/>
    </contour>
  </outline>
</glyph>
<glyph name="Sinnyiiyhe-adlam" format="2">
  <advance width="933"/>
  <unicode hex="1E905"/>
  <anchor x="454" y="0" name="bottom"/>
  <anchor x="464" y="663" name="gemconsonanttop"/>
  <anchor x="454" y="663" name="top"/>
  <outline>
    <contour>
      <point x="702" y="531" type="curve" smooth="yes"/>
      <point x="702" y="212" type="line" smooth="yes"/>
      <point x="702" y="144"/>
      <point x="673" y="116"/>
      <point x="622" y="116" type="curve" smooth="yes"/>
      <point x="568" y="116"/>
      <point x="542" y="144"/>
      <point x="542" y="212" type="curve" smooth="yes"/>
      <point x="542" y="496" type="line"/>
      <point x="391" y="496" type="line"/>
      <point x="391" y="212" type="line" smooth="yes"/>
      <point x="391" y="144"/>
      <point x="358" y="116"/>
      <point x="305" y="116" type="curve" smooth="yes"/>
      <point x="255" y="116"/>
      <point x="231" y="144"/>
      <point x="231" y="212" type="curve" smooth="yes"/>
      <point x="231" y="714" type="line"/>
      <point x="80" y="714" type="line"/>
      <point x="80" y="212" type="line" smooth="yes"/>
      <point x="80" y="45"/>
      <point x="164" y="-10"/>
      <point x="291" y="-10" type="curve" smooth="yes"/>
      <point x="383" y="-10"/>
      <point x="444" y="28"/>
      <point x="464" y="65" type="curve"/>
      <point x="469" y="65" type="line"/>
      <point x="489" y="28"/>
      <point x="541" y="-10"/>
      <point x="627" y="-10" type="curve" smooth="yes"/>
      <point x="744" y="-10"/>
      <point x="853" y="45"/>
      <point x="853" y="212" type="curve" smooth="yes"/>
      <point x="853" y="596" type="line" smooth="yes"/>
      <point x="853" y="682"/>
      <point x="835" y="714"/>
      <point x="741" y="714" type="curve" smooth="yes"/>
      <point x="391" y="714" type="line"/>
      <point x="391" y="589" type="line"/>
      <point x="653" y="589" type="line" smooth="yes"/>
      <point x="693" y="589"/>
      <point x="702" y="573"/>
    </contour>
  </outline>
</glyph>
<glyph name="Pe-adlam" format="2">
  <advance width="630"/>
  <unicode hex="1E906"/>
  <anchor x="328" y="663" name="top"/>
  <outline>
    <contour>
      <point x="545" y="125" type="line"/>
      <point x="266" y="125" type="line" smooth="yes"/>
      <point x="239" y="125"/>
      <point x="231" y="136"/>
      <point x="231" y="160" type="curve" smooth="yes"/>
      <point x="231" y="589" type="line"/>
      <point x="239" y="593"/>
      <point x="258" y="599"/>
      <point x="288" y="599" type="curve" smooth="yes"/>
      <point x="357" y="599"/>
      <point x="419" y="550"/>
      <point x="419" y="435" type="curve" smooth="yes"/>
      <point x="419" y="340"/>
      <point x="369" y="293"/>
      <point x="334" y="260" type="curve"/>
      <point x="434" y="153" type="line"/>
      <point x="477" y="190"/>
      <point x="575" y="275"/>
      <point x="575" y="439" type="curve" smooth="yes"/>
      <point x="575" y="623"/>
      <point x="473" y="724"/>
      <point x="288" y="724" type="curve" smooth="yes"/>
      <point x="182" y="724"/>
      <point x="108" y="694"/>
      <point x="80" y="676" type="curve"/>
      <point x="80" y="48" type="line" smooth="yes"/>
      <point x="80" y="17"/>
      <point x="93" y="0"/>
      <point x="130" y="0" type="curve" smooth="yes"/>
      <point x="545" y="0" type="line"/>
    </contour>
  </outline>
</glyph>
<glyph name="Bhe-adlam" format="2">
  <advance width="698"/>
  <unicode hex="1E907"/>
  <anchor x="355" y="663" name="top"/>
  <outline>
    <contour>
      <point x="299" y="589" type="curve" smooth="yes"/>
      <point x="618" y="589" type="line"/>
      <point x="618" y="714" type="line"/>
      <point x="299" y="714" type="line" smooth="yes"/>
      <point x="126" y="714"/>
      <point x="50" y="656"/>
      <point x="50" y="527" type="curve" smooth="yes"/>
      <point x="50" y="419"/>
      <point x="99" y="379"/>
      <point x="163" y="321" type="curve" smooth="yes"/>
      <point x="240" y="252"/>
      <point x="258" y="229"/>
      <point x="258" y="181" type="curve" smooth="yes"/>
      <point x="258" y="134"/>
      <point x="234" y="125"/>
      <point x="189" y="125" type="curve" smooth="yes"/>
      <point x="55" y="125" type="line"/>
      <point x="55" y="0" type="line"/>
      <point x="235" y="0" type="line" smooth="yes"/>
      <point x="266" y="0"/>
      <point x="293" y="0"/>
      <point x="330" y="14" type="curve" smooth="yes"/>
      <point x="375" y="31"/>
      <point x="411" y="81"/>
      <point x="411" y="178" type="curve"/>
      <point x="419" y="198"/>
      <point x="446" y="226"/>
      <point x="462" y="233" type="curve"/>
      <point x="467" y="231" type="line"/>
      <point x="467" y="0" type="line"/>
      <point x="618" y="0" type="line"/>
      <point x="618" y="516" type="line"/>
      <point x="467" y="516" type="line"/>
      <point x="467" y="341" type="line"/>
      <point x="446" y="333"/>
      <point x="408" y="306"/>
      <point x="394" y="281" type="curve"/>
      <point x="389" y="281" type="line"/>
      <point x="380" y="310"/>
      <point x="348" y="350"/>
      <point x="290" y="402" type="curve" smooth="yes"/>
      <point x="236" y="450"/>
      <point x="206" y="477"/>
      <point x="206" y="529" type="curve" smooth="yes"/>
      <point x="206" y="570"/>
      <point x="237" y="589"/>
    </contour>
  </outline>
</glyph>
<glyph name="Ra-adlam" format="2">
  <advance width="711"/>
  <unicode hex="1E908"/>
  <anchor x="370" y="663" name="top"/>
  <outline>
    <contour>
      <point x="395" y="223" type="curve" smooth="yes"/>
      <point x="537" y="223"/>
      <point x="646" y="276"/>
      <point x="646" y="458" type="curve" smooth="yes"/>
      <point x="646" y="714" type="line"/>
      <point x="495" y="714" type="line"/>
      <point x="495" y="458" type="line" smooth="yes"/>
      <point x="495" y="381"/>
      <point x="461" y="348"/>
      <point x="372" y="348" type="curve" smooth="yes"/>
      <point x="286" y="348"/>
      <point x="247" y="390"/>
      <point x="231" y="413" type="curve"/>
      <point x="231" y="714" type="line"/>
      <point x="80" y="714" type="line"/>
      <point x="80" y="118" type="line" smooth="yes"/>
      <point x="80" y="32"/>
      <point x="98" y="0"/>
      <point x="192" y="0" type="curve" smooth="yes"/>
      <point x="646" y="0" type="line"/>
      <point x="646" y="125" type="line"/>
      <point x="280" y="125" type="line" smooth="yes"/>
      <point x="240" y="125"/>
      <point x="231" y="141"/>
      <point x="231" y="183" type="curve" smooth="yes"/>
      <point x="231" y="263" type="line"/>
      <point x="236" y="266" type="line"/>
      <point x="250" y="253"/>
      <point x="293" y="223"/>
    </contour>
  </outline>
</glyph>
<glyph name="E-adlam" format="2">
  <advance width="764"/>
  <unicode hex="1E909"/>
  <anchor x="388" y="0" name="bottom"/>
  <anchor x="388" y="666" name="top"/>
  <anchor x="409" y="602" name="vowellengthencomb-adlam.case"/>
  <outline>
    <contour>
      <point x="513" y="0" type="line" smooth="yes"/>
      <point x="602" y="0"/>
      <point x="714" y="26"/>
      <point x="714" y="155" type="curve" smooth="yes"/>
      <point x="714" y="269"/>
      <point x="632" y="314"/>
      <point x="543" y="324" type="curve"/>
      <point x="543" y="329" type="line"/>
      <point x="599" y="364"/>
      <point x="672" y="421"/>
      <point x="672" y="527" type="curve" smooth="yes"/>
      <point x="672" y="657"/>
      <point x="595" y="724"/>
      <point x="388" y="724" type="curve" smooth="yes"/>
      <point x="116" y="724"/>
      <point x="80" y="589"/>
      <point x="80" y="449" type="curve" smooth="yes"/>
      <point x="80" y="0" type="line"/>
      <point x="231" y="0" type="line"/>
      <point x="231" y="45" type="line"/>
      <point x="236" y="77"/>
      <point x="251" y="104"/>
      <point x="271" y="122" type="curve"/>
      <point x="276" y="122" type="line"/>
      <point x="280" y="42"/>
      <point x="329" y="0"/>
      <point x="437" y="0" type="curve" smooth="yes"/>
    </contour>
    <contour>
      <point x="288" y="242" type="curve"/>
      <point x="273" y="233"/>
      <point x="246" y="205"/>
      <point x="236" y="184" type="curve"/>
      <point x="231" y="184" type="line"/>
      <point x="231" y="449" type="line" smooth="yes"/>
      <point x="231" y="541"/>
      <point x="246" y="599"/>
      <point x="390" y="599" type="curve" smooth="yes"/>
      <point x="486" y="599"/>
      <point x="516" y="560"/>
      <point x="516" y="508" type="curve" smooth="yes"/>
      <point x="516" y="455"/>
      <point x="499" y="431"/>
      <point x="417" y="376" type="curve" smooth="yes"/>
      <point x="328" y="318"/>
      <point x="302" y="277"/>
    </contour>
    <contour>
      <point x="492" y="107" type="curve" smooth="yes"/>
      <point x="451" y="107" type="line" smooth="yes"/>
      <point x="411" y="107"/>
      <point x="392" y="131"/>
      <point x="392" y="169" type="curve" smooth="yes"/>
      <point x="392" y="213"/>
      <point x="419" y="242"/>
      <point x="441" y="257" type="curve"/>
      <point x="444" y="258"/>
      <point x="450" y="259"/>
      <point x="460" y="259" type="curve" smooth="yes"/>
      <point x="521" y="259"/>
      <point x="558" y="215"/>
      <point x="558" y="167" type="curve" smooth="yes"/>
      <point x="558" y="115"/>
      <point x="525" y="107"/>
    </contour>
  </outline>
</glyph>
<glyph name="Fa-adlam" format="2">
  <advance width="679"/>
  <unicode hex="1E90A"/>
  <anchor x="354" y="663" name="top"/>
  <outline>
    <contour>
      <point x="80" y="0" type="line"/>
      <point x="231" y="0" type="line"/>
      <point x="231" y="265" type="line" smooth="yes"/>
      <point x="231" y="304"/>
      <point x="289" y="366"/>
      <point x="364" y="366" type="curve" smooth="yes"/>
      <point x="435" y="366"/>
      <point x="463" y="326"/>
      <point x="463" y="242" type="curve" smooth="yes"/>
      <point x="463" y="-104" type="line"/>
      <point x="614" y="-104" type="line"/>
      <point x="614" y="281" type="line" smooth="yes"/>
      <point x="614" y="426"/>
      <point x="544" y="491"/>
      <point x="413" y="491" type="curve" smooth="yes"/>
      <point x="304" y="491"/>
      <point x="258" y="450"/>
      <point x="236" y="425" type="curve"/>
      <point x="231" y="426" type="line"/>
      <point x="231" y="531" type="line" smooth="yes"/>
      <point x="231" y="573"/>
      <point x="240" y="589"/>
      <point x="280" y="589" type="curve" smooth="yes"/>
      <point x="592" y="589" type="line"/>
      <point x="592" y="714" type="line"/>
      <point x="192" y="714" type="line" smooth="yes"/>
      <point x="98" y="714"/>
      <point x="80" y="682"/>
      <point x="80" y="596" type="curve" smooth="yes"/>
    </contour>
  </outline>
</glyph>
<glyph name="I-adlam" format="2">
  <advance width="815"/>
  <unicode hex="1E90B"/>
  <anchor x="460" y="557" name="vowellengthencomb-adlam.case"/>
  <outline>
    <contour>
      <point x="735" y="714" type="line"/>
      <point x="584" y="714" type="line"/>
      <point x="584" y="282" type="line" smooth="yes"/>
      <point x="584" y="160"/>
      <point x="542" y="115"/>
      <point x="413" y="115" type="curve" smooth="yes"/>
      <point x="284" y="115"/>
      <point x="231" y="160"/>
      <point x="231" y="282" type="curve" smooth="yes"/>
      <point x="231" y="714" type="line"/>
      <point x="80" y="714" type="line"/>
      <point x="80" y="253" type="line" smooth="yes"/>
      <point x="80" y="57"/>
      <point x="183" y="-10"/>
      <point x="407" y="-10" type="curve" smooth="yes"/>
      <point x="632" y="-10"/>
      <point x="735" y="57"/>
      <point x="735" y="253" type="curve" smooth="yes"/>
    </contour>
  </outline>
</glyph>
<glyph name="O-adlam" format="2">
  <advance width="726"/>
  <unicode hex="1E90C"/>
  <anchor x="364" y="0" name="bottom"/>
  <anchor x="379" y="663" name="top"/>
  <anchor x="414" y="587" name="vowellengthencomb-adlam.case"/>
  <outline>
    <contour>
      <point x="530" y="434" type="curve"/>
      <point x="676" y="472" type="line"/>
      <point x="655" y="594"/>
      <point x="596" y="724"/>
      <point x="374" y="724" type="curve" smooth="yes"/>
      <point x="182" y="724"/>
      <point x="50" y="604"/>
      <point x="50" y="348" type="curve" smooth="yes"/>
      <point x="50" y="65"/>
      <point x="217" y="0"/>
      <point x="423" y="0" type="curve" smooth="yes"/>
      <point x="671" y="0" type="line"/>
      <point x="671" y="125" type="line"/>
      <point x="423" y="125" type="line" smooth="yes"/>
      <point x="321" y="125"/>
      <point x="206" y="159"/>
      <point x="206" y="362" type="curve" smooth="yes"/>
      <point x="206" y="525"/>
      <point x="274" y="599"/>
      <point x="374" y="599" type="curve" smooth="yes"/>
      <point x="479" y="599"/>
      <point x="511" y="511"/>
    </contour>
  </outline>
</glyph>
<glyph name="Dha-adlam" format="2">
  <advance width="744"/>
  <unicode hex="1E90D"/>
  <anchor x="372" y="663" name="top"/>
  <outline>
    <contour>
      <point x="664" y="0" type="line"/>
      <point x="664" y="605" type="line" smooth="yes"/>
      <point x="664" y="683"/>
      <point x="646" y="714"/>
      <point x="562" y="714" type="curve" smooth="yes"/>
      <point x="324" y="714" type="line"/>
      <point x="324" y="589" type="line"/>
      <point x="464" y="589" type="line" smooth="yes"/>
      <point x="504" y="589"/>
      <point x="513" y="573"/>
      <point x="513" y="530" type="curve" smooth="yes"/>
      <point x="513" y="431" type="line"/>
      <point x="508" y="429" type="line"/>
      <point x="495" y="450"/>
      <point x="458" y="491"/>
      <point x="372" y="491" type="curve" smooth="yes"/>
      <point x="289" y="491"/>
      <point x="254" y="457"/>
      <point x="236" y="436" type="curve"/>
      <point x="231" y="437" type="line"/>
      <point x="231" y="714" type="line"/>
      <point x="80" y="714" type="line"/>
      <point x="80" y="260" type="line" smooth="yes"/>
      <point x="80" y="71"/>
      <point x="170" y="-10"/>
      <point x="313" y="-10" type="curve" smooth="yes"/>
      <point x="441" y="-10"/>
      <point x="490" y="41"/>
      <point x="508" y="67" type="curve"/>
      <point x="513" y="66" type="line"/>
      <point x="513" y="0" type="line"/>
    </contour>
    <contour>
      <point x="513" y="272" type="curve"/>
      <point x="513" y="195" type="line"/>
      <point x="499" y="166"/>
      <point x="456" y="115"/>
      <point x="372" y="115" type="curve" smooth="yes"/>
      <point x="286" y="115"/>
      <point x="231" y="163"/>
      <point x="231" y="260" type="curve" smooth="yes"/>
      <point x="231" y="288" type="line"/>
      <point x="251" y="322"/>
      <point x="292" y="366"/>
      <point x="377" y="366" type="curve" smooth="yes"/>
      <point x="468" y="366"/>
      <point x="505" y="321"/>
    </contour>
  </outline>
</glyph>
<glyph name="Yhe-adlam" format="2">
  <advance width="658"/>
  <unicode hex="1E90E"/>
  <anchor x="339" y="666" name="top"/>
  <outline>
    <contour>
      <point x="603" y="125" type="line"/>
      <point x="370" y="125" type="line" smooth="yes"/>
      <point x="255" y="125"/>
      <point x="206" y="173"/>
      <point x="206" y="268" type="curve" smooth="yes"/>
      <point x="206" y="358"/>
      <point x="247" y="413"/>
      <point x="350" y="413" type="curve" smooth="yes"/>
      <point x="603" y="413" type="line"/>
      <point x="603" y="538" type="line"/>
      <point x="533" y="580"/>
      <point x="366" y="703"/>
      <point x="326" y="745" type="curve"/>
      <point x="243" y="651" type="line"/>
      <point x="279" y="614"/>
      <point x="354" y="562"/>
      <point x="390" y="543" type="curve"/>
      <point x="388" y="538" type="line"/>
      <point x="350" y="538" type="line" smooth="yes"/>
      <point x="136" y="538"/>
      <point x="50" y="437"/>
      <point x="50" y="268" type="curve" smooth="yes"/>
      <point x="50" y="84"/>
      <point x="141" y="0"/>
      <point x="370" y="0" type="curve" smooth="yes"/>
      <point x="603" y="0" type="line"/>
    </contour>
  </outline>
</glyph>
<glyph name="Waw-adlam" format="2">
  <advance width="689"/>
  <unicode hex="1E90F"/>
  <anchor x="356" y="663" name="top"/>
  <outline>
    <contour>
      <point x="609" y="0" type="line"/>
      <point x="609" y="714" type="line"/>
      <point x="198" y="714" type="line" smooth="yes"/>
      <point x="98" y="714"/>
      <point x="80" y="682"/>
      <point x="80" y="596" type="curve" smooth="yes"/>
      <point x="80" y="0" type="line"/>
      <point x="231" y="0" type="line"/>
      <point x="231" y="275" type="line"/>
      <point x="260" y="275" type="line" smooth="yes"/>
      <point x="317" y="275"/>
      <point x="334" y="261"/>
      <point x="345" y="250" type="curve"/>
      <point x="412" y="361" type="line"/>
      <point x="401" y="374"/>
      <point x="378" y="400"/>
      <point x="305" y="400" type="curve" smooth="yes"/>
      <point x="231" y="400" type="line"/>
      <point x="231" y="531" type="line" smooth="yes"/>
      <point x="231" y="573"/>
      <point x="240" y="589"/>
      <point x="280" y="589" type="curve" smooth="yes"/>
      <point x="458" y="589" type="line"/>
      <point x="458" y="0" type="line"/>
    </contour>
  </outline>
</glyph>
<glyph name="Nun-adlam" format="2">
  <advance width="692"/>
  <unicode hex="1E910"/>
  <anchor x="359" y="663" name="top"/>
  <outline>
    <contour>
      <point x="374" y="125" type="line"/>
      <point x="326" y="125" type="line" smooth="yes"/>
      <point x="254" y="125"/>
      <point x="201" y="144"/>
      <point x="201" y="208" type="curve" smooth="yes"/>
      <point x="201" y="268"/>
      <point x="259" y="290"/>
      <point x="390" y="332" type="curve" smooth="yes"/>
      <point x="532" y="377"/>
      <point x="617" y="405"/>
      <point x="617" y="538" type="curve" smooth="yes"/>
      <point x="617" y="662"/>
      <point x="547" y="714"/>
      <point x="393" y="714" type="curve" smooth="yes"/>
      <point x="330" y="714" type="line" smooth="yes"/>
      <point x="153" y="714"/>
      <point x="100" y="645"/>
      <point x="84" y="617" type="curve"/>
      <point x="201" y="531" type="line"/>
      <point x="216" y="558"/>
      <point x="254" y="589"/>
      <point x="330" y="589" type="curve" smooth="yes"/>
      <point x="391" y="589" type="line" smooth="yes"/>
      <point x="434" y="589"/>
      <point x="461" y="578"/>
      <point x="461" y="538" type="curve" smooth="yes"/>
      <point x="461" y="495"/>
      <point x="437" y="484"/>
      <point x="286" y="436" type="curve" smooth="yes"/>
      <point x="134" y="388"/>
      <point x="45" y="347"/>
      <point x="45" y="201" type="curve" smooth="yes"/>
      <point x="45" y="41"/>
      <point x="147" y="0"/>
      <point x="294" y="0" type="curve" smooth="yes"/>
      <point x="374" y="0" type="line"/>
    </contour>
    <contour>
      <point x="443" y="111" type="line" smooth="yes"/>
      <point x="443" y="35"/>
      <point x="474" y="-4"/>
      <point x="490" y="-15" type="curve"/>
      <point x="622" y="58" type="line"/>
      <point x="608" y="72"/>
      <point x="594" y="92"/>
      <point x="594" y="149" type="curve" smooth="yes"/>
      <point x="594" y="308" type="line"/>
      <point x="443" y="308" type="line"/>
    </contour>
  </outline>
</glyph>
<glyph name="Kaf-adlam" format="2">
  <advance width="784"/>
  <unicode hex="1E911"/>
  <anchor x="353" y="663" name="top"/>
  <outline>
    <contour>
      <point x="592" y="714" type="curve" smooth="yes"/>
      <point x="20" y="714" type="line"/>
      <point x="20" y="589" type="line"/>
      <point x="503" y="589" type="line" smooth="yes"/>
      <point x="544" y="589"/>
      <point x="553" y="573"/>
      <point x="553" y="530" type="curve" smooth="yes"/>
      <point x="553" y="411" type="line"/>
      <point x="414" y="411" type="line"/>
      <point x="414" y="522" type="line"/>
      <point x="263" y="522" type="line"/>
      <point x="263" y="411" type="line"/>
      <point x="112" y="411" type="line"/>
      <point x="112" y="286" type="line"/>
      <point x="263" y="286" type="line"/>
      <point x="263" y="183" type="line" smooth="yes"/>
      <point x="263" y="141"/>
      <point x="254" y="125"/>
      <point x="213" y="125" type="curve" smooth="yes"/>
      <point x="20" y="125" type="line"/>
      <point x="20" y="0" type="line"/>
      <point x="302" y="0" type="line" smooth="yes"/>
      <point x="396" y="0"/>
      <point x="414" y="32"/>
      <point x="414" y="118" type="curve" smooth="yes"/>
      <point x="414" y="286" type="line"/>
      <point x="553" y="286" type="line"/>
      <point x="553" y="0" type="line"/>
      <point x="704" y="0" type="line"/>
      <point x="704" y="597" type="line" smooth="yes"/>
      <point x="704" y="683"/>
      <point x="686" y="714"/>
    </contour>
  </outline>
</glyph>
<glyph name="Ya-adlam" format="2">
  <advance width="567"/>
  <unicode hex="1E912"/>
  <anchor x="261" y="663" name="top"/>
  <outline>
    <contour>
      <point x="522" y="199" type="curve" smooth="yes"/>
      <point x="522" y="340"/>
      <point x="441" y="378"/>
      <point x="400" y="388" type="curve"/>
      <point x="400" y="394" type="line"/>
      <point x="441" y="412"/>
      <point x="505" y="456"/>
      <point x="505" y="553" type="curve" smooth="yes"/>
      <point x="505" y="671"/>
      <point x="427" y="714"/>
      <point x="300" y="714" type="curve" smooth="yes"/>
      <point x="222" y="714" type="line" smooth="yes"/>
      <point x="82" y="714"/>
      <point x="34" y="649"/>
      <point x="20" y="622" type="curve"/>
      <point x="111" y="546" type="line"/>
      <point x="123" y="568"/>
      <point x="143" y="589"/>
      <point x="217" y="589" type="curve" smooth="yes"/>
      <point x="261" y="589" type="line" smooth="yes"/>
      <point x="328" y="589"/>
      <point x="349" y="569"/>
      <point x="349" y="533" type="curve" smooth="yes"/>
      <point x="349" y="492"/>
      <point x="308" y="478"/>
      <point x="185" y="442" type="curve" smooth="yes"/>
      <point x="89" y="414" type="line"/>
      <point x="123" y="298" type="line"/>
      <point x="162" y="311"/>
      <point x="249" y="337"/>
      <point x="267" y="337" type="curve" smooth="yes"/>
      <point x="328" y="337"/>
      <point x="366" y="271"/>
      <point x="366" y="207" type="curve" smooth="yes"/>
      <point x="366" y="155"/>
      <point x="343" y="125"/>
      <point x="252" y="125" type="curve" smooth="yes"/>
      <point x="37" y="125" type="line"/>
      <point x="37" y="0" type="line"/>
      <point x="253" y="0" type="line" smooth="yes"/>
      <point x="428" y="0"/>
      <point x="522" y="42"/>
    </contour>
  </outline>
</glyph>
<glyph name="U-adlam" format="2">
  <advance width="858"/>
  <unicode hex="1E913"/>
  <anchor x="469" y="578" name="vowellengthencomb-adlam.case"/>
  <outline>
    <contour>
      <point x="670" y="719" type="curve" smooth="yes"/>
      <point x="595" y="719"/>
      <point x="574" y="723"/>
      <point x="556" y="728" type="curve"/>
      <point x="545" y="603" type="line"/>
      <point x="555" y="599"/>
      <point x="574" y="595"/>
      <point x="598" y="594" type="curve" smooth="yes"/>
      <point x="620" y="593"/>
      <point x="627" y="589"/>
      <point x="627" y="567" type="curve" smooth="yes"/>
      <point x="627" y="546" type="line" smooth="yes"/>
      <point x="627" y="512"/>
      <point x="617" y="506"/>
      <point x="566" y="471" type="curve" smooth="yes"/>
      <point x="545" y="457"/>
      <point x="535" y="450"/>
      <point x="522" y="438" type="curve"/>
      <point x="517" y="439" type="line"/>
      <point x="518" y="447"/>
      <point x="519" y="458"/>
      <point x="519" y="473" type="curve" smooth="yes"/>
      <point x="519" y="642"/>
      <point x="436" y="724"/>
      <point x="286" y="724" type="curve" smooth="yes"/>
      <point x="147" y="724"/>
      <point x="94" y="658"/>
      <point x="80" y="625" type="curve"/>
      <point x="80" y="218" type="line" smooth="yes"/>
      <point x="80" y="84"/>
      <point x="149" y="-10"/>
      <point x="429" y="-10" type="curve" smooth="yes"/>
      <point x="704" y="-10"/>
      <point x="778" y="84"/>
      <point x="778" y="218" type="curve" smooth="yes"/>
      <point x="778" y="610" type="line" smooth="yes"/>
      <point x="778" y="700"/>
      <point x="733" y="719"/>
    </contour>
    <contour>
      <point x="429" y="115" type="curve" smooth="yes"/>
      <point x="266" y="115"/>
      <point x="231" y="171"/>
      <point x="231" y="282" type="curve" smooth="yes"/>
      <point x="231" y="578" type="line"/>
      <point x="239" y="588"/>
      <point x="255" y="599"/>
      <point x="282" y="599" type="curve" smooth="yes"/>
      <point x="320" y="599"/>
      <point x="368" y="571"/>
      <point x="368" y="458" type="curve" smooth="yes"/>
      <point x="368" y="345"/>
      <point x="323" y="276"/>
      <point x="292" y="243" type="curve"/>
      <point x="409" y="151" type="line"/>
      <point x="432" y="172"/>
      <point x="473" y="229"/>
      <point x="492" y="279" type="curve" smooth="yes"/>
      <point x="509" y="325"/>
      <point x="520" y="331"/>
      <point x="567" y="364" type="curve" smooth="yes"/>
      <point x="594" y="382"/>
      <point x="608" y="392"/>
      <point x="622" y="404" type="curve"/>
      <point x="627" y="403" type="line"/>
      <point x="627" y="282" type="line" smooth="yes"/>
      <point x="627" y="171"/>
      <point x="603" y="115"/>
    </contour>
  </outline>
</glyph>
<glyph name="Jiim-adlam" format="2">
  <advance width="922"/>
  <unicode hex="1E914"/>
  <anchor x="438" y="0" name="bottom"/>
  <anchor x="484" y="665" name="gemconsonanttop"/>
  <anchor x="493" y="665" name="top"/>
  <outline>
    <contour>
      <point x="654" y="688" type="curve" smooth="yes"/>
      <point x="562" y="688"/>
      <point x="516" y="649"/>
      <point x="507" y="637" type="curve"/>
      <point x="502" y="637" type="line"/>
      <point x="492" y="658"/>
      <point x="440" y="724"/>
      <point x="305" y="724" type="curve" smooth="yes"/>
      <point x="119" y="724"/>
      <point x="65" y="630"/>
      <point x="65" y="494" type="curve" smooth="yes"/>
      <point x="65" y="270" type="line"/>
      <point x="216" y="270" type="line"/>
      <point x="216" y="484" type="line" smooth="yes"/>
      <point x="216" y="578"/>
      <point x="248" y="599"/>
      <point x="295" y="599" type="curve" smooth="yes"/>
      <point x="342" y="599"/>
      <point x="373" y="578"/>
      <point x="373" y="484" type="curve" smooth="yes"/>
      <point x="373" y="193" type="line" smooth="yes"/>
      <point x="373" y="146"/>
      <point x="352" y="125"/>
      <point x="287" y="125" type="curve" smooth="yes"/>
      <point x="65" y="125" type="line"/>
      <point x="65" y="0" type="line"/>
      <point x="348" y="0" type="line" smooth="yes"/>
      <point x="488" y="0"/>
      <point x="524" y="42"/>
      <point x="524" y="146" type="curve" smooth="yes"/>
      <point x="524" y="445" type="line" smooth="yes"/>
      <point x="524" y="532"/>
      <point x="558" y="563"/>
      <point x="608" y="563" type="curve" smooth="yes"/>
      <point x="661" y="563"/>
      <point x="691" y="532"/>
      <point x="691" y="445" type="curve" smooth="yes"/>
      <point x="691" y="138" type="line" smooth="yes"/>
      <point x="691" y="80"/>
      <point x="673" y="33"/>
      <point x="653" y="15" type="curve"/>
      <point x="781" y="-52" type="line"/>
      <point x="833" y="-6"/>
      <point x="842" y="51"/>
      <point x="842" y="138" type="curve" smooth="yes"/>
      <point x="842" y="477" type="line" smooth="yes"/>
      <point x="842" y="615"/>
      <point x="785" y="688"/>
    </contour>
  </outline>
</glyph>
<glyph name="Chi-adlam" format="2">
  <advance width="750"/>
  <unicode hex="1E915"/>
  <anchor x="382" y="663" name="top"/>
  <outline>
    <contour>
      <point x="558" y="714" type="curve" smooth="yes"/>
      <point x="336" y="714" type="line"/>
      <point x="336" y="589" type="line"/>
      <point x="470" y="589" type="line" smooth="yes"/>
      <point x="510" y="589"/>
      <point x="519" y="573"/>
      <point x="519" y="533" type="curve" smooth="yes"/>
      <point x="519" y="438" type="line"/>
      <point x="515" y="436" type="line"/>
      <point x="494" y="454"/>
      <point x="471" y="471"/>
      <point x="367" y="483" type="curve" smooth="yes"/>
      <point x="264" y="495"/>
      <point x="239" y="517"/>
      <point x="239" y="638" type="curve" smooth="yes"/>
      <point x="239" y="743" type="line"/>
      <point x="88" y="743" type="line"/>
      <point x="88" y="616" type="line" smooth="yes"/>
      <point x="88" y="469"/>
      <point x="145" y="428"/>
      <point x="229" y="417" type="curve"/>
      <point x="229" y="411" type="line"/>
      <point x="148" y="392"/>
      <point x="70" y="330"/>
      <point x="70" y="213" type="curve" smooth="yes"/>
      <point x="70" y="52"/>
      <point x="160" y="0"/>
      <point x="359" y="0" type="curve" smooth="yes"/>
      <point x="448" y="0" type="line"/>
      <point x="448" y="125" type="line"/>
      <point x="359" y="125" type="line" smooth="yes"/>
      <point x="263" y="125"/>
      <point x="225" y="156"/>
      <point x="225" y="231" type="curve" smooth="yes"/>
      <point x="225" y="300"/>
      <point x="270" y="354"/>
      <point x="376" y="354" type="curve" smooth="yes"/>
      <point x="463" y="354"/>
      <point x="501" y="314"/>
      <point x="519" y="291" type="curve"/>
      <point x="519" y="0" type="line"/>
      <point x="670" y="0" type="line"/>
      <point x="670" y="597" type="line" smooth="yes"/>
      <point x="670" y="683"/>
      <point x="652" y="714"/>
    </contour>
  </outline>
</glyph>
<glyph name="Ha-adlam" format="2">
  <advance width="660"/>
  <unicode hex="1E916"/>
  <anchor x="332" y="663" name="gemconsonanttop"/>
  <anchor x="336" y="663" name="top"/>
  <outline>
    <contour>
      <point x="313" y="531" type="curve" smooth="yes"/>
      <point x="267" y="531" type="line" smooth="yes"/>
      <point x="226" y="531"/>
      <point x="217" y="547"/>
      <point x="217" y="589" type="curve" smooth="yes"/>
      <point x="217" y="714" type="line"/>
      <point x="66" y="714" type="line"/>
      <point x="66" y="524" type="line" smooth="yes"/>
      <point x="66" y="438"/>
      <point x="84" y="406"/>
      <point x="179" y="406" type="curve" smooth="yes"/>
      <point x="267" y="406" type="line" smooth="yes"/>
      <point x="378" y="406"/>
      <point x="454" y="368"/>
      <point x="454" y="260" type="curve" smooth="yes"/>
      <point x="454" y="172"/>
      <point x="409" y="125"/>
      <point x="277" y="125" type="curve" smooth="yes"/>
      <point x="65" y="125" type="line"/>
      <point x="65" y="0" type="line"/>
      <point x="293" y="0" type="line" smooth="yes"/>
      <point x="508" y="0"/>
      <point x="610" y="72"/>
      <point x="610" y="265" type="curve" smooth="yes"/>
      <point x="610" y="463"/>
      <point x="508" y="531"/>
    </contour>
  </outline>
</glyph>
<glyph name="Qaaf-adlam" format="2">
  <advance width="827"/>
  <unicode hex="1E917"/>
  <anchor x="443" y="666" name="top"/>
  <outline>
    <contour>
      <point x="56" y="125" type="line"/>
      <point x="56" y="0" type="line"/>
      <point x="373" y="0" type="line" smooth="yes"/>
      <point x="467" y="0"/>
      <point x="485" y="32"/>
      <point x="485" y="118" type="curve" smooth="yes"/>
      <point x="485" y="257" type="line"/>
      <point x="516" y="258"/>
      <point x="578" y="269"/>
      <point x="596" y="276" type="curve"/>
      <point x="596" y="0" type="line"/>
      <point x="747" y="0" type="line"/>
      <point x="747" y="714" type="line"/>
      <point x="596" y="714" type="line"/>
      <point x="596" y="403" type="line"/>
      <point x="575" y="393"/>
      <point x="515" y="383"/>
      <point x="485" y="382" type="curve"/>
      <point x="485" y="535" type="line" smooth="yes"/>
      <point x="485" y="658"/>
      <point x="432" y="724"/>
      <point x="292" y="724" type="curve" smooth="yes"/>
      <point x="154" y="724"/>
      <point x="45" y="649"/>
      <point x="45" y="501" type="curve" smooth="yes"/>
      <point x="45" y="348"/>
      <point x="131" y="262"/>
      <point x="334" y="252" type="curve"/>
      <point x="334" y="183" type="line" smooth="yes"/>
      <point x="334" y="141"/>
      <point x="325" y="125"/>
      <point x="285" y="125" type="curve" smooth="yes"/>
    </contour>
    <contour>
      <point x="334" y="530" type="curve" smooth="yes"/>
      <point x="334" y="377" type="line"/>
      <point x="267" y="382"/>
      <point x="201" y="419"/>
      <point x="201" y="500" type="curve" smooth="yes"/>
      <point x="201" y="566"/>
      <point x="243" y="599"/>
      <point x="285" y="599" type="curve" smooth="yes"/>
      <point x="320" y="599"/>
      <point x="334" y="582"/>
    </contour>
  </outline>
</glyph>
<glyph name="Ga-adlam" format="2">
  <advance width="659"/>
  <unicode hex="1E918"/>
  <anchor x="340" y="663" name="gemconsonanttop"/>
  <anchor x="327" y="663" name="top"/>
  <outline>
    <contour>
      <point x="475" y="391" type="curve"/>
      <point x="475" y="396" type="line"/>
      <point x="525" y="409"/>
      <point x="595" y="457"/>
      <point x="595" y="556" type="curve" smooth="yes"/>
      <point x="595" y="675"/>
      <point x="530" y="714"/>
      <point x="378" y="714" type="curve" smooth="yes"/>
      <point x="318" y="714" type="line"/>
      <point x="318" y="589" type="line"/>
      <point x="362" y="589" type="line" smooth="yes"/>
      <point x="422" y="589"/>
      <point x="439" y="563"/>
      <point x="439" y="521" type="curve" smooth="yes"/>
      <point x="439" y="477"/>
      <point x="412" y="434"/>
      <point x="289" y="434" type="curve" smooth="yes"/>
      <point x="218" y="434"/>
      <point x="216" y="450"/>
      <point x="216" y="498" type="curve" smooth="yes"/>
      <point x="215" y="714" type="line"/>
      <point x="64" y="714" type="line"/>
      <point x="64" y="448" type="line" smooth="yes"/>
      <point x="64" y="323"/>
      <point x="70" y="309"/>
      <point x="251" y="309" type="curve" smooth="yes"/>
      <point x="418" y="309"/>
      <point x="448" y="277"/>
      <point x="448" y="211" type="curve" smooth="yes"/>
      <point x="448" y="155"/>
      <point x="425" y="125"/>
      <point x="357" y="125" type="curve" smooth="yes"/>
      <point x="55" y="125" type="line"/>
      <point x="55" y="0" type="line"/>
      <point x="362" y="0" type="line" smooth="yes"/>
      <point x="543" y="0"/>
      <point x="604" y="52"/>
      <point x="604" y="202" type="curve" smooth="yes"/>
      <point x="604" y="323"/>
      <point x="530" y="376"/>
    </contour>
  </outline>
</glyph>
<glyph name="Nya-adlam" format="2">
  <advance width="713"/>
  <unicode hex="1E919"/>
  <anchor x="374" y="663" name="top"/>
  <outline>
    <contour>
      <point x="395" y="448" type="curve" smooth="yes"/>
      <point x="249" y="483"/>
      <point x="229" y="490"/>
      <point x="229" y="534" type="curve" smooth="yes"/>
      <point x="229" y="570"/>
      <point x="255" y="589"/>
      <point x="333" y="589" type="curve" smooth="yes"/>
      <point x="429" y="589" type="line" smooth="yes"/>
      <point x="517" y="589"/>
      <point x="544" y="563"/>
      <point x="558" y="543" type="curve"/>
      <point x="652" y="639" type="line"/>
      <point x="624" y="679"/>
      <point x="583" y="714"/>
      <point x="429" y="714" type="curve" smooth="yes"/>
      <point x="333" y="714" type="line" smooth="yes"/>
      <point x="165" y="714"/>
      <point x="73" y="656"/>
      <point x="73" y="525" type="curve" smooth="yes"/>
      <point x="73" y="432"/>
      <point x="129" y="388"/>
      <point x="179" y="365" type="curve"/>
      <point x="179" y="359" type="line"/>
      <point x="119" y="337"/>
      <point x="45" y="283"/>
      <point x="45" y="181" type="curve" smooth="yes"/>
      <point x="45" y="43"/>
      <point x="140" y="0"/>
      <point x="296" y="0" type="curve" smooth="yes"/>
      <point x="453" y="0" type="line"/>
      <point x="453" y="125" type="line"/>
      <point x="304" y="125" type="line" smooth="yes"/>
      <point x="225" y="125"/>
      <point x="201" y="150"/>
      <point x="201" y="199" type="curve" smooth="yes"/>
      <point x="201" y="260"/>
      <point x="252" y="307"/>
      <point x="320" y="325" type="curve"/>
      <point x="482" y="289"/>
      <point x="517" y="271"/>
      <point x="517" y="163" type="curve" smooth="yes"/>
      <point x="517" y="-52" type="line"/>
      <point x="668" y="-52" type="line"/>
      <point x="668" y="209" type="line" smooth="yes"/>
      <point x="668" y="373"/>
      <point x="576" y="405"/>
    </contour>
  </outline>
</glyph>
<glyph name="Tu-adlam" format="2">
  <advance width="953"/>
  <unicode hex="1E91A"/>
  <anchor x="457" y="666" name="gemconsonanttop"/>
  <anchor x="471" y="666" name="top"/>
  <outline>
    <contour>
      <point x="868" y="125" type="line"/>
      <point x="594" y="125" type="line" smooth="yes"/>
      <point x="562" y="125"/>
      <point x="553" y="136"/>
      <point x="553" y="168" type="curve" smooth="yes"/>
      <point x="553" y="569" type="line"/>
      <point x="564" y="579"/>
      <point x="591" y="599"/>
      <point x="637" y="599" type="curve" smooth="yes"/>
      <point x="685" y="599"/>
      <point x="732" y="566"/>
      <point x="732" y="461" type="curve" smooth="yes"/>
      <point x="732" y="354"/>
      <point x="695" y="298"/>
      <point x="652" y="245" type="curve"/>
      <point x="773" y="162" type="line"/>
      <point x="829" y="227"/>
      <point x="883" y="308"/>
      <point x="883" y="473" type="curve" smooth="yes"/>
      <point x="883" y="656"/>
      <point x="801" y="724"/>
      <point x="655" y="724" type="curve" smooth="yes"/>
      <point x="549" y="724"/>
      <point x="481" y="681"/>
      <point x="458" y="659" type="curve"/>
      <point x="451" y="659" type="line"/>
      <point x="435" y="679"/>
      <point x="394" y="724"/>
      <point x="288" y="724" type="curve" smooth="yes"/>
      <point x="148" y="724"/>
      <point x="100" y="656"/>
      <point x="80" y="620" type="curve"/>
      <point x="80" y="0" type="line"/>
      <point x="231" y="0" type="line"/>
      <point x="231" y="573" type="line"/>
      <point x="241" y="585"/>
      <point x="263" y="599"/>
      <point x="310" y="599" type="curve" smooth="yes"/>
      <point x="368" y="599"/>
      <point x="393" y="568"/>
      <point x="402" y="553" type="curve"/>
      <point x="402" y="54" type="line" smooth="yes"/>
      <point x="402" y="17"/>
      <point x="416" y="0"/>
      <point x="462" y="0" type="curve" smooth="yes"/>
      <point x="868" y="0" type="line"/>
    </contour>
  </outline>
</glyph>
<glyph name="Nha-adlam" format="2">
  <advance width="778"/>
  <unicode hex="1E91B"/>
  <anchor x="424" y="663" name="top"/>
  <outline>
    <contour>
      <point x="713" y="125" type="line"/>
      <point x="539" y="125" type="line" smooth="yes"/>
      <point x="498" y="125"/>
      <point x="489" y="141"/>
      <point x="489" y="183" type="curve" smooth="yes"/>
      <point x="489" y="310" type="line"/>
      <point x="621" y="343"/>
      <point x="733" y="388"/>
      <point x="733" y="532" type="curve" smooth="yes"/>
      <point x="733" y="674"/>
      <point x="649" y="714"/>
      <point x="470" y="714" type="curve" smooth="yes"/>
      <point x="380" y="714" type="line" smooth="yes"/>
      <point x="209" y="714"/>
      <point x="118" y="646"/>
      <point x="96" y="606" type="curve"/>
      <point x="192" y="514" type="line"/>
      <point x="207" y="539"/>
      <point x="255" y="589"/>
      <point x="348" y="589" type="curve"/>
      <point x="348" y="406" type="line"/>
      <point x="178" y="368"/>
      <point x="45" y="316"/>
      <point x="45" y="173" type="curve" smooth="yes"/>
      <point x="45" y="39"/>
      <point x="141" y="-18"/>
      <point x="260" y="-32" type="curve"/>
      <point x="292" y="103" type="line"/>
      <point x="235" y="116"/>
      <point x="201" y="131"/>
      <point x="201" y="178" type="curve" smooth="yes"/>
      <point x="201" y="223"/>
      <point x="226" y="253"/>
      <point x="348" y="282" type="curve"/>
      <point x="348" y="118" type="line" smooth="yes"/>
      <point x="348" y="32"/>
      <point x="366" y="0"/>
      <point x="464" y="0" type="curve" smooth="yes"/>
      <point x="713" y="0" type="line"/>
    </contour>
    <contour>
      <point x="577" y="519" type="curve" smooth="yes"/>
      <point x="577" y="467"/>
      <point x="548" y="449"/>
      <point x="489" y="435" type="curve"/>
      <point x="489" y="589" type="line"/>
      <point x="535" y="589"/>
      <point x="577" y="577"/>
    </contour>
  </outline>
</glyph>
<glyph name="Va-adlam" format="2">
  <advance width="689"/>
  <unicode hex="1E91C"/>
  <anchor x="345" y="663" name="top"/>
  <outline>
    <contour>
      <point x="609" y="0" type="line"/>
      <point x="609" y="714" type="line"/>
      <point x="192" y="714" type="line" smooth="yes"/>
      <point x="98" y="714"/>
      <point x="80" y="682"/>
      <point x="80" y="596" type="curve" smooth="yes"/>
      <point x="80" y="0" type="line"/>
      <point x="231" y="0" type="line"/>
      <point x="231" y="531" type="line" smooth="yes"/>
      <point x="231" y="573"/>
      <point x="240" y="589"/>
      <point x="280" y="589" type="curve" smooth="yes"/>
      <point x="458" y="589" type="line"/>
      <point x="458" y="400" type="line"/>
      <point x="306" y="400" type="line"/>
      <point x="306" y="275" type="line"/>
      <point x="458" y="275" type="line"/>
      <point x="458" y="0" type="line"/>
    </contour>
  </outline>
</glyph>
<glyph name="Kha-adlam" format="2">
  <advance width="753"/>
  <unicode hex="1E91D"/>
  <anchor x="421" y="663" name="top"/>
  <outline>
    <contour>
      <point x="192" y="714" type="line" smooth="yes"/>
      <point x="98" y="714"/>
      <point x="80" y="683"/>
      <point x="80" y="597" type="curve" smooth="yes"/>
      <point x="80" y="0" type="line"/>
      <point x="231" y="0" type="line"/>
      <point x="231" y="288" type="line"/>
      <point x="356" y="288" type="line"/>
      <point x="356" y="118" type="line" smooth="yes"/>
      <point x="356" y="32"/>
      <point x="374" y="0"/>
      <point x="468" y="0" type="curve" smooth="yes"/>
      <point x="733" y="0" type="line"/>
      <point x="733" y="125" type="line"/>
      <point x="557" y="125" type="line" smooth="yes"/>
      <point x="516" y="125"/>
      <point x="507" y="141"/>
      <point x="507" y="183" type="curve" smooth="yes"/>
      <point x="507" y="288" type="line"/>
      <point x="658" y="288" type="line"/>
      <point x="658" y="413" type="line"/>
      <point x="507" y="413" type="line"/>
      <point x="507" y="522" type="line"/>
      <point x="356" y="522" type="line"/>
      <point x="356" y="413" type="line"/>
      <point x="231" y="413" type="line"/>
      <point x="231" y="530" type="line" smooth="yes"/>
      <point x="231" y="573"/>
      <point x="240" y="589"/>
      <point x="281" y="589" type="curve" smooth="yes"/>
      <point x="733" y="589" type="line"/>
      <point x="733" y="714" type="line"/>
    </contour>
  </outline>
</glyph>
<glyph name="Gbe-adlam" format="2">
  <advance width="694"/>
  <unicode hex="1E91E"/>
  <anchor x="357" y="663" name="top"/>
  <outline>
    <contour>
      <point x="643" y="125" type="line"/>
      <point x="534" y="125" type="line" smooth="yes"/>
      <point x="466" y="125"/>
      <point x="441" y="148"/>
      <point x="441" y="189" type="curve" smooth="yes"/>
      <point x="441" y="233"/>
      <point x="466" y="268"/>
      <point x="533" y="335" type="curve" smooth="yes"/>
      <point x="607" y="411"/>
      <point x="649" y="457"/>
      <point x="649" y="546" type="curve" smooth="yes"/>
      <point x="649" y="683"/>
      <point x="547" y="714"/>
      <point x="408" y="714" type="curve" smooth="yes"/>
      <point x="80" y="714" type="line"/>
      <point x="80" y="589" type="line"/>
      <point x="378" y="589" type="line" smooth="yes"/>
      <point x="466" y="589"/>
      <point x="493" y="568"/>
      <point x="493" y="524" type="curve" smooth="yes"/>
      <point x="493" y="485"/>
      <point x="469" y="457"/>
      <point x="410" y="399" type="curve" smooth="yes"/>
      <point x="337" y="328"/>
      <point x="320" y="299"/>
      <point x="309" y="276" type="curve"/>
      <point x="231" y="276" type="line"/>
      <point x="231" y="510" type="line"/>
      <point x="80" y="510" type="line"/>
      <point x="80" y="0" type="line"/>
      <point x="231" y="0" type="line"/>
      <point x="231" y="175" type="line"/>
      <point x="287" y="175" type="line"/>
      <point x="287" y="49"/>
      <point x="356" y="0"/>
      <point x="519" y="0" type="curve" smooth="yes"/>
      <point x="643" y="0" type="line"/>
    </contour>
  </outline>
</glyph>
<glyph name="Zal-adlam" format="2">
  <advance width="854"/>
  <unicode hex="1E91F"/>
  <anchor x="450" y="663" name="top"/>
  <outline>
    <contour>
      <point x="774" y="714" type="line"/>
      <point x="623" y="714" type="line"/>
      <point x="623" y="450" type="line"/>
      <point x="503" y="450" type="line"/>
      <point x="503" y="615" type="line"/>
      <point x="491" y="637"/>
      <point x="443" y="724"/>
      <point x="292" y="724" type="curve" smooth="yes"/>
      <point x="152" y="724"/>
      <point x="80" y="672"/>
      <point x="80" y="531" type="curve" smooth="yes"/>
      <point x="80" y="0" type="line"/>
      <point x="231" y="0" type="line"/>
      <point x="231" y="504" type="line" smooth="yes"/>
      <point x="231" y="576"/>
      <point x="252" y="599"/>
      <point x="295" y="599" type="curve" smooth="yes"/>
      <point x="331" y="599"/>
      <point x="347" y="580"/>
      <point x="352" y="570" type="curve"/>
      <point x="352" y="200" type="line"/>
      <point x="503" y="200" type="line"/>
      <point x="503" y="325" type="line"/>
      <point x="623" y="325" type="line"/>
      <point x="623" y="183" type="line" smooth="yes"/>
      <point x="623" y="141"/>
      <point x="614" y="125"/>
      <point x="574" y="125" type="curve" smooth="yes"/>
      <point x="355" y="125" type="line"/>
      <point x="355" y="0" type="line"/>
      <point x="663" y="0" type="line" smooth="yes"/>
      <point x="757" y="0"/>
      <point x="774" y="32"/>
      <point x="774" y="118" type="curve" smooth="yes"/>
    </contour>
  </outline>
</glyph>
<glyph name="Kpo-adlam" format="2">
  <advance width="701"/>
  <unicode hex="1E920"/>
  <anchor x="359" y="663" name="top"/>
  <outline>
    <contour>
      <point x="638" y="125" type="line"/>
      <point x="280" y="125" type="line" smooth="yes"/>
      <point x="240" y="125"/>
      <point x="231" y="141"/>
      <point x="231" y="183" type="curve" smooth="yes"/>
      <point x="231" y="558" type="line"/>
      <point x="253" y="582"/>
      <point x="296" y="599"/>
      <point x="354" y="599" type="curve" smooth="yes"/>
      <point x="437" y="599"/>
      <point x="490" y="560"/>
      <point x="490" y="472" type="curve" smooth="yes"/>
      <point x="490" y="386"/>
      <point x="443" y="356"/>
      <point x="382" y="356" type="curve" smooth="yes"/>
      <point x="353" y="356"/>
      <point x="332" y="362"/>
      <point x="319" y="373" type="curve"/>
      <point x="274" y="258" type="line"/>
      <point x="287" y="247"/>
      <point x="328" y="231"/>
      <point x="384" y="231" type="curve" smooth="yes"/>
      <point x="512" y="231"/>
      <point x="646" y="286"/>
      <point x="646" y="477" type="curve" smooth="yes"/>
      <point x="646" y="665"/>
      <point x="521" y="724"/>
      <point x="359" y="724" type="curve" smooth="yes"/>
      <point x="195" y="724"/>
      <point x="110" y="664"/>
      <point x="80" y="629" type="curve"/>
      <point x="80" y="118" type="line" smooth="yes"/>
      <point x="80" y="32"/>
      <point x="98" y="0"/>
      <point x="192" y="0" type="curve" smooth="yes"/>
      <point x="638" y="0" type="line"/>
    </contour>
  </outline>
</glyph>
<glyph name="Sha-adlam" format="2">
  <advance width="874"/>
  <unicode hex="1E921"/>
  <anchor x="450" y="663" name="top"/>
  <outline>
    <contour>
      <point x="794" y="0" type="line"/>
      <point x="794" y="596" type="line" smooth="yes"/>
      <point x="794" y="682"/>
      <point x="777" y="714"/>
      <point x="683" y="714" type="curve" smooth="yes"/>
      <point x="357" y="714" type="line"/>
      <point x="357" y="589" type="line"/>
      <point x="594" y="589" type="line" smooth="yes"/>
      <point x="634" y="589"/>
      <point x="643" y="573"/>
      <point x="643" y="531" type="curve" smooth="yes"/>
      <point x="643" y="389" type="line"/>
      <point x="508" y="389" type="line"/>
      <point x="508" y="508" type="line"/>
      <point x="357" y="508" type="line"/>
      <point x="357" y="213" type="line" smooth="yes"/>
      <point x="357" y="138"/>
      <point x="334" y="115"/>
      <point x="292" y="115" type="curve" smooth="yes"/>
      <point x="250" y="115"/>
      <point x="238" y="128"/>
      <point x="231" y="138" type="curve"/>
      <point x="231" y="714" type="line"/>
      <point x="80" y="714" type="line"/>
      <point x="80" y="86" type="line"/>
      <point x="93" y="61"/>
      <point x="140" y="-10"/>
      <point x="292" y="-10" type="curve" smooth="yes"/>
      <point x="438" y="-10"/>
      <point x="508" y="42"/>
      <point x="508" y="183" type="curve" smooth="yes"/>
      <point x="508" y="264" type="line"/>
      <point x="643" y="264" type="line"/>
      <point x="643" y="0" type="line"/>
    </contour>
  </outline>
</glyph>
<glyph name="alif-adlam" format="2">
  <advance width="676"/>
  <unicode hex="1E922"/>
  <anchor x="338" y="585" name="gemconsonanttop"/>
  <anchor x="352" y="585" name="top"/>
  <anchor x="104" y="638" name="topAlif"/>
  <outline>
    <contour>
      <point x="474" y="486" type="curve" smooth="yes"/>
      <point x="405" y="486"/>
      <point x="353" y="516"/>
      <point x="331" y="536" type="curve"/>
      <point x="276" y="428" type="line"/>
      <point x="294" y="411"/>
      <point x="327" y="389"/>
      <point x="371" y="373" type="curve" smooth="yes"/>
      <point x="427" y="353"/>
      <point x="463" y="323"/>
      <point x="463" y="234" type="curve" smooth="yes"/>
      <point x="463" y="138"/>
      <point x="414" y="110"/>
      <point x="334" y="110" type="curve" smooth="yes"/>
      <point x="272" y="110"/>
      <point x="224" y="138"/>
      <point x="224" y="249" type="curve" smooth="yes"/>
      <point x="224" y="649" type="line"/>
      <point x="75" y="649" type="line"/>
      <point x="75" y="249" type="line" smooth="yes"/>
      <point x="75" y="50"/>
      <point x="150" y="-10"/>
      <point x="334" y="-10" type="curve" smooth="yes"/>
      <point x="527" y="-10"/>
      <point x="615" y="79"/>
      <point x="615" y="209" type="curve" smooth="yes"/>
      <point x="615" y="306"/>
      <point x="575" y="350"/>
      <point x="539" y="372" type="curve"/>
      <point x="539" y="379" type="line"/>
      <point x="576" y="383"/>
      <point x="612" y="396"/>
      <point x="631" y="409" type="curve"/>
      <point x="591" y="518" type="line"/>
      <point x="571" y="504"/>
      <point x="530" y="486"/>
    </contour>
  </outline>
</glyph>
<glyph name="daali-adlam" format="2">
  <advance width="620"/>
  <unicode hex="1E923"/>
  <anchor x="269" y="631" name="gemconsonanttop"/>
  <anchor x="284" y="631" name="top"/>
  <outline>
    <contour>
      <point x="391" y="714" type="line"/>
      <point x="391" y="307" type="line"/>
      <point x="385" y="304" type="line"/>
      <point x="374" y="315"/>
      <point x="352" y="328"/>
      <point x="285" y="346" type="curve" smooth="yes"/>
      <point x="211" y="366"/>
      <point x="199" y="374"/>
      <point x="199" y="466" type="curve" smooth="yes"/>
      <point x="199" y="585" type="line"/>
      <point x="50" y="585" type="line"/>
      <point x="50" y="430" type="line" smooth="yes"/>
      <point x="50" y="279"/>
      <point x="102" y="263"/>
      <point x="246" y="233" type="curve" smooth="yes"/>
      <point x="369" y="207"/>
      <point x="391" y="193"/>
      <point x="391" y="156" type="curve" smooth="yes"/>
      <point x="391" y="128"/>
      <point x="375" y="120"/>
      <point x="341" y="120" type="curve" smooth="yes"/>
      <point x="50" y="120" type="line"/>
      <point x="50" y="0" type="line"/>
      <point x="424" y="0" type="line" smooth="yes"/>
      <point x="528" y="0"/>
      <point x="540" y="27"/>
      <point x="540" y="119" type="curve" smooth="yes"/>
      <point x="540" y="714" type="line"/>
    </contour>
  </outline>
</glyph>
<glyph name="laam-adlam" format="2">
  <advance width="616"/>
  <unicode hex="1E924"/>
  <anchor x="296" y="575" name="top"/>
  <outline>
    <contour>
      <point x="329" y="120" type="curve" smooth="yes"/>
      <point x="56" y="120" type="line"/>
      <point x="56" y="0" type="line"/>
      <point x="425" y="0" type="line" smooth="yes"/>
      <point x="529" y="0"/>
      <point x="541" y="27"/>
      <point x="541" y="119" type="curve" smooth="yes"/>
      <point x="541" y="409" type="line" smooth="yes"/>
      <point x="541" y="543"/>
      <point x="479" y="595"/>
      <point x="346" y="595" type="curve" smooth="yes"/>
      <point x="157" y="595"/>
      <point x="71" y="482"/>
      <point x="55" y="442" type="curve"/>
      <point x="55" y="261" type="line"/>
      <point x="204" y="261" type="line"/>
      <point x="204" y="409" type="line"/>
      <point x="213" y="427"/>
      <point x="250" y="475"/>
      <point x="320" y="475" type="curve" smooth="yes"/>
      <point x="369" y="475"/>
      <point x="392" y="452"/>
      <point x="392" y="399" type="curve" smooth="yes"/>
      <point x="392" y="186" type="line" smooth="yes"/>
      <point x="392" y="132"/>
      <point x="385" y="120"/>
    </contour>
  </outline>
</glyph>
<glyph name="miim-adlam" format="2">
  <advance width="618"/>
  <unicode hex="1E925"/>
  <anchor x="307" y="575" name="top"/>
  <outline>
    <contour>
      <point x="304" y="595" type="curve" smooth="yes"/>
      <point x="128" y="595"/>
      <point x="45" y="536"/>
      <point x="45" y="399" type="curve" smooth="yes"/>
      <point x="45" y="262"/>
      <point x="120" y="237"/>
      <point x="249" y="218" type="curve" smooth="yes"/>
      <point x="363" y="201"/>
      <point x="394" y="188"/>
      <point x="394" y="156" type="curve" smooth="yes"/>
      <point x="394" y="132"/>
      <point x="387" y="120"/>
      <point x="340" y="120" type="curve" smooth="yes"/>
      <point x="48" y="120" type="line"/>
      <point x="48" y="0" type="line"/>
      <point x="427" y="0" type="line" smooth="yes"/>
      <point x="531" y="0"/>
      <point x="543" y="27"/>
      <point x="543" y="119" type="curve" smooth="yes"/>
      <point x="543" y="408" type="line" smooth="yes"/>
      <point x="543" y="550"/>
      <point x="473" y="595"/>
    </contour>
    <contour>
      <point x="286" y="326" type="curve" smooth="yes"/>
      <point x="228" y="337"/>
      <point x="197" y="354"/>
      <point x="197" y="402" type="curve" smooth="yes"/>
      <point x="197" y="452"/>
      <point x="227" y="475"/>
      <point x="298" y="475" type="curve" smooth="yes"/>
      <point x="373" y="475"/>
      <point x="394" y="447"/>
      <point x="394" y="362" type="curve" smooth="yes"/>
      <point x="394" y="293" type="line"/>
      <point x="388" y="290" type="line"/>
      <point x="370" y="306"/>
      <point x="340" y="316"/>
    </contour>
  </outline>
</glyph>
<glyph name="ba-adlam" format="2">
  <advance width="755"/>
  <unicode hex="1E926"/>
  <anchor x="434" y="633" name="top"/>
  <outline>
    <contour>
      <point x="75" y="714" type="line"/>
      <point x="75" y="119" type="line" smooth="yes"/>
      <point x="75" y="27"/>
      <point x="87" y="0"/>
      <point x="191" y="0" type="curve" smooth="yes"/>
      <point x="699" y="0" type="line"/>
      <point x="699" y="120" type="line"/>
      <point x="287" y="120" type="line" smooth="yes"/>
      <point x="232" y="120"/>
      <point x="224" y="132"/>
      <point x="224" y="185" type="curve" smooth="yes"/>
      <point x="224" y="218" type="line"/>
      <point x="231" y="223" type="line"/>
      <point x="262" y="205"/>
      <point x="303" y="180"/>
      <point x="419" y="180" type="curve" smooth="yes"/>
      <point x="585" y="180"/>
      <point x="710" y="250"/>
      <point x="710" y="403" type="curve" smooth="yes"/>
      <point x="710" y="532"/>
      <point x="631" y="595"/>
      <point x="503" y="595" type="curve" smooth="yes"/>
      <point x="397" y="595"/>
      <point x="336" y="564"/>
      <point x="317" y="548" type="curve"/>
      <point x="317" y="345" type="line"/>
      <point x="451" y="345" type="line"/>
      <point x="451" y="470" type="line"/>
      <point x="459" y="473"/>
      <point x="471" y="475"/>
      <point x="486" y="475" type="curve" smooth="yes"/>
      <point x="521" y="475"/>
      <point x="558" y="462"/>
      <point x="558" y="398" type="curve" smooth="yes"/>
      <point x="558" y="328"/>
      <point x="521" y="300"/>
      <point x="419" y="300" type="curve" smooth="yes"/>
      <point x="303" y="300"/>
      <point x="244" y="336"/>
      <point x="224" y="352" type="curve"/>
      <point x="224" y="714" type="line"/>
    </contour>
  </outline>
</glyph>
<glyph name="sinnyiiyhe-adlam" format="2">
  <advance width="877"/>
  <unicode hex="1E927"/>
  <anchor x="440" y="2" name="bottom"/>
  <anchor x="442" y="575" name="gemconsonanttop"/>
  <anchor x="438" y="575" name="top"/>
  <outline>
    <contour>
      <point x="802" y="585" type="line"/>
      <point x="653" y="585" type="line"/>
      <point x="653" y="196" type="line" smooth="yes"/>
      <point x="653" y="141"/>
      <point x="630" y="110"/>
      <point x="583" y="110" type="curve" smooth="yes"/>
      <point x="536" y="110"/>
      <point x="513" y="141"/>
      <point x="513" y="196" type="curve" smooth="yes"/>
      <point x="513" y="585" type="line"/>
      <point x="364" y="585" type="line"/>
      <point x="364" y="196" type="line" smooth="yes"/>
      <point x="364" y="141"/>
      <point x="341" y="110"/>
      <point x="294" y="110" type="curve" smooth="yes"/>
      <point x="247" y="110"/>
      <point x="224" y="141"/>
      <point x="224" y="196" type="curve" smooth="yes"/>
      <point x="224" y="676" type="line"/>
      <point x="75" y="676" type="line"/>
      <point x="75" y="196" type="line" smooth="yes"/>
      <point x="75" y="38"/>
      <point x="149" y="-10"/>
      <point x="270" y="-10" type="curve" smooth="yes"/>
      <point x="375" y="-10"/>
      <point x="416" y="27"/>
      <point x="435" y="73" type="curve"/>
      <point x="441" y="73" type="line"/>
      <point x="463" y="27"/>
      <point x="499" y="-10"/>
      <point x="598" y="-10" type="curve" smooth="yes"/>
      <point x="721" y="-10"/>
      <point x="802" y="41"/>
      <point x="802" y="196" type="curve" smooth="yes"/>
    </contour>
  </outline>
</glyph>
<glyph name="pe-adlam" format="2">
  <advance width="567"/>
  <unicode hex="1E928"/>
  <anchor x="295" y="575" name="top"/>
  <outline>
    <contour>
      <point x="506" y="120" type="line"/>
      <point x="287" y="120" type="line" smooth="yes"/>
      <point x="231" y="120"/>
      <point x="224" y="132"/>
      <point x="224" y="185" type="curve" smooth="yes"/>
      <point x="224" y="467" type="line"/>
      <point x="233" y="472"/>
      <point x="250" y="475"/>
      <point x="264" y="475" type="curve" smooth="yes"/>
      <point x="318" y="475"/>
      <point x="370" y="441"/>
      <point x="370" y="346" type="curve" smooth="yes"/>
      <point x="370" y="289"/>
      <point x="344" y="251"/>
      <point x="327" y="231" type="curve"/>
      <point x="440" y="148" type="line"/>
      <point x="471" y="176"/>
      <point x="522" y="242"/>
      <point x="522" y="354" type="curve" smooth="yes"/>
      <point x="522" y="516"/>
      <point x="432" y="595"/>
      <point x="269" y="595" type="curve" smooth="yes"/>
      <point x="179" y="595"/>
      <point x="108" y="574"/>
      <point x="75" y="561" type="curve"/>
      <point x="75" y="119" type="line" smooth="yes"/>
      <point x="75" y="27"/>
      <point x="87" y="0"/>
      <point x="191" y="0" type="curve" smooth="yes"/>
      <point x="506" y="0" type="line"/>
    </contour>
  </outline>
</glyph>
<glyph name="bhe-adlam" format="2">
  <advance width="577"/>
  <unicode hex="1E929"/>
  <anchor x="280" y="591" name="top"/>
  <outline>
    <contour>
      <point x="353" y="433" type="line"/>
      <point x="353" y="332" type="line"/>
      <point x="336" y="318"/>
      <point x="297" y="305"/>
      <point x="261" y="305" type="curve" smooth="yes"/>
      <point x="225" y="305"/>
      <point x="197" y="318"/>
      <point x="197" y="355" type="curve" smooth="yes"/>
      <point x="197" y="396"/>
      <point x="229" y="419"/>
      <point x="314" y="459" type="curve" smooth="yes"/>
      <point x="407" y="503"/>
      <point x="462" y="532"/>
      <point x="500" y="574" type="curve"/>
      <point x="418" y="667" type="line"/>
      <point x="385" y="631"/>
      <point x="339" y="601"/>
      <point x="236" y="552" type="curve" smooth="yes"/>
      <point x="130" y="500"/>
      <point x="45" y="460"/>
      <point x="45" y="342" type="curve" smooth="yes"/>
      <point x="45" y="228"/>
      <point x="112" y="185"/>
      <point x="216" y="185" type="curve" smooth="yes"/>
      <point x="281" y="185"/>
      <point x="326" y="202"/>
      <point x="347" y="222" type="curve"/>
      <point x="353" y="221" type="line"/>
      <point x="353" y="186" type="line" smooth="yes"/>
      <point x="353" y="132"/>
      <point x="345" y="120"/>
      <point x="290" y="120" type="curve" smooth="yes"/>
      <point x="49" y="120" type="line"/>
      <point x="49" y="0" type="line"/>
      <point x="386" y="0" type="line" smooth="yes"/>
      <point x="490" y="0"/>
      <point x="502" y="27"/>
      <point x="502" y="119" type="curve" smooth="yes"/>
      <point x="502" y="433" type="line"/>
    </contour>
  </outline>
</glyph>
<glyph name="ra-adlam" format="2">
  <advance width="659"/>
  <unicode hex="1E92A"/>
  <anchor x="342" y="640" name="top"/>
  <outline>
    <contour>
      <point x="229" y="267" type="line"/>
      <point x="247" y="236"/>
      <point x="297" y="213"/>
      <point x="375" y="213" type="curve" smooth="yes"/>
      <point x="516" y="213"/>
      <point x="599" y="271"/>
      <point x="599" y="424" type="curve" smooth="yes"/>
      <point x="599" y="585" type="line"/>
      <point x="450" y="585" type="line"/>
      <point x="450" y="424" type="line" smooth="yes"/>
      <point x="450" y="363"/>
      <point x="411" y="333"/>
      <point x="340" y="333" type="curve" smooth="yes"/>
      <point x="269" y="333"/>
      <point x="233" y="373"/>
      <point x="224" y="406" type="curve"/>
      <point x="224" y="585" type="line"/>
      <point x="75" y="585" type="line"/>
      <point x="75" y="119" type="line" smooth="yes"/>
      <point x="75" y="27"/>
      <point x="87" y="0"/>
      <point x="191" y="0" type="curve" smooth="yes"/>
      <point x="598" y="0" type="line"/>
      <point x="598" y="120" type="line"/>
      <point x="287" y="120" type="line" smooth="yes"/>
      <point x="231" y="120"/>
      <point x="224" y="132"/>
      <point x="224" y="186" type="curve" smooth="yes"/>
      <point x="224" y="265" type="line"/>
    </contour>
  </outline>
</glyph>
<glyph name="e-adlam" format="2">
  <advance width="702"/>
  <unicode hex="1E92B"/>
  <anchor x="285" y="0" name="bottom"/>
  <anchor x="333" y="565" name="top"/>
  <outline>
    <contour>
      <point x="470" y="-36" type="curve"/>
      <point x="530" y="-84" type="line"/>
      <point x="562" y="-64"/>
      <point x="662" y="12"/>
      <point x="662" y="136" type="curve" smooth="yes"/>
      <point x="662" y="235"/>
      <point x="594" y="280"/>
      <point x="540" y="285" type="curve"/>
      <point x="540" y="291" type="line"/>
      <point x="571" y="311"/>
      <point x="621" y="341"/>
      <point x="621" y="425" type="curve" smooth="yes"/>
      <point x="621" y="528"/>
      <point x="556" y="595"/>
      <point x="353" y="595" type="curve" smooth="yes"/>
      <point x="95" y="595"/>
      <point x="70" y="492"/>
      <point x="70" y="353" type="curve" smooth="yes"/>
      <point x="70" y="0" type="line"/>
      <point x="219" y="0" type="line"/>
      <point x="219" y="353" type="line" smooth="yes"/>
      <point x="219" y="434"/>
      <point x="251" y="475"/>
      <point x="353" y="475" type="curve" smooth="yes"/>
      <point x="445" y="475"/>
      <point x="469" y="448"/>
      <point x="469" y="413" type="curve" smooth="yes"/>
      <point x="469" y="375"/>
      <point x="445" y="359"/>
      <point x="373" y="310" type="curve" smooth="yes"/>
      <point x="302" y="262"/>
      <point x="256" y="226"/>
      <point x="256" y="128" type="curve" smooth="yes"/>
      <point x="256" y="23"/>
      <point x="321" y="0"/>
      <point x="415" y="0" type="curve" smooth="yes"/>
      <point x="460" y="0" type="line"/>
      <point x="460" y="110" type="line"/>
      <point x="415" y="110" type="line" smooth="yes"/>
      <point x="385" y="110"/>
      <point x="369" y="117"/>
      <point x="369" y="140" type="curve" smooth="yes"/>
      <point x="369" y="178"/>
      <point x="409" y="212"/>
      <point x="441" y="230" type="curve"/>
      <point x="486" y="224"/>
      <point x="521" y="178"/>
      <point x="521" y="107" type="curve" smooth="yes"/>
      <point x="521" y="43"/>
      <point x="497" y="-7"/>
    </contour>
  </outline>
</glyph>
<glyph name="fa-adlam" format="2">
  <advance width="651"/>
  <unicode hex="1E92C"/>
  <anchor x="331" y="575" name="top"/>
  <outline>
    <contour>
      <point x="565" y="585" type="line"/>
      <point x="191" y="585" type="line" smooth="yes"/>
      <point x="87" y="585"/>
      <point x="75" y="557"/>
      <point x="75" y="466" type="curve" smooth="yes"/>
      <point x="75" y="-130" type="line"/>
      <point x="224" y="-130" type="line"/>
      <point x="224" y="201" type="line"/>
      <point x="240" y="233"/>
      <point x="278" y="271"/>
      <point x="348" y="271" type="curve" smooth="yes"/>
      <point x="418" y="271"/>
      <point x="444" y="225"/>
      <point x="444" y="175" type="curve" smooth="yes"/>
      <point x="444" y="129"/>
      <point x="423" y="120"/>
      <point x="372" y="120" type="curve" smooth="yes"/>
      <point x="292" y="120" type="line"/>
      <point x="292" y="0" type="line"/>
      <point x="372" y="0" type="line" smooth="yes"/>
      <point x="552" y="0"/>
      <point x="596" y="37"/>
      <point x="596" y="176" type="curve" smooth="yes"/>
      <point x="596" y="311"/>
      <point x="527" y="391"/>
      <point x="396" y="391" type="curve" smooth="yes"/>
      <point x="291" y="391"/>
      <point x="248" y="348"/>
      <point x="230" y="328" type="curve"/>
      <point x="224" y="330" type="line"/>
      <point x="224" y="400" type="line" smooth="yes"/>
      <point x="224" y="453"/>
      <point x="231" y="465"/>
      <point x="287" y="465" type="curve" smooth="yes"/>
      <point x="565" y="465" type="line"/>
    </contour>
  </outline>
</glyph>
<glyph name="i-adlam" format="2">
  <advance width="722"/>
  <unicode hex="1E92D"/>
  <anchor x="377" y="607" name="top"/>
  <outline>
    <contour>
      <point x="642" y="585" type="line"/>
      <point x="493" y="585" type="line"/>
      <point x="493" y="222" type="line" smooth="yes"/>
      <point x="493" y="130"/>
      <point x="448" y="110"/>
      <point x="361" y="110" type="curve" smooth="yes"/>
      <point x="275" y="110"/>
      <point x="229" y="130"/>
      <point x="229" y="222" type="curve" smooth="yes"/>
      <point x="229" y="585" type="line"/>
      <point x="80" y="585" type="line"/>
      <point x="80" y="205" type="line" smooth="yes"/>
      <point x="80" y="43"/>
      <point x="162" y="-10"/>
      <point x="359" y="-10" type="curve" smooth="yes"/>
      <point x="556" y="-10"/>
      <point x="642" y="43"/>
      <point x="642" y="205" type="curve" smooth="yes"/>
    </contour>
  </outline>
</glyph>
<glyph name="o-adlam" format="2">
  <advance width="660"/>
  <unicode hex="1E92E"/>
  <anchor x="356" y="0" name="bottom"/>
  <anchor x="357" y="575" name="top"/>
  <outline>
    <contour>
      <point x="470" y="376" type="curve"/>
      <point x="605" y="446" type="line"/>
      <point x="575" y="508"/>
      <point x="519" y="595"/>
      <point x="351" y="595" type="curve" smooth="yes"/>
      <point x="171" y="595"/>
      <point x="65" y="477"/>
      <point x="65" y="288" type="curve" smooth="yes"/>
      <point x="65" y="60"/>
      <point x="189" y="0"/>
      <point x="376" y="0" type="curve" smooth="yes"/>
      <point x="600" y="0" type="line"/>
      <point x="600" y="120" type="line"/>
      <point x="376" y="120" type="line" smooth="yes"/>
      <point x="303" y="120"/>
      <point x="217" y="130"/>
      <point x="217" y="297" type="curve" smooth="yes"/>
      <point x="217" y="422"/>
      <point x="270" y="475"/>
      <point x="346" y="475" type="curve" smooth="yes"/>
      <point x="422" y="475"/>
      <point x="452" y="414"/>
    </contour>
  </outline>
</glyph>
